<?xml version="1.0" encoding="UTF-8" standalone="no"?><!-- Generator: Gravit.io --><svg xmlns="http://www.w3.org/2000/svg" xmlns:xlink="http://www.w3.org/1999/xlink" style="isolation:isolate" viewBox="0 0 400 400" width="400pt" height="400pt"><defs><clipPath id="_clipPath_9eYsSLMFaOtwtEQxxev3mtlZiM7qAvus"><rect width="400" height="400"/></clipPath></defs><g clip-path="url(#_clipPath_9eYsSLMFaOtwtEQxxev3mtlZiM7qAvus)"><g><path d=" M 16.557 134.446 L 7.46 151.92 L 8.213 164.901 C 9.011 177.248 8.921 178.515 6.133 192.301 C 3.204 206.258 3.206 206.834 4.801 209.305 C 5.713 210.634 6.605 211.755 6.756 211.689 C 7.531 211.563 20.103 202.043 20.903 201.076 C 21.421 200.451 30.32 194.213 40.614 187.213 L 59.441 174.535 L 72.818 170.757 L 86.195 166.979 L 101.989 173.823 L 117.83 180.61 L 129.315 181.781 L 140.8 182.951 L 152.428 178.971 C 158.874 176.738 163.922 174.69 163.732 174.341 C 163.542 173.992 159.966 172.757 155.86 171.466 C 148.908 169.449 147.583 168.735 139.125 162.981 C 134.134 159.521 129.976 156.559 129.956 156.351 C 129.936 156.143 137.58 156.051 146.869 156.17 C 159.352 156.251 169.518 155.659 185.282 153.857 C 205.713 151.51 207.65 151.485 222.395 152.767 C 230.902 153.484 238.738 154.318 239.656 154.598 C 240.63 154.925 247.713 159.446 255.395 164.75 C 269.118 174.096 269.687 174.566 280.362 184.933 L 291.274 195.593 L 300.616 211.275 C 308.6 224.779 310.15 227.883 311.891 234.113 C 312.991 237.993 313.911 241.628 314.007 242.091 C 314.046 242.506 310.917 244.898 307.014 247.416 C 299.838 251.919 282.662 263.76 280.637 265.629 C 280.062 266.207 276.412 270.85 272.592 275.928 L 265.66 285.23 L 264.178 296.744 C 263.358 303.059 262.876 308.504 263.066 308.853 C 263.494 309.494 264.897 308.261 272.734 300.76 C 275.522 298.085 283.238 291.539 289.816 286.254 L 301.802 276.631 L 315.756 275.63 L 329.766 274.675 L 333.906 269.671 L 338 264.725 L 346.187 271.501 L 354.374 278.276 L 364.298 281.795 C 372.113 284.623 393.587 294.443 395.804 296.278 C 397.225 297.454 395.388 293.539 390.083 283.976 L 384.037 273.224 L 373.623 264.509 L 363.198 255.691 L 352.902 251.001 L 342.709 246.302 L 335.79 234.637 L 328.928 223.019 L 324.886 201.28 C 321.227 181.393 320.328 177.966 314.422 161.487 L 307.945 143.386 L 294.603 126.98 C 281.803 111.31 280.693 110.104 269.832 100.54 L 258.459 90.553 L 238.011 79.378 C 226.783 73.152 212.773 65.772 206.828 62.769 L 196.047 57.391 L 195.136 47.728 L 194.224 38.064 L 198.704 29.989 C 201.221 25.558 203.07 21.819 202.843 21.631 C 202.615 21.443 195.871 22.184 187.956 23.297 L 173.525 25.34 L 155.41 38.895 L 137.294 52.45 L 118.936 58.428 C 101.54 64.053 99.577 64.919 79.382 75.316 L 58.14 86.283 L 42.334 100.983 C 33.659 109.035 26.34 115.911 26.114 116.299 C 25.879 116.583 21.57 124.8 16.557 134.446 Z  M 41.454 103.32 C 48.527 96.625 54.593 90.916 54.979 90.565 C 55.883 89.589 54.076 94.32 48.78 107.085 L 44.132 118.373 L 41.003 117.987 C 35.794 117.221 28.22 115.838 28.408 115.611 C 28.502 115.497 34.37 109.912 41.454 103.32 Z  M 26.442 120.881 C 26.567 121.655 27.022 127.588 27.432 134.154 L 28.124 145.934 L 19.06 148.205 C 14.038 149.412 9.92 150.22 9.844 149.965 C 9.785 149.342 24.103 122.202 25.364 120.563 C 26.012 119.663 26.23 119.748 26.442 120.881 Z  M 35.57 118.185 C 42.008 119.203 42.936 119.587 42.618 120.665 C 42.422 121.365 39.342 127.055 35.725 133.162 L 29.187 144.419 L 29.016 141.5 C 28.316 132.969 27.612 117.73 27.895 117.389 C 28.083 117.162 31.524 117.519 35.57 118.185 Z  M 64.255 100.54 L 70.879 111.866 L 68.009 112.556 C 66.47 112.911 60.89 114.329 55.669 115.66 C 50.449 116.991 46.18 117.866 46.094 117.507 C 46.026 116.779 57.016 89.377 57.422 89.234 C 57.526 89.224 60.624 94.278 64.255 100.54 Z  M 80.207 76.287 C 98.487 66.7 98.336 66.766 98.348 67.447 C 98.36 68.127 72.187 110.17 71.667 110.219 C 71.309 110.306 68.572 105.742 59 89.295 C 58.183 87.852 58.22 87.691 60.475 86.587 C 61.72 85.893 70.615 81.28 80.207 76.287 Z  M 18.658 149.501 C 23.37 148.322 27.383 147.524 27.61 147.713 C 28.008 148.042 23.811 172.445 23.385 172.38 C 22.705 172.392 9.399 152.471 9.775 152.016 C 9.964 151.789 13.994 150.622 18.658 149.501 Z  M 15.996 164.062 C 19.633 169.275 22.417 173.782 22.229 174.009 C 21.993 174.294 19.247 175.182 16.018 175.958 L 10.24 177.499 L 9.473 166.04 C 9.093 159.786 8.868 154.618 9.075 154.598 C 9.283 154.578 12.359 158.849 15.996 164.062 Z  M 43.353 122.902 C 43.412 123.526 42.906 130.387 42.234 138.261 L 40.96 152.534 L 36.87 150.299 C 28.577 145.735 28.706 147.662 36.305 134.312 C 39.94 127.837 43.049 122.459 43.134 122.241 C 43.171 122.081 43.304 122.383 43.353 122.902 Z  M 52.231 129.77 C 55.969 134.397 59.481 138.835 60.022 139.571 C 61.037 140.89 60.99 140.947 52.513 146.097 C 47.798 148.901 43.526 151.4 43.036 151.761 C 42.489 152.075 42.638 145.876 43.457 136.783 C 44.175 128.276 44.983 121.281 45.143 121.318 C 45.351 121.298 48.539 125.086 52.231 129.77 Z  M 58.336 116.142 C 64.888 114.476 70.242 113.447 70.281 113.862 C 70.332 114.958 61.957 138.969 61.484 138.961 C 61.069 139 47.68 122.651 46.445 120.671 C 46.198 120.275 46.092 119.708 46.233 119.538 C 46.422 119.31 51.888 117.799 58.336 116.142 Z  M 33.125 149.499 C 35.056 150.522 37.442 151.922 38.456 152.665 L 40.303 153.906 L 34.121 161.723 C 24.713 173.67 24.713 173.67 26.812 160.368 C 27.849 154.137 28.861 148.748 29.19 148.35 C 29.416 147.962 31.251 148.522 33.125 149.499 Z  M 100.587 67.288 C 101.383 67.946 108.329 96.015 107.859 96.584 C 107.153 97.437 74.334 110.702 73.879 110.325 C 73.708 110.184 78.951 101.303 85.642 90.555 C 92.286 79.865 97.972 70.679 98.235 70.131 C 99.117 68.37 100.246 67.005 100.587 67.288 Z  M 125.286 69.623 C 137.322 71.632 147.136 73.432 147.156 73.64 C 147.195 74.055 111.209 95.429 110.227 95.574 C 109.661 95.68 107.214 87.524 102.914 70.842 C 102.254 68.284 102.105 66.149 102.567 66.053 C 103.04 66.06 113.307 67.66 125.286 69.623 Z  M 122.602 58.397 C 130.738 55.742 137.526 53.791 137.659 54.093 C 137.792 54.395 140.215 58.412 143.019 63.127 C 145.823 67.843 148.028 71.775 147.887 71.946 C 147.746 72.117 144.352 71.703 140.249 70.989 C 136.202 70.323 126.615 68.711 118.891 67.396 C 111.166 66.08 104.661 64.912 104.491 64.77 C 104.263 64.582 104.904 64.155 105.971 63.792 C 106.99 63.486 114.523 61.098 122.602 58.397 Z  M 16.531 176.958 C 19.609 176.248 22.084 175.805 22.15 175.956 C 22.199 176.476 6.456 201.286 5.862 201.657 C 5.07 202.151 9.371 180.516 10.303 179.275 C 10.622 178.773 13.463 177.772 16.531 176.958 Z  M 78.427 139.092 C 82.035 152.328 84.66 162.93 84.225 162.762 C 82.976 162.303 63.09 141.535 62.945 140.553 C 62.847 139.514 70.995 115.315 71.505 115.162 C 71.712 115.142 74.773 125.914 78.427 139.092 Z  M 93.521 104.069 C 100.787 101.078 107.11 98.646 107.582 98.654 C 108.045 98.558 107.531 103.115 106.435 108.722 C 105.387 114.272 104.226 120.304 103.91 121.959 C 103.548 123.671 103.052 125.08 102.74 125.11 C 102.012 125.178 75.041 113.203 74.075 112.404 C 73.734 112.121 74.969 111.323 76.894 110.617 C 78.715 109.921 86.246 106.957 93.521 104.069 Z  M 87.953 120.057 C 95.402 123.443 101.762 126.408 102.093 126.586 C 102.652 126.953 87.356 163.724 86.685 163.84 C 86.477 163.86 84.317 156.515 81.839 147.472 C 79.417 138.475 76.365 127.231 75.083 122.53 C 73.744 117.781 73.069 113.966 73.542 113.974 C 73.957 113.935 80.505 116.672 87.953 120.057 Z  M 30.043 171.28 C 35.823 167.538 35.927 167.528 39.681 168.432 C 41.771 168.916 43.512 169.59 43.532 169.798 C 43.551 170.006 38.378 176.836 31.961 184.937 L 20.35 199.661 L 21.766 190.774 C 22.562 185.876 23.403 180.346 23.699 178.483 C 23.995 176.621 24.273 175.127 24.273 175.127 C 24.217 175.08 26.885 173.36 30.043 171.28 Z  M 22.378 178.922 C 22.397 179.13 21.584 184.396 20.48 190.476 L 18.647 201.604 L 11.963 203.545 C 6.809 205.027 5.515 205.201 6.041 204.103 C 7.336 201.727 19.733 182.002 21.031 180.203 C 21.784 179.293 22.358 178.715 22.378 178.922 Z  M 51.678 147.801 C 56.044 145.188 59.769 143.002 59.977 142.982 C 60.335 142.896 55.518 154.62 54.719 155.586 C 54.248 156.155 44.622 154.128 43.598 153.281 C 43.2 152.951 43.549 152.761 51.678 147.801 Z  M 63.768 143.725 C 64.651 144.742 69.468 149.687 74.398 154.726 C 79.282 159.821 83.36 164.154 83.436 164.409 C 83.429 164.881 57.191 157.345 56.338 156.639 C 55.94 156.31 60.53 144.397 61.912 142.38 C 62.043 142.106 62.943 142.755 63.768 143.725 Z  M 154.719 52.694 C 168.863 52.041 170.072 52.084 168.849 53.562 C 166.157 56.699 150.71 71.313 149.983 71.381 C 149.624 71.468 147.326 68.225 144.96 64.255 C 138.802 53.986 138.802 53.986 139.037 53.701 C 139.131 53.588 146.217 53.129 154.719 52.694 Z  M 157.054 39.107 C 165.622 32.69 172.748 27.667 172.882 27.969 C 173.331 29.395 171.437 50.435 170.823 50.598 C 168.794 51.313 140.308 52.166 140.825 51.541 C 141.154 51.143 148.43 45.477 157.054 39.107 Z  M 54.75 159.252 C 56.038 162.905 58.181 173.396 57.71 173.964 C 57.428 174.305 49.849 179.528 40.987 185.606 L 24.724 196.575 L 36.139 182.551 C 45.775 170.792 49.829 165.43 53.899 159.123 C 54.219 158.621 54.54 158.696 54.75 159.252 Z  M 69.575 161.942 C 76.963 164.128 83.074 166.12 83.093 166.328 C 83.123 166.64 62.629 172.766 60.306 173.143 C 59.843 173.239 58.528 169.851 57.503 165.65 C 56.43 161.505 55.681 158.011 55.842 158.049 C 55.993 157.982 62.188 159.756 69.575 161.942 Z  M 133.61 83.409 C 143.833 77.308 149.379 74.426 149.589 74.983 C 150.857 78.427 157.388 100.979 157.199 101.207 C 156.964 101.491 112.141 96.966 111.686 96.59 C 111.572 96.496 112.901 95.584 114.74 94.52 C 116.532 93.512 125.019 88.465 133.61 83.409 Z  M 109.921 100.111 C 112.529 105.526 122.569 129.162 122.38 129.39 C 122.239 129.56 118.136 128.846 113.219 127.843 L 104.283 125.908 L 106.4 115.015 C 107.618 109.029 108.704 103.318 108.767 102.317 C 108.949 100.36 109.531 99.309 109.921 100.111 Z  M 134.793 100.385 C 146.542 101.583 156.251 102.817 156.213 102.977 C 156.309 103.44 124.788 128.796 124.061 128.864 C 123.806 128.941 121.922 125.082 119.959 120.393 C 110.339 97.87 110.435 98.333 111.89 98.196 C 112.674 98.174 122.986 99.141 134.793 100.385 Z  M 183.527 32.469 C 188.205 35.382 192.003 37.854 192.07 38.005 C 192.128 38.629 173.325 49.89 173.068 49.39 C 172.584 48.702 174.137 27.379 174.656 27.33 C 174.864 27.311 178.859 29.659 183.527 32.469 Z  M 193.193 23.799 C 197.537 23.18 201.08 22.95 201.1 23.158 C 201.092 23.631 194.724 35.029 193.736 36.223 C 193.171 36.905 191.364 36.08 184.953 32.02 C 180.502 29.295 176.705 26.822 176.421 26.587 C 175.966 26.211 177.92 25.817 193.193 23.799 Z  M 107.535 134.826 C 109.494 138.363 111.168 141.664 111.207 142.08 C 111.286 142.911 89.367 163.377 88.855 162.954 C 88.514 162.672 103.167 128.529 103.677 128.376 C 103.885 128.356 105.624 131.232 107.535 134.826 Z  M 113.638 128.956 C 117.969 129.858 121.61 130.668 121.781 130.809 C 122.235 131.185 113.452 140.872 112.678 140.998 C 111.997 141.01 105.038 128.352 105.508 127.784 C 105.696 127.556 109.364 128.101 113.638 128.956 Z  M 164.004 59.995 C 168.035 56.05 171.502 52.788 171.709 52.768 C 171.917 52.748 175.607 59.634 179.869 68.143 L 187.566 83.613 L 184.114 82.576 C 182.175 82.025 174.144 79.69 166.171 77.402 C 158.244 75.057 151.557 73.067 151.33 72.879 C 151.159 72.738 152.288 71.373 153.823 69.866 C 155.368 68.462 159.927 63.996 164.004 59.995 Z  M 168.757 79.255 C 178.461 82.113 186.455 84.609 186.474 84.817 C 186.486 85.497 159.391 101.105 158.88 100.681 C 158.311 100.211 150.457 74.744 150.787 74.346 C 150.928 74.175 158.948 76.406 168.757 79.255 Z  M 183.843 44.704 C 188.539 41.693 192.613 39.317 192.82 39.297 C 193.075 39.221 193.656 43.15 194.106 47.929 C 194.614 52.756 194.618 56.687 194.203 56.726 C 193.787 56.766 190.136 55.852 186.098 54.713 C 173.121 51.062 173.395 51.194 174.386 50.576 C 174.885 50.319 179.138 47.612 183.843 44.704 Z  M 184.427 55.342 C 191.691 57.33 194.681 58.463 194.589 59.153 C 194.257 61.753 188.882 81.445 188.486 81.692 C 188.184 81.825 184.894 75.845 181.202 68.384 C 177.511 60.922 174.162 54.319 173.791 53.725 C 173.468 53.074 173.419 52.554 173.684 52.582 C 173.939 52.505 178.781 53.831 184.427 55.342 Z  M 101.465 153.273 L 112.233 143.503 L 118.573 149.038 C 122.061 152.116 124.933 154.78 125 154.931 C 124.982 155.3 92.441 164.293 90.316 164.546 C 88.975 164.777 89.257 164.436 101.465 153.273 Z  M 108.22 160.97 C 117.773 158.339 125.619 156.498 125.649 156.81 C 125.623 157.651 117.087 178.846 116.718 178.828 C 116.511 178.848 110.719 176.354 103.726 173.345 C 96.78 170.278 90.496 167.569 89.73 167.222 C 88.036 166.491 87.526 166.644 108.22 160.97 Z  M 121.771 133.483 C 123.335 132.287 123.402 132.438 124.694 142.8 L 126.005 153.369 L 119.534 148.109 L 113.166 142.839 L 116.658 138.735 C 118.55 136.565 120.837 134.148 121.771 133.483 Z  M 141.999 116.217 C 149.991 109.802 156.672 104.506 156.823 104.44 C 156.984 104.477 155.31 109.51 153.12 115.744 L 149.152 127.021 L 137.731 128.203 C 131.44 128.745 126.537 128.997 126.866 128.599 C 127.196 128.201 134.008 122.632 141.999 116.217 Z  M 142.29 143.184 C 151.732 149.369 159.564 154.606 159.536 154.871 C 159.556 155.078 152.431 155.122 143.719 155 L 127.758 154.724 L 127.229 151.891 C 126.121 145.705 124.47 132.652 124.753 132.311 C 124.894 132.14 132.801 137.055 142.29 143.184 Z  M 137.518 129.272 C 143.648 128.694 148.91 128.354 149.195 128.59 C 149.479 128.825 152.23 134.646 155.333 141.429 L 160.97 153.949 L 146.007 144.248 C 137.796 138.89 129.87 133.767 128.364 132.809 C 126.915 131.897 125.835 131.003 126.023 130.776 C 126.164 130.605 131.34 129.907 137.518 129.272 Z  M 176.472 111.025 C 186.049 115.311 193.932 118.865 193.942 118.969 C 193.924 119.338 151.928 126.445 151.275 126.192 C 150.726 125.929 158.19 103.367 158.86 103.252 C 158.964 103.242 166.894 106.74 176.472 111.025 Z  M 174.644 93.324 C 181.802 89.189 187.829 85.842 188.113 86.077 C 188.625 86.501 195.571 117.348 195.242 117.746 C 195.006 118.03 177.887 110.472 161.183 102.875 C 159.593 102.134 158.858 102.675 174.644 93.324 Z  M 206.076 63.678 C 211.471 66.419 215.892 68.833 215.912 69.04 C 215.97 69.664 190.191 83.103 190.076 82.433 C 190.017 81.809 195.64 59.736 195.996 59.073 C 196.081 58.855 200.68 60.938 206.076 63.678 Z  M 189.215 121.093 C 191.897 120.63 194.032 120.481 194.005 120.746 C 194.007 121.322 163.644 153.959 162.973 154.075 C 162.709 154.047 159.74 148.142 156.437 140.906 L 150.43 127.792 L 167.447 124.823 C 176.834 123.204 186.637 121.545 189.215 121.093 Z  M 127.646 157.984 C 130.793 163.558 139.092 180.963 138.81 181.304 C 138.386 181.816 119.528 179.716 118.732 179.058 C 118.277 178.681 125.3 159.778 126.645 157.921 C 126.917 157.476 127.446 157.531 127.646 157.984 Z  M 146.311 169.694 C 146.313 170.271 140.774 181.014 140.49 180.779 C 140.319 180.638 132.185 164.422 129.711 159.309 C 128.787 157.3 129.336 157.562 137.473 163.242 C 142.294 166.561 146.234 169.439 146.311 169.694 Z  M 206.674 75.573 C 211.918 72.824 216.625 70.493 217.041 70.454 C 217.56 70.405 219.562 75.51 221.568 81.768 C 223.62 87.969 225.103 93.124 224.895 93.143 C 224.375 93.192 190.962 84.603 190.678 84.368 C 190.45 84.18 193.487 82.478 206.674 75.573 Z  M 201.917 88.497 C 208.367 90.195 216.161 92.237 219.282 93.096 L 225.089 94.645 L 223.477 95.898 C 222.554 96.666 216.731 101.619 210.418 106.932 C 204.105 112.245 198.461 116.866 197.81 117.189 C 196.81 117.703 195.949 114.691 193.128 102.011 C 191.266 93.38 189.842 86.072 190.031 85.844 C 190.219 85.617 195.571 86.789 201.917 88.497 Z  M 223.975 72.84 C 228.69 75.593 252.415 88.712 254.289 89.689 C 255.387 90.214 255.189 90.338 252.97 90.704 C 247.086 91.679 227.239 93.551 226.898 93.269 C 226.216 92.704 219.227 71.401 219.603 70.946 C 219.791 70.719 221.76 71.581 223.975 72.84 Z  M 152.024 171.357 C 154.19 172.096 157.321 173.058 158.938 173.535 C 160.613 174.058 161.607 174.594 161.248 174.68 C 154.906 176.903 144.807 180.424 143.58 180.75 C 142.098 181.152 142.162 180.726 144.105 176.874 C 147.493 170.002 147.587 169.888 152.024 171.357 Z  M 180.943 136.759 C 188.325 128.882 194.802 121.981 195.33 121.459 C 196.102 120.757 197.255 123.531 201.017 135.075 C 203.652 143.003 205.65 149.734 205.415 150.018 C 205.18 150.303 195.857 151.497 184.712 152.81 C 164.998 154.984 164.422 154.986 165.975 153.11 C 166.869 152.03 173.619 144.684 180.943 136.759 Z  M 213.259 105.93 C 219.713 100.446 225.32 95.986 225.632 95.957 C 226.359 95.888 234.631 119.114 234.246 120.042 C 233.984 120.591 203.421 119.438 199.374 118.771 C 198.363 118.605 198.39 118.34 199.804 117.211 C 200.727 116.442 206.748 111.366 213.259 105.93 Z  M 230.759 147.523 L 237.089 152.953 L 223.507 151.771 C 216.059 151.163 209.338 150.487 208.581 150.244 C 207.513 150.03 206.007 146.293 202.427 135.571 L 197.616 121.244 L 211.022 131.668 C 218.421 137.312 227.328 144.492 230.759 147.523 Z  M 217.978 120.948 C 227.136 121.342 234.735 121.883 234.868 122.185 C 235.048 122.43 236.111 129.248 237.177 137.22 L 239.183 151.812 L 232.941 147.317 C 229.559 144.805 220.454 137.749 212.741 131.558 C 201.57 122.6 199.049 120.322 200.088 120.224 C 200.768 120.212 208.867 120.497 217.978 120.948 Z  M 243.339 93.081 L 257.3 91.606 L 261.833 107.428 C 264.282 116.16 266.064 123.382 265.705 123.469 C 265.403 123.602 258.412 118.391 250.15 111.937 C 241.889 105.483 233.58 99.086 231.515 97.76 C 229.053 96.106 228.181 95.192 228.624 94.888 C 229.02 94.641 235.65 93.806 243.339 93.081 Z  M 246.896 110.776 C 256.673 118.293 264.66 124.616 264.68 124.823 C 264.776 125.286 237.103 120.873 236.364 120.261 C 236.023 119.979 234.231 115.431 232.427 110.202 C 227.675 96.498 227.618 96.451 228.384 96.798 C 228.82 96.966 237.119 103.26 246.896 110.776 Z  M 279.666 110.882 C 279.715 111.402 277.08 114.586 273.794 118.093 L 267.834 124.369 L 263.388 108.906 L 258.998 93.49 L 269.316 101.742 C 274.935 106.296 279.617 110.363 279.666 110.882 Z  M 239.516 124.786 C 242.416 127.186 267.095 145.982 274.531 151.465 C 278.917 154.616 279.392 155.2 278.088 155.271 C 277.257 155.349 268.458 154.869 258.496 154.288 L 240.359 153.169 L 238.863 141.202 C 238.028 134.571 237.146 127.998 236.895 126.449 C 236.644 124.9 236.507 123.445 236.742 123.161 C 236.93 122.934 238.209 123.704 239.516 124.786 Z  M 252.848 124.42 L 267.209 126.629 L 273.29 139.422 C 276.574 146.45 279.354 152.583 279.403 153.102 C 279.509 153.669 278.639 153.332 277.331 152.249 C 274.602 149.991 248.568 130.17 242.487 125.712 C 240.128 124.047 238.252 122.494 238.346 122.381 C 238.44 122.267 244.973 123.171 252.848 124.42 Z  M 261.874 155.647 C 272.044 156.208 280.239 156.955 280.107 157.229 C 279.48 158.913 270.144 172.741 269.567 172.743 C 269.256 172.772 263.451 169.022 256.773 164.358 C 250.048 159.75 243.949 155.661 243.183 155.314 C 241.1 154.357 241.781 154.345 261.874 155.647 Z  M 280.993 112.172 C 281.96 112.972 303.377 139.414 304.014 140.612 C 304.651 141.81 301.708 140.619 274.624 128.55 L 268.879 126 L 274.761 118.893 C 277.96 115.027 280.766 111.984 280.993 112.172 Z  M 284.195 142.219 C 291.778 149.262 298.111 155.269 298.291 155.514 C 298.652 156.004 282.862 155.868 282.236 155.351 C 281.611 154.833 269.779 129.427 270.148 129.444 C 270.356 129.425 276.659 135.12 284.195 142.219 Z  M 289.286 136.183 C 298.646 140.384 306.312 143.854 306.331 144.062 C 306.437 144.629 300.567 155.194 300.152 155.233 C 299.991 155.196 294.664 150.404 288.455 144.595 C 282.189 138.739 275.763 132.846 274.057 131.434 C 272.398 129.966 271.289 128.76 271.6 128.731 C 271.969 128.748 279.937 132.085 289.286 136.183 Z  M 282.15 160.548 C 282.589 161.87 284.13 167.647 285.624 173.482 C 287.165 179.26 288.898 185.963 289.539 188.313 L 290.725 192.552 L 288.414 190.831 C 287.069 189.909 282.642 185.767 278.423 181.604 L 270.744 174.099 L 274.118 168.749 C 275.988 165.795 278.376 162.215 279.448 160.803 L 281.415 158.311 L 282.15 160.548 Z  M 291.616 156.982 C 296.076 157.033 299.895 157.511 300.152 158.011 C 301.369 160.36 307.855 189.101 306.792 187.839 C 285.742 160.838 283.16 157.36 283.442 157.019 C 283.536 156.906 287.202 156.874 291.616 156.982 Z  M 285.32 161.927 C 290.559 168.561 307.71 190.897 307.957 191.293 C 308.137 191.538 304.871 192.476 300.659 193.397 C 296.391 194.271 292.755 194.614 292.451 194.171 C 291.994 193.219 283.026 159.837 283.262 159.552 C 283.356 159.439 284.295 160.503 285.32 161.927 Z  M 307.9 146.797 C 310.625 153.459 317.994 175.46 317.216 174.433 C 316.675 173.698 312.862 169.392 308.754 164.748 L 301.308 156.382 L 303.271 152.738 C 304.388 150.693 305.402 148.658 305.524 148.279 C 305.692 147.844 306.143 147.068 306.614 146.499 C 307.215 145.656 307.537 145.731 307.9 146.797 Z  M 310.848 169.163 L 319.063 178.452 L 314.756 184.467 C 312.395 187.782 310.288 190.444 310.033 190.521 C 309.768 190.493 308.402 186.01 306.984 180.43 C 305.624 174.897 303.928 168.034 303.238 165.163 C 302.547 162.293 302.067 159.98 302.275 159.96 C 302.483 159.941 306.333 164.085 310.848 169.163 Z  M 300.597 194.399 C 304.61 193.601 308.086 193.221 308.437 193.607 C 308.911 194.191 309.946 223.499 309.427 223.548 C 309.323 223.558 306.776 219.343 303.716 214.128 C 300.608 208.97 296.94 202.868 295.515 200.539 C 294.147 198.257 293.072 196.314 293.166 196.201 C 293.307 196.03 296.64 195.244 300.597 194.399 Z  M 320.135 182.596 C 321.439 188.082 327.005 218.745 326.693 218.774 C 326.335 218.86 310.923 193.844 310.484 192.523 C 310.341 192.117 312.325 189.256 314.913 186.129 L 319.665 180.387 L 320.135 182.596 Z  M 318.028 207.483 C 327.054 222.042 327.178 222.24 326.754 222.752 C 326.284 223.321 311.787 225.789 311.276 225.365 C 310.878 225.036 309.89 195.671 310.266 195.216 C 310.36 195.103 313.819 200.647 318.028 207.483 Z  M 318.836 225.491 C 322.604 224.873 325.919 224.456 326.24 224.53 C 326.78 224.689 316.034 240.799 315.307 240.867 C 314.683 240.926 311.086 227.795 311.603 227.169 C 311.791 226.942 315.077 226.212 318.836 225.491 Z  M 279.411 269.309 C 279.554 269.715 279.478 275.016 279.225 281.225 C 278.956 288.379 278.488 292.302 277.882 291.992 C 275.923 291.233 267.468 286.056 267.475 285.583 C 267.436 285.168 272.42 277.988 278.166 270.003 C 278.778 269.264 279.325 268.95 279.411 269.309 Z  M 291.184 271.867 C 296.276 274.165 300.44 276.079 300.45 276.182 C 300.536 276.541 280.603 291.945 280.319 291.71 C 279.741 291.135 280.795 267.868 281.419 267.809 C 281.731 267.78 286.15 269.617 291.184 271.867 Z  M 292.339 258.549 C 296.609 255.473 300.512 252.956 300.975 252.86 C 301.957 252.715 308.758 260.355 308.592 261.367 C 308.574 261.735 303.636 262.725 297.685 263.549 C 284.018 265.362 282.356 265.519 283.591 264.721 C 284.138 264.407 288.069 261.625 292.339 258.549 Z  M 300.787 264.2 C 305.141 263.684 308.731 263.398 308.704 263.662 C 308.753 264.182 301.816 275.11 301.401 275.149 C 301.193 275.169 297.417 273.481 292.817 271.399 C 288.322 269.307 284.054 267.403 283.354 267.207 C 282.209 266.739 285.203 266.246 300.787 264.2 Z  M 272.973 290.516 C 275.7 292.198 277.992 293.712 278.011 293.919 C 278.088 294.174 265.637 306.094 264.552 306.826 C 264.203 307.016 264.539 302.791 265.229 297.327 C 265.976 291.91 266.868 287.475 267.236 287.493 C 267.652 287.454 270.246 288.834 272.973 290.516 Z  M 332.187 230.888 C 334.363 234.509 337.167 239.224 338.411 241.308 C 339.713 243.44 340.627 245.345 340.486 245.516 C 340.062 246.027 316.391 242.914 316.342 242.395 C 316.303 241.979 324.509 229.516 327.387 225.575 C 328.366 224.277 328.423 224.324 332.187 230.888 Z  M 318.91 247.394 C 320.702 249.164 325.337 253.287 329.146 256.44 C 333.012 259.639 336.055 262.445 335.867 262.672 C 335.575 262.91 330.009 262.806 323.317 262.441 L 311.258 261.849 L 313.091 253.499 C 314.181 248.941 315.169 244.969 315.405 244.685 C 315.583 244.353 317.165 245.567 318.91 247.394 Z  M 330.546 245.72 C 336.435 246.474 341.229 247.28 341.248 247.488 C 341.211 247.649 340.496 251.176 339.527 255.356 L 337.776 262.912 L 331.065 256.783 C 327.444 253.403 322.639 249.139 320.422 247.304 C 315.759 243.445 314.777 243.591 330.546 245.72 Z  M 312.646 264.339 C 316.755 266.782 326.972 272.842 327.37 273.171 C 327.825 273.547 304.426 275.545 303.451 275.218 C 303.177 275.086 304.416 272.663 306.249 269.87 C 308.072 266.972 309.764 264.349 310.037 263.904 C 310.366 263.506 311.538 263.71 312.646 264.339 Z  M 325.58 263.643 C 331.43 263.982 336.392 264.353 336.563 264.494 C 336.79 264.682 335.408 266.699 333.479 269.03 C 329.479 273.863 330.481 273.926 321.57 268.372 C 318.957 266.784 315.899 264.923 314.848 264.341 C 312.311 263.008 312.415 262.998 325.58 263.643 Z  M 343.446 249.115 C 345.379 250.715 362.82 269.46 362.585 269.744 C 362.246 270.038 340.492 263.913 339.639 263.208 C 339.07 262.737 341.57 250.341 342.491 248.996 C 342.623 248.721 343.105 248.833 343.446 249.115 Z  M 355.774 253.666 L 364.339 257.785 L 364.614 263.472 C 364.7 266.609 364.681 269.179 364.473 269.199 C 364.265 269.219 359.969 264.802 354.905 259.461 C 349.832 254.017 346.009 249.607 346.434 249.672 C 346.85 249.633 351.004 251.442 355.774 253.666 Z  M 352.649 268.323 C 358.626 270.013 363.432 271.499 363.442 271.603 C 363.461 271.81 361.33 273.112 358.85 274.604 L 354.172 277.247 L 352.361 275.269 C 351.365 274.157 348.389 271.503 345.82 269.281 C 343.205 267.117 341.252 265.309 341.46 265.29 C 341.668 265.27 346.728 266.68 352.649 268.323 Z  M 377.371 269.24 L 381.202 273.177 L 373.601 272.059 L 365.99 270.838 L 365.706 265.047 L 365.526 259.245 L 369.476 262.227 C 371.684 263.959 375.228 267.084 377.371 269.24 Z  M 371.733 272.812 C 374.181 273.21 377.642 273.775 379.504 274.071 L 382.7 274.608 L 378.585 278.77 C 376.334 281.027 374.262 282.952 374.054 282.972 C 373.487 283.078 366.659 272.924 366.988 272.526 C 367.176 272.299 369.294 272.518 371.733 272.812 Z  M 379.72 279.135 C 383.447 274.747 383.561 274.841 389.083 284.489 C 391.793 289.318 393.677 293.176 393.261 293.216 C 392.061 293.276 375.166 284.754 375.154 284.074 C 375.068 283.715 375.632 283.033 376.32 282.548 C 377.008 282.064 378.544 280.556 379.72 279.135 Z " fill="rgb(0,0,0)"/></g></g></svg>