<?xml version="1.0" encoding="UTF-8" standalone="no"?><!-- Generator: Gravit.io --><svg xmlns="http://www.w3.org/2000/svg" xmlns:xlink="http://www.w3.org/1999/xlink" style="isolation:isolate" viewBox="0 0 400 400" width="400pt" height="400pt"><defs><clipPath id="_clipPath_liMKTIlHOzOJMP7Uv2hbLZNsPnmczem8"><rect width="400" height="400"/></clipPath></defs><g clip-path="url(#_clipPath_liMKTIlHOzOJMP7Uv2hbLZNsPnmczem8)"><g><path d=" M 130.056 4.21 L 110.794 8.343 L 101.274 17.199 C 92.271 25.686 91.237 26.424 78.839 33.066 C 66.219 39.708 65.776 40.077 64.891 42.881 C 64.448 44.431 64.153 45.833 64.3 45.907 C 64.891 46.424 80.241 50.04 81.496 50.04 C 82.308 50.04 92.787 52.918 104.743 56.387 L 126.514 62.807 L 137.953 70.704 L 149.392 78.601 L 154.189 95.132 L 159.06 111.663 L 165.481 121.257 L 171.901 130.851 L 182.381 137.272 C 188.211 140.814 193.008 143.397 193.156 143.028 C 193.303 142.659 191.975 139.117 190.351 135.132 C 187.473 128.49 187.178 127.014 186.219 116.829 C 185.702 110.778 185.333 105.685 185.481 105.538 C 185.628 105.39 190.573 111.22 196.403 118.453 C 204.3 128.121 211.237 135.574 222.676 146.571 C 237.51 160.814 238.764 162.29 247.178 174.467 C 252.048 181.478 256.403 188.047 256.772 188.932 C 257.141 189.892 258.174 198.231 258.986 207.53 C 260.536 224.061 260.536 224.799 259.355 239.633 L 258.1 254.836 L 251.975 272.031 C 246.661 286.792 245.259 289.965 241.569 295.279 C 239.281 298.6 237.067 301.625 236.772 301.994 C 236.477 302.29 232.639 301.404 228.211 300.002 C 220.167 297.345 200.093 291.662 197.362 291.293 C 196.551 291.22 190.647 291.367 184.3 291.662 L 172.713 292.253 L 162.898 298.452 C 157.51 301.847 153.008 304.946 152.861 305.315 C 152.639 306.053 154.484 306.349 165.259 307.603 C 169.097 308.046 179.06 309.817 187.326 311.515 L 202.381 314.614 L 212.049 324.725 L 221.717 334.909 L 228.211 334.909 L 234.632 334.909 L 234.632 345.537 L 234.632 356.164 L 238.248 366.053 C 241.052 373.876 247.178 396.68 247.178 399.559 C 247.178 401.404 249.023 397.492 253.008 387.308 L 257.436 375.795 L 257.51 362.216 L 257.657 348.562 L 254.705 337.64 L 251.827 326.791 L 256.403 314.024 L 260.978 301.33 L 275.148 284.356 C 288.137 268.858 290.203 265.98 299.133 250.925 L 308.949 234.393 L 313.081 213.655 C 316.993 193.803 317.214 192.179 317.657 177.715 L 318.1 162.585 L 313.672 139.707 C 311.31 127.087 308.063 111.589 306.587 105.095 L 303.856 93.361 L 310.72 86.497 L 317.583 79.634 L 326.661 77.936 C 331.679 77.051 335.738 76.091 335.738 75.796 C 335.738 75.501 330.867 70.778 324.963 65.39 L 314.188 55.575 L 292.196 50.261 L 270.203 44.948 L 253.894 34.615 C 238.469 24.8 236.55 23.841 215.665 14.911 L 193.672 5.538 L 172.27 2.734 C 160.536 1.184 150.573 -0.071 150.13 0.003 C 149.761 0.003 140.684 1.922 130.056 4.21 Z  M 169.909 3.546 C 179.576 4.726 187.842 5.76 188.359 5.833 C 189.687 5.907 184.89 7.531 171.68 11.59 L 160.019 15.206 L 158.322 12.549 C 155.591 8.047 151.828 1.332 152.123 1.332 C 152.27 1.332 160.315 2.291 169.909 3.546 Z  M 146.809 3.177 C 146.292 3.767 142.012 7.9 137.215 12.402 L 128.58 20.446 L 121.053 14.911 C 116.92 11.811 113.673 9.154 113.82 8.933 C 114.263 8.49 144.3 2.217 146.366 2.143 C 147.473 2.07 147.547 2.291 146.809 3.177 Z  M 154.706 8.49 C 158.027 14.099 158.322 15.058 157.289 15.501 C 156.625 15.796 150.278 17.051 143.267 18.158 L 130.425 20.298 L 132.566 18.306 C 138.691 12.328 149.983 2.07 150.425 2.07 C 150.721 2.07 152.639 4.948 154.706 8.49 Z  M 186.588 19.339 L 182.086 31.663 L 179.724 29.892 C 178.469 28.933 173.82 25.538 169.466 22.365 C 165.112 19.191 161.717 16.461 161.938 16.165 C 162.455 15.649 190.573 6.645 190.942 6.867 C 191.016 6.94 189.097 12.549 186.588 19.339 Z  M 215.443 16.165 C 234.484 24.136 234.336 24.062 233.82 24.505 C 233.303 24.948 184.226 31.59 183.857 31.221 C 183.562 30.999 185.333 25.981 191.901 8.121 C 192.492 6.571 192.639 6.498 194.927 7.531 C 196.255 8.047 205.48 11.959 215.443 16.165 Z  M 119.798 15.427 C 123.71 18.306 126.883 20.889 126.883 21.184 C 126.883 21.7 105.407 34.025 105.186 33.656 C 104.743 33.139 111.606 10.188 112.197 10.188 C 112.492 10.188 115.961 12.549 119.798 15.427 Z  M 106.883 22.66 C 105.186 28.785 103.488 33.804 103.193 33.804 C 102.824 33.804 100.389 32.254 97.732 30.261 L 92.861 26.793 L 101.2 18.896 C 105.776 14.616 109.614 11.147 109.761 11.295 C 109.909 11.442 108.58 16.534 106.883 22.66 Z  M 156.034 17.494 C 155.591 17.937 149.983 21.922 143.488 26.424 L 131.68 34.542 L 130.794 29.966 C 129.023 20.667 127.621 21.996 142.75 19.339 C 150.056 18.01 156.182 16.977 156.403 16.903 C 156.551 16.83 156.403 17.125 156.034 17.494 Z  M 156.403 28.711 C 155.222 34.542 154.042 40.077 153.82 40.962 C 153.451 42.586 153.377 42.586 144.005 39.339 C 138.839 37.494 134.189 35.796 133.599 35.649 C 133.008 35.427 137.879 31.59 145.407 26.424 C 152.418 21.553 158.322 17.715 158.396 17.863 C 158.543 18.01 157.658 22.881 156.403 28.711 Z  M 170.794 24.726 C 176.255 28.711 180.462 32.18 180.167 32.475 C 179.355 33.213 155.518 42.069 155.222 41.7 C 154.927 41.405 158.986 20.667 159.724 18.453 C 159.872 18.01 160.241 17.568 160.462 17.568 C 160.757 17.568 165.407 20.815 170.794 24.726 Z  M 129.023 26.571 C 129.466 28.711 129.909 31.442 129.983 32.697 L 130.204 34.911 L 120.241 35.132 C 105.038 35.501 105.038 35.501 116.625 28.638 C 122.086 25.464 126.883 22.807 127.4 22.807 C 127.842 22.734 128.58 24.505 129.023 26.571 Z  M 235.37 26.128 C 235.37 27.162 218.174 50.409 217.436 50.409 C 216.329 50.409 185.185 33.582 185.185 32.992 C 185.185 32.77 195.37 31.147 207.916 29.449 C 220.388 27.752 231.089 26.276 231.68 26.128 C 233.598 25.686 235.37 25.686 235.37 26.128 Z  M 249.318 46.645 C 255.443 57.198 260.314 65.907 260.167 66.054 C 259.871 66.35 220.462 52.254 219.724 51.59 C 219.281 51.221 224.004 44.136 234.115 30.187 C 235.665 28.047 237.215 26.571 237.584 26.866 C 237.879 27.235 243.192 36.165 249.318 46.645 Z  M 256.255 37.42 C 263.488 41.996 269.318 45.981 269.17 46.276 C 269.023 46.571 267.473 50.999 265.628 56.165 C 263.783 61.331 262.159 65.538 261.938 65.538 C 261.716 65.538 259.871 62.66 257.805 59.043 C 255.739 55.501 250.868 47.088 246.956 40.298 C 243.045 33.508 239.798 27.752 239.798 27.531 C 239.798 27.235 240.536 27.457 241.495 28.047 C 242.381 28.638 249.023 32.918 256.255 37.42 Z  M 97.289 31.294 C 99.798 33.213 101.717 34.837 101.643 34.984 C 101.274 35.354 72.123 39.044 71.459 38.822 C 70.573 38.527 89.983 28.047 91.533 27.973 C 92.123 27.9 94.706 29.449 97.289 31.294 Z  M 165.923 54.837 C 158.027 66.054 151.532 74.837 151.385 74.394 C 150.942 73.139 154.263 44.579 154.927 43.841 C 155.665 43.103 179.503 33.951 179.945 34.246 C 180.093 34.394 173.746 43.619 165.923 54.837 Z  M 202.528 44.136 C 209.466 47.826 215.37 51.147 215.665 51.516 C 216.034 51.811 212.196 54.32 207.178 57.051 C 202.233 59.781 196.846 62.733 195.37 63.545 C 193.82 64.357 192.418 64.874 192.196 64.652 C 191.68 64.136 183.709 35.723 183.709 34.468 C 183.709 34.025 185.112 34.468 186.883 35.501 C 188.58 36.461 195.665 40.372 202.528 44.136 Z  M 186.661 50.04 C 188.802 57.936 190.573 64.726 190.647 65.095 C 190.72 65.759 152.639 77.42 152.123 76.977 C 151.975 76.829 156.256 70.483 161.643 62.807 C 167.03 55.206 173.746 45.686 176.551 41.7 C 179.355 37.641 181.864 34.689 182.159 35.058 C 182.455 35.354 184.521 42.143 186.661 50.04 Z  M 110.278 38.084 C 116.846 40.151 116.92 40.224 118.617 43.693 C 119.577 45.612 120.167 47.383 120.02 47.531 C 119.872 47.678 111.311 48.047 100.979 48.269 L 82.234 48.711 L 89.983 44.136 C 94.263 41.627 99.06 38.748 100.684 37.789 C 102.307 36.83 103.636 36.092 103.636 36.092 C 103.636 36.018 106.662 36.977 110.278 38.084 Z  M 99.503 37.051 C 99.355 37.199 94.78 39.929 89.392 42.955 L 79.651 48.638 L 73.894 44.726 C 69.466 41.7 68.507 40.815 69.688 40.52 C 72.344 40.003 95.444 36.977 97.658 36.83 C 98.839 36.83 99.651 36.903 99.503 37.051 Z  M 142.16 39.782 C 146.957 41.479 151.016 42.955 151.163 43.103 C 151.459 43.324 139.355 47.088 138.101 47.088 C 137.363 47.088 132.787 38.379 132.787 37.051 C 132.787 36.534 133.156 36.682 142.16 39.782 Z  M 153.008 46.497 C 152.787 47.826 152.049 54.689 151.311 61.7 C 150.499 68.711 149.761 74.615 149.614 74.837 C 149.245 75.132 138.322 50.114 138.322 49.007 C 138.322 48.49 150.425 44.431 152.861 44.21 C 153.156 44.136 153.23 45.243 153.008 46.497 Z  M 281.126 58.527 C 290.646 69.006 291.384 69.966 289.465 69.966 C 285.332 69.892 264.226 67.309 263.709 66.792 C 263.414 66.571 264.447 62.733 265.997 58.379 C 269.982 47.088 269.982 47.088 270.351 47.088 C 270.499 47.088 275.369 52.254 281.126 58.527 Z  M 293.082 51.663 C 303.487 54.173 311.901 56.46 311.753 56.756 C 310.941 58.01 293.524 69.966 293.008 69.597 C 291.163 68.49 272.344 47.088 273.155 47.088 C 273.672 47.088 282.676 49.08 293.082 51.663 Z  M 135.296 49.449 C 133.304 52.77 126.588 61.11 125.85 61.11 C 125.407 61.11 116.551 58.601 106.219 55.649 L 87.4 50.114 L 105.481 49.966 C 120.684 49.892 127.4 49.597 134.853 48.711 C 135.444 48.638 135.591 48.933 135.296 49.449 Z  M 142.676 62.586 C 145.702 69.671 148.064 75.649 147.916 75.796 C 147.695 76.018 129.909 64.136 128.138 62.586 C 127.769 62.291 129.54 59.117 132.123 55.649 C 134.632 52.18 136.846 49.376 136.92 49.523 C 137.067 49.597 139.65 55.501 142.676 62.586 Z  M 244.004 61.848 C 255.222 65.833 260.978 68.268 260.683 68.785 C 258.838 71.959 245.628 91.368 245.333 91.368 C 244.964 91.368 219.872 53.951 219.872 53.361 C 219.872 53.213 221.421 53.656 223.414 54.394 C 225.333 55.132 234.632 58.453 244.004 61.848 Z  M 216.034 54.246 C 213.525 59.708 201.717 82.512 201.421 82.512 C 201.2 82.512 199.134 78.896 196.772 74.468 L 192.565 66.35 L 202.307 61.036 C 207.694 58.158 212.787 55.353 213.598 54.763 C 215.222 53.656 216.403 53.435 216.034 54.246 Z  M 231.68 73.582 C 238.248 83.398 243.488 91.663 243.34 91.737 C 243.045 92.106 203.414 83.988 202.897 83.471 C 202.676 83.324 204.447 79.412 206.809 74.911 C 218.027 53.139 217.731 53.508 218.765 54.542 C 219.281 55.132 225.111 63.693 231.68 73.582 Z  M 315.074 67.826 C 315.812 73.287 316.329 77.789 316.255 77.936 C 315.812 78.379 295.148 71.073 295.369 70.556 C 295.591 69.744 313.008 57.346 313.377 57.715 C 313.524 57.863 314.262 62.438 315.074 67.826 Z  M 327.915 69.744 C 331.163 72.697 333.598 75.28 333.45 75.427 C 333.081 75.722 320.24 78.084 318.69 78.084 C 317.805 78.084 317.288 76.165 316.329 68.637 C 315.591 63.471 315.074 58.97 315.074 58.601 C 315.074 58.01 316.624 59.265 327.915 69.744 Z  M 187.768 74.542 C 186.292 78.305 184.816 81.7 184.521 81.995 C 183.931 82.586 154.189 78.748 154.189 78.084 C 154.189 77.641 189.835 67.161 190.278 67.457 C 190.425 67.604 189.318 70.778 187.768 74.542 Z  M 196.182 75.501 C 198.248 79.412 199.945 82.733 199.945 82.955 C 199.945 83.545 186.883 82.955 186.292 82.438 C 185.85 81.922 191.163 68.49 191.901 68.49 C 192.196 68.49 194.115 71.663 196.182 75.501 Z  M 281.421 70.335 C 287.03 70.925 291.753 71.516 291.901 71.663 C 292.048 71.811 289.096 79.043 285.259 87.752 L 278.248 103.545 L 276.845 100.224 C 276.034 98.379 272.713 90.704 269.392 83.102 C 266.144 75.501 263.414 69.08 263.414 68.785 C 263.414 68.564 265.185 68.564 267.325 68.785 C 269.392 69.08 275.738 69.744 281.421 70.335 Z  M 269.613 86.276 C 273.598 95.575 276.772 103.324 276.624 103.471 C 276.107 103.914 246.809 92.992 246.809 92.327 C 246.809 91.589 261.421 69.302 261.938 69.302 C 262.159 69.302 265.554 76.903 269.613 86.276 Z  M 305.849 75.87 C 311.163 77.567 315.591 79.191 315.738 79.339 C 315.96 79.486 313.303 82.438 309.908 85.833 C 306.513 89.302 303.487 91.811 303.192 91.516 C 302.897 91.22 301.273 87.826 299.576 83.988 C 294.115 71.663 294.189 71.959 295.296 72.328 C 295.812 72.549 300.609 74.099 305.849 75.87 Z  M 298.026 83.102 C 301.126 89.966 302.159 92.992 301.569 93.361 C 299.355 94.763 280.757 103.176 280.314 103.028 C 280.019 102.881 282.528 96.534 285.923 88.933 C 289.318 81.331 292.27 74.542 292.491 73.877 C 292.786 73.213 293.155 72.844 293.303 73.066 C 293.524 73.213 295.591 77.789 298.026 83.102 Z  M 169.687 81.626 L 184.078 83.693 L 183.857 92.106 C 183.709 96.755 183.488 100.667 183.414 100.814 C 183.119 101.036 155.444 81.7 153.894 80.224 C 152.861 79.339 153.304 79.339 169.687 81.626 Z  M 168.064 91.737 C 176.182 97.42 182.602 102.29 182.381 102.512 C 181.717 103.028 159.946 109.966 159.724 109.671 C 159.577 109.523 157.805 103.471 155.665 96.165 C 153.599 88.859 151.68 82.291 151.459 81.479 C 150.942 79.708 150.499 79.412 168.064 91.737 Z  M 197.879 84.652 C 199.798 85.095 199.724 85.243 192.565 92.844 L 185.259 100.593 L 185.185 92.254 L 185.185 83.988 L 190.573 84.062 C 193.451 84.136 196.772 84.357 197.879 84.652 Z  M 224.078 89.228 C 234.115 91.294 242.454 93.065 242.602 93.139 C 242.676 93.287 237.731 95.206 231.532 97.493 L 220.314 101.626 L 212.122 93.582 C 207.694 89.08 204.373 85.464 204.89 85.464 C 205.407 85.464 214.041 87.161 224.078 89.228 Z  M 203.488 106.645 C 204.742 117.862 205.702 127.235 205.48 127.383 C 205.333 127.53 200.757 122.069 195.296 115.279 L 185.333 102.807 L 187.178 100.593 C 191.237 95.796 200.241 86.202 200.683 86.202 C 200.905 86.202 202.159 95.427 203.488 106.645 Z  M 211.163 94.099 C 215.517 98.453 219.134 102.29 219.134 102.659 C 219.134 103.028 216.403 108.859 213.156 115.575 L 207.104 127.899 L 205.038 110.187 C 203.931 100.445 202.824 91.073 202.602 89.302 C 202.381 87.604 202.381 86.202 202.676 86.202 C 202.897 86.202 206.735 89.744 211.163 94.099 Z  M 250.056 112.475 C 252.86 122.586 255.148 130.925 255.074 130.999 C 254.779 131.22 222.528 103.397 222.307 102.733 C 222.159 102.143 244.299 93.508 244.816 93.951 C 244.89 94.025 247.251 102.364 250.056 112.475 Z  M 262.528 99.781 C 270.277 102.659 276.698 105.169 276.698 105.538 C 276.698 106.202 257.362 131.22 256.846 131.22 C 256.477 131.22 251.384 113.213 246.587 95.501 C 246.144 93.803 245.259 93.582 262.528 99.781 Z  M 305.406 105.095 C 306.735 110.999 307.694 115.944 307.546 116.091 C 307.104 116.534 280.314 105.243 280.757 104.726 C 281.2 104.283 301.79 94.541 302.528 94.394 C 302.749 94.32 304.078 99.191 305.406 105.095 Z  M 250.425 128.711 C 252.491 130.482 253.967 132.032 253.746 132.18 C 253.303 132.549 208.801 129.966 208.285 129.523 C 208.137 129.301 210.794 123.25 214.263 116.091 L 220.536 103.102 L 233.672 114.32 C 240.905 120.519 248.432 127.014 250.425 128.711 Z  M 182.75 104.8 C 180.462 110.778 172.344 128.268 171.901 128.268 C 171.237 128.268 160.831 112.401 160.831 111.368 C 160.831 110.778 179.872 104.135 182.159 103.988 C 182.676 103.914 182.971 104.357 182.75 104.8 Z  M 185.628 126.645 C 185.185 127.014 173.377 129.597 173.377 129.228 C 173.377 129.006 180.683 112.401 183.045 107.235 C 184.005 105.243 184.152 105.833 184.964 115.722 C 185.481 121.552 185.776 126.423 185.628 126.645 Z  M 296.624 113.139 C 302.085 115.427 306.882 117.567 307.177 117.862 C 307.546 118.231 304.89 123.028 301.347 128.563 C 297.879 134.098 294.853 138.526 294.705 138.379 C 294.336 138.01 279.65 106.792 279.65 106.423 C 279.65 106.128 282.897 107.383 296.624 113.139 Z  M 283.635 117.715 C 286.439 123.766 289.834 131.073 291.163 134.025 L 293.672 139.486 L 291.679 139.043 C 290.499 138.822 282.971 137.493 274.853 136.017 C 266.735 134.541 259.576 133.139 258.912 132.844 C 257.879 132.401 259.65 129.818 267.62 119.56 C 273.082 112.623 277.805 106.866 278.1 106.866 C 278.395 106.866 280.904 111.737 283.635 117.715 Z  M 309.76 124.726 C 310.646 130.113 315.664 156.755 316.107 158.822 C 316.402 160.002 316.181 159.929 314.484 158.453 C 309.982 154.541 295.886 140.445 295.886 140.003 C 295.886 139.117 307.842 120.15 308.432 120.15 C 308.727 120.15 309.318 122.217 309.76 124.726 Z  M 187.99 132.106 C 188.802 134.246 190.056 137.272 190.72 138.822 C 191.385 140.445 191.606 141.552 191.311 141.331 C 185.554 137.862 176.403 132.327 175.37 131.589 C 174.115 130.704 174.484 130.482 178.691 129.523 C 186.145 127.752 186.292 127.752 187.99 132.106 Z  M 233.082 132.327 C 243.857 132.991 253.303 133.582 254.041 133.656 C 255.074 133.803 253.672 136.46 247.178 146.718 C 242.75 153.803 238.838 159.633 238.469 159.633 C 238.1 159.633 231.237 153.213 223.119 145.464 C 208.875 131.663 208.506 131.22 210.942 131.22 C 212.344 131.22 222.307 131.737 233.082 132.327 Z  M 277.436 137.567 C 285.775 139.043 292.786 140.519 293.008 140.741 C 293.524 141.257 280.904 162.438 279.945 162.733 C 279.355 162.881 260.757 138.6 258.691 135.058 C 258.174 134.172 258.395 134.025 260.167 134.394 C 261.347 134.615 269.096 136.017 277.436 137.567 Z  M 256.55 177.567 L 256.403 185.906 L 248.654 174.689 C 244.373 168.563 240.609 162.954 240.314 162.216 C 239.798 161.257 241.716 157.715 247.694 148.121 L 255.665 135.279 L 256.181 152.253 C 256.55 161.552 256.698 172.991 256.55 177.567 Z  M 268.875 150.777 C 274.41 158.084 278.838 164.283 278.69 164.578 C 278.617 164.873 274.041 170.039 268.58 175.943 L 258.617 186.792 L 258.1 179.117 C 257.879 174.91 257.51 163.397 257.362 153.508 C 257.141 139.191 257.288 135.796 258.026 136.534 C 258.469 137.05 263.414 143.471 268.875 150.777 Z  M 306.513 152.549 L 316.55 162.364 L 307.251 175.943 C 302.085 183.397 297.657 189.375 297.362 189.154 C 297.067 189.006 296.624 180.298 296.329 169.818 C 296.034 159.338 295.665 148.859 295.369 146.423 C 295.074 143.471 295.222 142.217 295.738 142.364 C 296.181 142.512 301.052 147.087 306.513 152.549 Z  M 295.148 166.571 C 295.591 178.895 295.812 189.08 295.665 189.227 C 295.369 189.596 281.126 165.464 281.126 164.504 C 281.126 164.061 283.487 159.781 286.366 155.058 C 293.893 142.659 293.893 142.586 294.115 143.397 C 294.262 143.84 294.705 154.246 295.148 166.571 Z  M 315.96 191.884 C 315.591 192.253 311.458 192.253 306.661 191.958 L 298.026 191.368 L 307.104 178.084 L 316.181 164.873 L 316.402 178.084 C 316.476 185.316 316.329 191.515 315.96 191.884 Z  M 279.65 169.818 C 279.65 173.582 280.904 204.578 281.421 213.803 C 281.79 219.19 281.642 219.928 280.757 218.969 C 280.166 218.379 274.927 211.294 269.023 203.249 L 258.322 188.563 L 266.587 179.781 C 271.163 174.91 275.665 170.039 276.698 168.858 C 277.731 167.678 278.764 166.644 279.133 166.644 C 279.428 166.644 279.65 168.12 279.65 169.818 Z  M 288.432 179.855 L 295.886 192.327 L 289.908 205.168 C 286.587 212.179 283.635 218.231 283.266 218.6 C 282.897 219.043 282.602 218.157 282.602 216.46 C 282.602 212.917 281.273 180.224 280.831 172.696 C 280.609 169.818 280.609 167.382 280.757 167.382 C 280.904 167.382 284.373 172.991 288.432 179.855 Z  M 270.13 206.718 C 276.181 214.91 280.831 221.7 280.535 221.773 C 278.838 222.364 262.233 223.987 261.864 223.545 C 261.643 223.323 260.831 216.46 260.167 208.342 C 259.429 200.224 258.691 192.917 258.469 192.106 C 257.879 189.892 258.322 190.408 270.13 206.718 Z  M 315.812 193.729 C 315.812 194.984 309.096 228.342 308.58 229.596 C 308.063 230.851 307.104 227.825 299.133 199.264 L 297.436 193.213 L 306.661 193.213 C 311.679 193.213 315.812 193.434 315.812 193.729 Z  M 294.705 215.353 C 294.115 225.685 293.524 234.393 293.451 234.688 C 293.303 235.279 283.34 223.028 283.34 222.216 C 283.34 221.404 295.369 196.091 295.591 196.386 C 295.738 196.534 295.369 205.021 294.705 215.353 Z  M 302.602 215.427 C 305.332 225.316 307.546 233.434 307.399 233.581 C 307.03 234.024 295.148 236.238 294.853 235.943 C 294.779 235.795 295.074 228.637 295.591 220.15 C 296.107 211.589 296.55 202.88 296.55 200.666 C 296.624 198.452 296.845 196.829 297.067 197.05 C 297.288 197.345 299.797 205.611 302.602 215.427 Z  M 279.281 225.463 C 278.543 226.644 275.074 231.515 271.532 236.386 C 268.063 241.257 264.004 246.866 262.602 248.858 L 260.093 252.474 L 259.945 249.596 C 259.798 247.973 260.167 241.921 260.683 236.017 L 261.569 225.316 L 267.842 224.504 C 271.31 224.061 275.591 223.618 277.362 223.545 L 280.535 223.471 L 279.281 225.463 Z  M 288.063 230.482 C 290.868 233.95 292.934 237.198 292.713 237.714 C 291.679 240.15 273.672 263.471 273.967 261.847 C 281.347 228.415 282.38 224.209 282.823 224.209 C 282.971 224.209 285.332 227.013 288.063 230.482 Z  M 280.24 228.784 C 278.469 237.05 272.196 264.504 272.048 264.947 C 271.975 265.242 269.17 263.323 265.775 260.666 C 262.381 257.936 259.798 255.353 259.945 254.836 C 260.388 253.877 280.388 225.685 280.757 225.685 C 280.904 225.685 280.683 227.087 280.24 228.784 Z  M 306.292 236.533 C 302.897 242.88 290.646 262.585 290.941 261.33 C 291.163 260.445 292.048 254.762 293.008 248.637 L 294.705 237.567 L 298.764 236.755 C 301.052 236.312 303.266 235.795 303.635 235.648 C 304.078 235.5 304.963 235.353 305.701 235.353 C 306.735 235.279 306.882 235.574 306.292 236.533 Z  M 290.941 253.065 L 289.023 265.316 L 281.642 265.832 C 277.583 266.127 274.189 266.201 273.967 266.054 C 273.82 265.832 276.403 261.921 279.797 257.271 C 283.192 252.696 287.399 247.013 289.17 244.652 C 290.941 242.29 292.417 240.445 292.565 240.592 C 292.713 240.74 291.975 246.349 290.941 253.065 Z  M 264.964 261.257 C 268.137 263.84 270.646 266.275 270.572 266.792 C 270.425 267.53 248.506 287.013 248.137 286.644 C 248.063 286.57 249.687 281.921 251.753 276.238 C 253.746 270.555 256.108 263.84 256.993 261.257 C 257.879 258.747 258.691 256.681 258.838 256.681 C 259.06 256.681 261.79 258.747 264.964 261.257 Z  M 286.513 268.784 C 283.118 273.286 263.045 297.124 262.823 296.902 C 262.528 296.681 271.975 268.858 272.713 267.677 C 272.934 267.308 276.403 267.013 280.462 267.013 L 287.916 267.013 L 286.513 268.784 Z  M 265.997 283.028 C 260.536 299.264 260.462 299.485 259.798 299.485 C 259.06 299.485 247.916 289.891 247.916 289.227 C 247.916 288.71 269.908 269.227 270.499 269.227 C 270.646 269.227 268.58 275.426 265.997 283.028 Z  M 252.639 295.131 C 255.517 297.64 257.953 299.928 258.1 300.223 C 258.322 300.74 239.06 302.732 238.543 302.216 C 238.1 301.773 245.923 290.629 246.735 290.629 C 247.03 290.629 249.687 292.696 252.639 295.131 Z  M 193.746 292.696 C 193.525 293.065 189.392 296.386 184.447 300.149 C 178.765 304.504 175.444 306.644 175.296 305.98 C 174.632 303.987 173.23 294.172 173.599 293.876 C 173.894 293.581 182.602 292.843 192.418 292.179 C 193.377 292.179 193.968 292.4 193.746 292.696 Z  M 199.281 303.397 C 200.757 308.784 201.938 313.212 201.864 313.286 C 201.643 313.581 177.067 308.046 177.067 307.677 C 177.141 306.865 195.739 292.843 196.182 293.286 C 196.403 293.507 197.805 298.083 199.281 303.397 Z  M 210.277 295.795 C 215.37 297.124 219.798 298.526 220.167 298.821 C 220.905 299.485 219.355 309.596 218.469 310.112 C 218.174 310.334 214.263 307.16 209.835 303.101 C 199.724 293.729 198.543 292.548 199.945 292.991 C 200.536 293.212 205.185 294.467 210.277 295.795 Z  M 211.311 305.906 C 214.484 308.932 216.993 311.515 216.772 311.662 C 216.403 312.031 203.562 313.655 203.266 313.36 C 203.119 313.212 202.012 309.227 200.683 304.356 C 199.429 299.559 198.174 295.057 197.879 294.393 C 197.51 293.212 199.798 295.205 211.311 305.906 Z  M 173.303 301.256 C 173.746 304.43 174.041 307.16 173.894 307.308 C 173.746 307.529 156.625 305.537 155.37 305.168 C 155.001 305.02 158.47 302.585 163.119 299.633 C 167.768 296.755 171.754 294.614 171.975 294.91 C 172.27 295.205 172.861 298.083 173.303 301.256 Z  M 256.993 308.858 C 255.591 312.843 253.746 318.009 252.934 320.297 C 252.122 322.659 251.237 324.577 251.015 324.577 C 250.351 324.577 237.657 304.356 238.026 303.987 C 238.322 303.692 253.156 302.068 258.026 301.773 C 259.65 301.699 259.65 301.773 256.993 308.858 Z  M 235.812 309.153 C 235.591 311.662 235.37 317.862 235.37 322.806 C 235.37 327.825 235.148 331.957 234.853 331.957 C 234.484 331.884 231.015 327.529 227.03 322.142 L 219.798 312.474 L 227.399 308.563 C 231.606 306.496 235.296 304.725 235.665 304.725 C 236.034 304.651 236.108 306.644 235.812 309.153 Z  M 244.521 317.05 C 247.694 322.068 250.13 326.275 249.982 326.422 C 249.834 326.496 246.661 328.194 242.823 330.112 L 235.886 333.581 L 236.329 324.504 C 236.624 319.559 236.846 313.138 236.846 310.26 C 236.846 304.208 236.108 303.544 244.521 317.05 Z  M 218.765 315.131 C 219.503 319.854 221.348 331.588 221.348 332.105 C 221.348 332.695 204.89 315.943 204.521 314.983 C 204.447 314.688 207.104 314.098 210.425 313.729 C 213.82 313.286 216.919 312.917 217.436 312.843 C 217.953 312.843 218.543 313.876 218.765 315.131 Z  M 227.547 324.651 C 231.015 329.374 233.894 333.433 233.894 333.655 C 233.894 333.95 231.458 334.171 228.432 334.171 C 222.159 334.171 222.75 334.983 221.348 324.577 C 220.905 321.552 220.388 318.009 220.167 316.828 C 219.576 314.024 219.65 314.098 227.547 324.651 Z  M 250.13 329.153 C 250.13 331.662 246.809 357.05 246.44 357.05 C 245.997 356.976 236.846 336.312 236.846 335.205 C 236.846 334.467 247.989 328.489 249.613 328.341 C 249.908 328.267 250.13 328.71 250.13 329.153 Z  M 254.484 341.551 L 256.772 350.777 L 252.565 354.614 C 250.203 356.681 248.211 358.304 248.063 358.157 C 247.916 358.009 248.58 351.884 249.465 344.577 C 250.425 337.197 251.384 331.441 251.606 331.81 C 251.901 332.105 253.156 336.459 254.484 341.551 Z  M 241.2 348.489 C 243.709 354.171 245.628 358.821 245.554 358.895 C 245.406 359.042 243.045 358.23 240.314 357.271 L 235.296 355.352 L 235.665 352.695 C 235.886 351.219 236.034 347.234 236.108 343.839 C 236.108 340.444 236.255 337.788 236.403 337.935 C 236.55 338.083 238.691 342.88 241.2 348.489 Z  M 256.255 368.12 L 255.665 373.581 L 251.679 367.013 L 247.768 360.371 L 252.048 356.459 L 256.403 352.622 L 256.624 357.566 C 256.698 360.371 256.55 365.094 256.255 368.12 Z  M 249.908 366.053 C 251.163 368.193 252.934 371.219 253.894 372.843 L 255.517 375.647 L 249.687 375.131 C 246.513 374.835 243.709 374.466 243.561 374.319 C 243.119 373.95 246.587 362.216 247.104 362.216 C 247.399 362.216 248.58 363.987 249.908 366.053 Z  M 250.13 376.238 C 255.886 376.311 255.886 376.459 251.975 386.865 C 249.982 392.031 248.211 395.942 247.916 395.647 C 247.104 394.762 242.897 376.311 243.414 375.869 C 243.635 375.573 244.521 375.573 245.333 375.795 C 246.144 376.016 248.285 376.238 250.13 376.238 Z " fill="rgb(0,0,0)"/></g></g></svg>