<?xml version="1.0" encoding="UTF-8" standalone="no"?><!-- Generator: Gravit.io --><svg xmlns="http://www.w3.org/2000/svg" xmlns:xlink="http://www.w3.org/1999/xlink" style="isolation:isolate" viewBox="0 0 400 400" width="400pt" height="400pt"><defs><clipPath id="_clipPath_ifoSgYScceygQz6najwsoHm4Z7DzYJDH"><rect width="400" height="400"/></clipPath></defs><g clip-path="url(#_clipPath_ifoSgYScceygQz6najwsoHm4Z7DzYJDH)"><g><path d=" M 151 44.152 L 138.4 51.252 L 129.6 63.552 L 120.8 75.952 L 107.5 75.952 L 94.3 75.952 L 89.8 65.152 L 85.3 54.452 L 72.5 47.652 C 65.5 43.852 59.4 41.152 59 41.652 C 58.6 42.052 57.7 52.352 57.1 64.552 L 55.9 86.552 L 62.5 101.052 L 69.1 115.452 L 67.5 121.052 C 65.8 126.552 65.8 126.852 68.3 135.552 C 69.8 140.552 70.5 144.852 70 145.352 C 68.7 146.652 71.6 154.952 74.5 157.952 C 77.6 161.152 77.7 159.752 72.5 183.452 L 69.1 199.452 L 69 227.852 C 69 250.552 69.4 259.552 71.1 273.352 C 72.2 282.752 73.4 291.152 73.7 291.952 C 74.1 292.752 74.2 293.752 74.2 294.152 C 74 294.952 79.6 339.852 80.5 345.652 C 81 348.552 80.8 348.852 77.8 349.452 C 67.7 351.452 67.2 351.852 65 356.652 C 63.9 359.152 63 361.552 63 362.052 C 63 362.552 70.9 362.952 80.6 362.952 L 98.3 362.952 L 97.7 358.152 C 97.4 355.552 98.2 344.452 99.5 333.452 C 100.8 322.452 102.4 308.952 103 303.452 C 103.6 297.952 105.3 288.352 106.7 282.052 L 109.4 270.752 L 111.3 273.052 C 113.1 275.352 113.2 275.352 114.6 273.552 C 116.3 271.152 116.4 271.552 118.5 283.452 C 119.6 290.052 120 299.952 120 321.052 L 120 349.652 L 115.6 349.652 C 113.1 349.652 110.5 350.152 109.8 350.752 C 108.5 351.852 105.4 361.652 106.1 362.452 C 106.3 362.552 112.5 362.552 119.9 362.252 L 133.3 361.652 L 137 358.352 C 140.4 355.252 140.7 354.452 142.9 342.452 C 144.6 333.352 146.6 326.552 150.1 318.252 C 152.7 311.952 155.1 306.552 155.3 306.252 C 155.6 306.052 162.2 314.852 170 325.952 C 177.8 337.052 184 346.352 183.7 346.652 C 183.3 346.952 178.9 347.652 173.8 348.152 C 168.7 348.652 164.4 349.252 164.2 349.452 C 163.6 350.052 162.2 361.452 162.7 362.152 C 162.9 362.652 174.1 362.952 187.5 362.952 L 211.9 362.952 L 214.2 359.852 C 215.6 358.052 220.6 354.652 227 351.252 C 232.8 348.152 240.3 344.252 243.6 342.452 L 249.7 339.152 L 270.9 350.352 L 292 361.552 L 316.9 361.852 C 330.6 361.952 342 361.652 342.3 361.252 C 342.6 360.752 343.2 354.252 343.5 346.952 L 344.1 333.452 L 329.7 317.952 C 316.9 304.152 314.4 301.952 307.4 298.352 C 303 296.052 294.7 291.652 288.8 288.552 L 278 282.852 L 261.3 286.452 C 252 288.452 243.5 290.252 242.3 290.652 C 239.5 291.252 221.4 309.552 221.8 311.252 C 222.1 312.152 221.9 312.152 220.9 311.252 C 220.2 310.552 219.5 308.952 219.3 307.752 C 219 305.752 213.1 282.652 203.4 245.052 C 201.1 236.152 195 223.852 176.3 190.852 C 174.6 187.952 163.4 145.252 157.4 118.752 L 155.9 112.052 L 163.1 95.352 L 170.3 78.752 L 168.6 60.152 C 166.6 38.352 166.4 36.952 164.7 37.052 C 164.1 37.052 157.9 40.252 151 44.152 Z  M 164.4 42.652 C 165.7 49.452 168 77.352 167.3 77.952 C 165.7 79.352 142 91.252 141.6 90.852 C 141.4 90.652 141 81.952 140.9 71.552 L 140.5 52.552 L 151.5 46.352 C 157.6 42.952 162.8 40.052 163.2 40.052 C 163.5 39.952 164.1 41.152 164.4 42.652 Z  M 73.4 50.452 C 84.5 56.252 83.6 53.852 81.5 74.452 C 80.7 82.152 80 89.152 80 89.952 C 79.9 92.552 78.5 89.452 70.7 68.452 C 66.5 57.452 62.8 47.652 62.4 46.552 C 61.5 44.252 61.3 44.152 73.4 50.452 Z  M 69.5 72.052 C 74.2 84.352 77.8 94.452 77.6 94.652 C 77.5 94.752 73 92.852 67.7 90.252 L 58 85.552 L 58.5 81.052 C 58.7 78.552 59.2 70.252 59.6 62.652 C 59.9 55.052 60.4 49.052 60.7 49.252 C 60.9 49.552 64.9 59.852 69.5 72.052 Z  M 138.5 89.852 C 138.3 90.052 134.7 87.152 130.6 83.452 L 123.1 76.752 L 128.2 69.552 C 130.9 65.652 134.2 61.052 135.4 59.252 L 137.5 56.052 L 138.2 72.752 C 138.5 81.952 138.7 89.652 138.5 89.852 Z  M 117.5 78.752 C 116.9 79.252 113.6 81.952 110 84.952 C 106.4 87.952 102.8 90.952 101.9 91.752 C 100.4 92.952 100 92.252 97.7 85.552 L 95.1 77.952 L 106.8 77.952 C 113.2 77.952 118 78.352 117.5 78.752 Z  M 138.6 94.452 C 138.8 94.952 138.6 99.552 138.2 104.652 L 137.5 113.852 L 128.3 108.852 C 117.7 103.052 118.2 104.352 120.7 89.252 L 122.4 79.152 L 130.3 86.252 C 134.7 90.152 138.4 93.852 138.6 94.452 Z  M 96 87.352 C 98.6 94.952 98.5 95.452 95 101.752 L 91.9 106.952 L 87.2 104.352 C 84.6 102.852 82.1 101.252 81.6 100.852 C 81.1 100.452 83.4 95.552 86.6 90.052 C 89.9 84.552 92.8 80.352 93.2 80.752 C 93.6 81.152 94.9 84.152 96 87.352 Z  M 118 91.852 C 116.9 98.152 115.9 103.352 115.8 103.352 C 115.6 103.452 113.1 105.052 110.2 106.852 C 107.3 108.752 104.8 110.052 104.6 109.852 C 103.7 108.852 101.2 95.352 101.8 94.752 C 104.2 92.552 119.5 80.152 119.7 80.252 C 119.8 80.452 119 85.652 118 91.852 Z  M 161.3 93.652 C 158.3 100.752 155.5 107.252 155.1 108.252 C 154.5 109.752 153.4 108.852 148.7 102.752 C 145.5 98.752 142.9 95.052 142.9 94.552 C 142.8 93.852 165.2 81.052 166.7 80.952 C 166.8 80.952 164.3 86.652 161.3 93.652 Z  M 75.3 104.952 C 73.4 108.552 71.4 111.852 71 112.252 C 70.4 112.852 60 91.252 60 89.452 C 60 89.152 64.3 91.052 69.5 93.652 L 78.9 98.352 L 75.3 104.952 Z  M 103.2 117.052 L 103.5 121.952 L 92.5 134.952 C 81.6 147.752 81.5 147.952 78 147.352 C 76.1 147.052 74.1 146.452 73.7 145.952 C 73.2 145.552 76.4 139.152 80.8 131.752 C 85.2 124.352 90 115.852 91.5 112.852 C 93 109.952 95.4 105.452 96.8 103.052 L 99.4 98.552 L 101.1 105.352 C 102.1 109.152 103 114.352 103.2 117.052 Z  M 85.6 106.052 L 91 109.152 L 88.4 114.052 C 86.5 117.452 85.2 118.852 84.1 118.552 C 83.2 118.252 80.4 117.552 77.8 116.852 C 75.1 116.252 73 115.352 73 114.852 C 73 113.652 79 102.952 79.7 102.952 C 80 102.952 82.7 104.352 85.6 106.052 Z  M 126.8 110.652 C 131.6 113.252 134.8 115.552 134 115.652 C 133.2 115.852 126.7 117.052 119.5 118.352 C 112.4 119.652 106.4 120.652 106.3 120.552 C 106.3 120.552 105.9 118.852 105.5 116.752 C 104.8 113.252 104.9 113.052 110.2 109.652 C 113.1 107.652 116.1 106.052 116.8 106.052 C 117.5 105.952 122 108.052 126.8 110.652 Z  M 154.6 116.652 C 155 118.252 155.9 121.952 156.6 124.952 C 158.9 134.052 159.3 133.552 147.9 134.452 C 142.4 134.852 137.6 134.852 137.3 134.652 C 136.7 133.952 139 119.652 140 118.052 C 140.7 116.852 148.8 114.252 152.2 114.052 C 153.3 113.952 154.2 114.952 154.6 116.652 Z  M 136.6 121.952 C 136.3 124.152 135.5 128.152 134.9 130.852 L 133.9 135.652 L 126.3 136.352 C 113 137.452 113.8 137.752 110.2 130.352 C 108.4 126.652 107.1 123.552 107.4 123.252 C 108 122.652 131.8 118.152 134.9 118.052 C 137.1 117.952 137.2 118.252 136.6 121.952 Z  M 108.5 131.852 C 110.1 135.152 111.2 138.052 110.9 138.252 C 110.1 138.852 88.1 145.952 87 145.952 C 86.4 145.952 90 141.252 95 135.452 C 100 129.652 104.5 125.152 104.9 125.352 C 105.2 125.652 106.9 128.552 108.5 131.852 Z  M 154.5 137.752 C 146.2 145.352 137.8 152.152 137.3 151.552 C 136.9 151.252 136.6 147.952 136.6 144.152 L 136.5 137.452 L 145 136.852 C 149.7 136.552 154.2 136.252 155 136.152 C 156 136.052 155.9 136.452 154.5 137.752 Z  M 169.3 176.652 L 171.7 186.852 L 163.8 196.452 C 159.4 201.852 155.4 205.752 155 205.252 C 154 204.352 138 158.152 138 156.352 C 138 155.252 146.9 146.952 155.4 140.252 L 159.5 136.952 L 163.2 151.752 C 165.3 159.852 168 171.052 169.3 176.652 Z  M 134 143.652 C 134 146.852 134.3 150.452 134.6 151.652 C 135.2 153.952 135 154.052 120.8 155.452 L 115.2 155.952 L 114.8 147.952 L 114.5 139.952 L 117.5 139.452 C 121.2 138.852 126.5 138.352 130.8 138.152 L 134 137.952 L 134 143.652 Z  M 112.6 155.652 C 112.3 155.952 106.7 157.652 100.3 159.452 L 88.5 162.752 L 85.7 156.652 C 84.1 153.252 83.2 150.352 83.7 150.152 C 84.1 149.952 90.6 147.652 98 145.152 L 111.5 140.452 L 112.3 147.752 C 112.8 151.852 112.9 155.352 112.6 155.652 Z  M 120.9 186.852 C 113.6 203.352 107.6 216.852 107.4 216.652 C 107.3 216.552 102.4 206.752 96.5 194.952 C 90.7 183.152 84.7 171.252 83.3 168.652 C 81.9 165.952 81 163.652 81.2 163.352 C 81.4 163.152 83 163.552 84.7 164.152 C 87.3 165.152 89.5 164.752 99.6 161.952 C 109 159.352 132.3 155.652 133.8 156.552 C 133.9 156.652 128.1 170.252 120.9 186.852 Z  M 144.9 184.352 C 149.4 197.452 152.9 208.352 152.8 208.452 C 151.9 209.052 110.7 218.052 110.4 217.652 C 110.1 217.352 115.3 205.052 121.8 190.252 C 128.4 175.452 134.1 162.352 134.5 161.052 C 134.9 159.752 135.5 159.152 136 159.552 C 136.4 160.052 140.4 171.252 144.9 184.352 Z  M 81.7 170.152 C 89.2 184.852 104.9 216.952 104.5 216.952 C 104.1 216.952 71.9 201.052 71.3 200.552 C 71.2 200.452 72.5 194.152 74.1 186.552 C 75.7 178.852 77.2 171.252 77.5 169.552 C 78 165.652 77.9 165.952 78.8 165.952 C 79.2 165.952 80.5 167.852 81.7 170.152 Z  M 185.8 212.352 C 192.5 224.652 198 235.152 198 235.652 C 198 236.452 190.2 245.752 171.8 266.852 C 170.2 268.652 168.7 269.952 168.4 269.752 C 168.2 269.452 165.3 255.952 161.9 239.652 C 156.8 214.552 156.1 209.652 157.2 208.152 C 160.6 203.552 172.3 189.952 172.8 189.952 C 173.2 189.952 179 200.052 185.8 212.352 Z  M 106.5 222.452 C 107 224.552 109.8 250.952 110.6 261.452 C 111.1 266.952 111 267.252 109.6 265.452 C 108.8 264.352 107.6 262.952 107 262.252 C 106.5 261.552 106 260.752 106 260.352 C 106 259.752 78 211.952 74.2 206.152 C 73 204.252 76 205.452 89.4 212.152 C 101.3 218.052 106.2 221.052 106.5 222.452 Z  M 104.9 261.952 C 105.3 262.252 106.1 263.752 106.8 265.252 C 107.8 267.652 107.6 269.652 105.3 278.652 L 102.7 289.252 L 98.1 284.352 C 95.5 281.652 88.4 273.852 82.3 266.952 L 71.1 254.452 L 71 229.952 L 71 205.452 L 87.7 233.452 C 96.8 248.852 104.6 261.652 104.9 261.952 Z  M 151.4 212.152 C 151 212.852 149.5 215.252 148 217.452 C 146.5 219.652 145.1 221.852 144.9 222.452 C 144.7 222.952 141 228.852 136.7 235.452 C 132.4 242.052 125.5 252.552 121.5 258.852 C 112.9 272.052 114 273.252 111.4 247.452 C 110.6 238.652 109.6 229.152 109.3 226.252 C 108.7 221.152 108.8 221.052 111.6 220.352 C 115.4 219.352 150.3 211.252 151.3 211.052 C 151.8 211.052 151.8 211.552 151.4 212.152 Z  M 154.7 214.652 C 154.8 215.652 156.5 224.352 158.5 233.952 C 160.5 243.552 162.4 252.752 162.7 254.452 C 162.9 256.052 163.8 260.552 164.6 264.252 C 165.4 268.052 166 271.452 166 271.952 C 166 273.152 122.7 290.152 122 289.252 C 121.6 288.752 120.6 283.952 119.7 278.452 L 118.1 268.552 L 128.8 251.752 C 134.7 242.552 140 234.252 140.5 233.252 C 141.1 232.252 143.4 228.652 145.8 225.252 C 148.1 221.852 150 218.752 150 218.452 C 150 217.552 153.4 213.052 154 212.952 C 154.3 212.952 154.6 213.752 154.7 214.652 Z  M 208.9 275.452 C 212.8 290.852 216.5 304.452 217 305.652 C 217.5 306.852 217.6 308.152 217.1 308.352 C 216.5 308.752 174.6 277.752 170.6 273.952 C 169.6 272.952 170.4 271.752 186.6 253.252 L 199.3 238.652 L 200.6 243.052 C 201.3 245.452 205 260.052 208.9 275.452 Z  M 85.7 274.252 C 92.7 282.052 99.3 289.452 100.3 290.552 C 102 292.552 102 293.452 100.7 304.352 C 99.9 310.852 99 316.252 98.7 316.552 C 97.9 317.352 78.9 310.852 78.4 309.652 C 77.9 308.152 72 264.152 72 261.752 C 72 260.752 72.2 259.952 72.4 259.952 C 72.7 259.952 78.6 266.352 85.7 274.252 Z  M 211.2 307.952 C 216.7 312.152 218.7 314.352 218.4 315.652 C 218.2 316.652 217.3 325.552 216.4 335.452 C 215.6 345.352 214.7 353.652 214.5 353.752 C 214.3 353.952 208.2 352.452 200.8 350.452 L 187.5 346.752 L 172.5 325.652 C 164.3 314.152 157.4 304.152 157.2 303.452 C 157.1 302.852 159.5 296.252 162.5 288.752 L 168.2 275.152 L 185.8 288.552 C 195.5 295.952 207 304.652 211.2 307.952 Z  M 165 276.352 C 165 276.552 162.5 282.652 159.4 290.052 C 156.4 297.452 151.6 308.952 148.8 315.752 C 144.8 325.252 143.3 327.852 142.1 327.452 C 141.2 327.152 136.5 325.452 131.5 323.652 L 122.5 320.452 L 122.5 306.452 L 122.5 292.552 L 143 284.352 C 162.8 276.352 165 275.552 165 276.352 Z  M 274.8 286.852 C 274 289.052 250.6 333.852 250.3 333.652 C 249.8 333.052 241.9 293.752 242.3 293.352 C 242.8 292.752 271 286.152 273.3 286.052 C 274.3 285.952 275 286.352 274.8 286.852 Z  M 295.5 294.552 C 304.7 299.352 311.8 303.552 311.3 303.952 C 310.9 304.352 304.4 307.852 297 311.752 C 289.6 315.652 276.8 322.452 268.5 326.852 C 260.3 331.252 253.4 334.652 253.2 334.452 C 253 334.252 254.6 330.852 256.8 326.752 C 259 322.752 264.7 311.952 269.4 302.652 C 274.2 293.452 278.3 285.952 278.5 285.952 C 278.7 285.952 286.4 289.852 295.5 294.552 Z  M 244.5 317.652 C 246.6 327.652 248 336.452 247.7 337.152 C 247.1 338.552 218.3 353.652 217.7 352.952 C 217.5 352.652 218.1 343.752 219.1 333.052 L 220.8 313.652 L 230.2 304.252 C 238.7 295.752 239.5 295.152 240.1 297.152 C 240.5 298.452 242.5 307.652 244.5 317.652 Z  M 333.9 325.852 C 337.9 330.252 340.7 333.952 340.3 334.252 C 339.9 334.452 328.8 340.152 315.8 346.852 L 292 359.052 L 272.5 348.752 C 261.8 343.052 253 338.252 253 337.952 C 253 337.652 256.7 335.552 261.3 333.252 C 265.8 330.852 279.6 323.552 292 316.952 L 314.5 304.952 L 320.6 311.452 C 324 315.052 330 321.552 333.9 325.852 Z  M 98.2 319.852 C 98.8 320.352 97.6 333.152 95.5 348.652 L 94.9 352.752 L 89 350.752 C 85.7 349.652 83 348.452 83 347.952 C 83 347.552 82.1 340.552 81 332.452 C 79.9 324.352 79 316.652 79 315.352 L 79 313.052 L 88.3 316.152 C 93.3 317.852 97.8 319.452 98.2 319.852 Z  M 132.6 326.452 C 138 328.452 142.5 330.152 142.7 330.352 C 143 330.552 139 352.152 138.6 352.652 C 138.5 352.752 134.8 352.252 130.5 351.452 C 126.1 350.652 122.4 350.052 122.3 349.952 C 121.8 349.952 122 322.952 122.5 322.952 C 122.7 322.952 127.3 324.552 132.6 326.452 Z  M 341.3 349.752 L 340.5 359.152 L 319.5 358.952 C 308 358.952 298.5 358.752 298.4 358.652 C 298.3 358.552 307.9 353.452 319.8 347.252 C 344.6 334.552 342.5 334.252 341.3 349.752 Z  M 199.5 352.552 C 206.6 354.452 212.6 356.252 212.8 356.452 C 213 356.652 212.7 357.652 212.1 358.752 C 211.2 360.552 209.7 360.652 187.9 360.852 L 164.7 361.052 L 165.2 356.452 C 165.5 353.952 166 351.652 166.2 351.452 C 166.5 351.052 179.4 349.452 184.5 349.052 C 185.6 349.052 192.4 350.552 199.5 352.552 Z  M 88.8 353.052 C 92.2 354.152 95.1 355.752 95.2 356.552 C 95.2 357.352 95.3 358.452 95.4 359.152 C 95.5 360.052 91.5 360.452 80.8 360.652 C 72.6 360.852 66 360.852 66 360.652 C 66 360.452 66.5 358.852 67.1 357.052 C 67.9 354.952 69 353.752 70.8 353.352 C 72.3 353.052 74.9 352.352 76.5 351.952 C 81.1 350.652 82.1 350.752 88.8 353.052 Z  M 126.2 353.052 C 136.8 354.552 137.7 354.952 134.9 357.552 C 133.1 359.152 131 359.552 120.9 359.752 C 108 360.152 107.9 360.052 109.9 354.552 C 110.8 352.252 114 350.852 116.7 351.552 C 117.3 351.652 121.6 352.352 126.2 353.052 Z " fill="rgb(0,0,0)"/></g></g></svg>