<?xml version="1.0" encoding="UTF-8" standalone="no"?><!-- Generator: Gravit.io --><svg xmlns="http://www.w3.org/2000/svg" xmlns:xlink="http://www.w3.org/1999/xlink" style="isolation:isolate" viewBox="0 0 600 776" width="600pt" height="776pt"><defs><clipPath id="_clipPath_Ya4Cd3gZ180a7BLHXebltMaqvXtQgnwn"><rect width="600" height="776"/></clipPath></defs><g clip-path="url(#_clipPath_Ya4Cd3gZ180a7BLHXebltMaqvXtQgnwn)"><path d=" M 110.8 54.5 C 109.2 55.8 108 57.2 108 57.5 C 108 57.9 109.3 60 110.9 62.3 C 113.2 65.6 120.6 70.9 145.7 87.3 L 177.6 108.1 L 194.9 127.1 L 212.2 146.1 L 214.5 154.6 L 216.9 163 L 210.8 176.6 C 206.6 186.2 199.8 206.3 187.4 245.8 L 170 301.5 L 168.8 326 L 167.7 350.5 L 174.8 398 L 181.8 445.5 L 182.5 491.5 L 183.2 537.5 L 194.8 556.2 L 206.5 574.9 L 217.5 578.6 L 228.5 582.3 L 245.8 613.8 L 263.1 645.4 L 262.3 662.4 L 261.5 679.5 L 251.5 681.6 C 246 682.7 240.3 683.9 238.9 684.3 C 237.2 684.7 234.8 687.2 231.7 692 C 229.1 695.8 227 699.4 227 699.9 C 227 700.4 228.9 700.6 231.3 700.3 C 233.6 700.1 239 699.6 243.3 699.1 C 247.5 698.7 251 698.8 251 699.2 C 251 699.7 250.3 701.5 249.4 703.1 C 248.6 704.8 248 706.3 248.2 706.5 C 248.4 706.6 253 707.1 258.5 707.4 C 270 708.1 279.9 708.8 290.2 709.5 C 294.2 709.7 302.2 710.2 308 710.5 C 313.8 710.8 320.3 711.3 322.5 711.5 C 325.6 711.8 327.8 711.2 332.5 708.7 C 338.5 705.5 338.5 705.5 340 699 L 341.6 692.5 L 352 688.8 C 357.8 686.8 363 685.3 363.6 685.5 C 364.2 685.6 371.5 690.8 379.8 696.9 C 394.6 707.7 395.4 708.2 415.9 716.5 L 436.9 725 L 464.9 725 C 480.3 725 493.1 724.7 493.3 724.3 C 493.6 723.8 473 705.3 447.5 683 L 401.2 642.6 L 400.6 635.9 C 400 629.7 401.1 624 416.3 555.9 L 432.7 482.5 L 430.3 429.5 L 427.9 376.5 L 413.4 332.9 L 398.9 289.2 L 370.9 240.9 L 342.8 192.5 L 336.3 157 L 329.8 121.5 L 316.7 103.7 L 303.5 85.8 L 281 76.5 L 258.5 67.2 L 247 66.6 C 232.2 65.9 216.2 65.2 198 64.5 C 171 63.5 166.5 62.9 140.4 57.5 C 126 54.5 114.1 52 113.9 52 C 113.7 52 112.3 53.2 110.8 54.5 Z  M 139.2 59.1 C 155 62.4 164.7 64.9 167 66.3 C 170.9 68.7 205.3 91.1 205.9 91.6 C 206.1 91.8 206.1 92.3 205.8 92.6 C 205.5 92.9 199.7 90.3 192.9 86.9 C 184.3 82.6 170.5 77.3 147 69.4 C 128.6 63.1 112.9 57.7 112.1 57.5 C 111 57.1 111.1 56.6 112.6 55.5 C 113.6 54.7 114.6 54 114.7 54 C 114.8 54 125.8 56.3 139.2 59.1 Z  M 146 70.9 C 171.4 79.4 181.7 83.3 193.2 89.1 C 203.7 94.3 208.2 97.1 209 98.8 C 209.6 100.2 209.9 101.4 209.8 101.5 C 209.6 101.7 204.4 98.8 198.1 95.2 L 186.7 88.7 L 163.5 85 L 140.2 81.3 L 130.3 75 C 124.9 71.6 119 67.7 117.3 66.3 C 114 63.9 111.2 60 112.7 60 C 113.2 60 128.2 64.9 146 70.9 Z  M 200 66.4 C 261.5 68.7 255.2 67.9 276.8 76.7 C 287.1 80.9 295.9 84.7 296.5 85.2 C 297 85.6 289.1 86 279 86 C 268.8 86 256.6 86.2 251.9 86.3 C 243.7 86.5 242.3 86.2 210.7 76.5 C 192.7 71 178 66.2 178 65.9 C 178 65.5 179.2 65.4 180.8 65.5 C 182.3 65.7 190.9 66.1 200 66.4 Z  M 208.2 77.5 C 234.7 85.7 240.2 88 233.2 88 C 231.1 88 230 88.9 228.2 92.1 L 225.8 96.2 L 230.6 103.1 L 235.3 110 L 240.2 110 C 244.7 110 245.7 109.5 251.1 104.8 L 257.1 99.6 L 251.3 93.8 L 245.6 88 L 268.8 87.9 C 281.6 87.9 294.4 87.8 297.3 87.8 L 302.5 87.7 L 315.1 104.6 C 322 113.9 327.4 121.6 326.9 121.8 C 326.5 122 310.3 125.2 291 129 L 255.8 135.8 L 235.1 120.5 L 214.5 105.1 L 210.5 97.4 L 206.5 89.7 L 189.1 78.4 C 179.5 72.1 171.5 66.8 171.2 66.5 C 170.9 66.2 172.6 66.6 175.1 67.4 C 177.5 68.1 192.4 72.7 208.2 77.5 Z  M 168.5 87.6 L 185.5 90.2 L 198.7 97.7 C 206.3 102 220.7 111.8 232.9 121 L 254 136.8 L 237.3 149 C 228.1 155.7 220.1 161.4 219.5 161.6 C 218.9 161.9 217.6 159 216.6 154.8 C 215.6 150.8 214.1 146.4 213.2 145.1 C 212.4 143.7 204.3 134.5 195.1 124.6 C 178.9 107 178.3 106.4 162.5 96.2 C 143.8 84 143.3 83.5 148 84.4 C 149.9 84.7 159.2 86.1 168.5 87.6 Z  M 249.6 103.7 C 245.7 107.5 244.5 108 240.6 108 C 236.2 108 236 107.8 232 102 L 227.9 96 L 229.7 93 C 231.4 90.1 232.3 89.7 240 88.7 C 241.9 88.5 243.9 89.7 248.3 93.9 L 254.1 99.5 L 249.6 103.7 Z  M 325 124.6 C 325 125.4 294.9 217.4 294.5 217.8 C 294.3 218 291.1 215.6 287.3 212.4 C 280.6 206.7 246.3 180.9 230.2 169.5 C 225.7 166.3 222.1 163.3 222.2 162.9 C 222.5 162.2 251.1 140.9 255 138.5 C 255.8 138 271.6 134.6 290 130.9 C 328.8 123.2 325 123.8 325 124.6 Z  M 334.5 157.3 C 337.8 175.5 340.5 191.1 340.5 191.8 C 340.5 193 298 216.4 297.3 215.6 C 296.9 215.2 327.4 124 328 124 C 328.3 124 331.2 139 334.5 157.3 Z  M 229.4 171.2 C 255.9 190 288.5 214.8 287.7 215.6 C 287.3 216 211.8 184.2 210.9 183.2 C 210.2 182.5 217.9 164 218.8 164 C 219.1 164 223.8 167.2 229.4 171.2 Z  M 252.1 203 L 292.6 220.2 L 309.3 243.5 L 326 266.8 L 325 272.1 C 323.7 279.5 322.2 297.5 321.4 315.5 C 320.8 329 319.7 335.8 310.3 383 L 299.9 435.5 L 296.1 487.3 L 292.3 539.1 L 300.6 565.8 C 305.2 580.5 309.4 593.5 309.9 594.7 C 310.8 596.7 338.1 613.7 342 614.7 C 343.1 615 344.4 613.7 346 610.7 L 348.4 606.2 L 346.2 582.9 C 344.9 570 344 558.3 344 556.7 C 344.1 547.8 381.6 422 382.7 427 C 382.9 427.8 381.7 453.9 380.1 485 L 377.1 541.5 L 369.1 581.5 C 364.7 603.5 360.8 622.5 360.5 623.7 C 360.2 624.9 351.3 633.7 340.6 643.3 C 325.9 656.6 318.8 662.3 311 666.9 C 304.5 670.8 300.3 672.7 299.6 672.2 C 299 671.7 290.9 665.2 281.5 657.8 L 264.5 644.2 L 246.9 611.9 L 229.2 579.5 L 206.2 510 L 183.1 440.5 L 176.2 393.5 C 171.9 364.2 169.4 344.4 169.6 341 C 169.8 338 170.5 327.7 171.1 318.1 L 172.2 300.7 L 189.2 246.2 C 207.6 187.1 208.5 184.6 210.3 185.3 C 211 185.5 229.8 193.5 252.1 203 Z  M 371.9 246.3 L 396.1 288 L 388.8 310.5 C 384.8 322.8 381.3 332.9 381 332.9 C 380.5 333 335.8 277 331.5 271 L 329.1 267.5 L 335.1 232.5 C 338.4 213.2 341.3 196.8 341.6 196 C 341.9 195.1 343.1 196.3 344.9 199.5 C 346.4 202.3 358.5 223.3 371.9 246.3 Z  M 338.5 202.7 C 337.8 206.5 335.1 222 332.4 237.3 C 328.6 259.7 327.4 264.8 326.4 263.8 C 324.7 262 295.9 221.8 295.3 220.4 C 295.1 219.7 298.8 217.2 303.7 214.7 C 308.5 212.2 318.4 207 325.5 203.1 C 332.7 199.3 338.8 196.1 339.1 196.1 C 339.5 196 339.2 199 338.5 202.7 Z  M 341.2 286.3 C 348.2 295.2 359.6 309.6 366.6 318.4 L 379.2 334.3 L 367.8 333.6 C 361.6 333.2 355.4 332.7 354 332.5 C 352.6 332.3 347.5 331.8 342.5 331.5 C 337.6 331.2 331.1 330.7 328.1 330.3 L 322.7 329.7 L 323.4 313.1 C 324.3 289.9 326.4 269.9 327.8 270 C 328.2 270.1 334.2 277.4 341.2 286.3 Z  M 423.8 371.2 C 423.5 372 385.2 338.1 383.6 335.7 C 383 334.7 391.3 306.7 396.7 292 C 397.2 290.5 424.3 369.7 423.8 371.2 Z  M 345.5 333.5 C 348.3 333.7 353.4 334.2 357 334.5 C 375 335.9 378.5 336.3 378.9 336.6 C 379.1 336.8 362 359 341 386 C 320 413 302.7 435 302.5 434.8 C 302.3 434.6 303.2 429.3 304.5 423 C 305.7 416.7 310.3 393.6 314.5 371.6 L 322.3 331.8 L 331.4 332.4 C 336.4 332.8 342.8 333.3 345.5 333.5 Z  M 425.7 377.4 C 425.9 378.5 428.4 429 429.7 458.5 C 430 466.2 430 472.3 429.8 472 C 429.5 471.7 426.2 462.5 422.5 451.5 C 418.8 440.5 408.6 410.8 399.9 385.6 C 391.1 360.3 384 339.5 384 339.3 C 384 338.5 425.5 376.4 425.7 377.4 Z  M 364 410 L 349 477.5 L 345.8 512.5 C 344.1 531.7 342.4 547.9 342 548.3 C 341.3 549.1 303 441.8 303 439.2 C 303 437.6 378.4 340.6 378.7 341.7 C 378.9 342.2 372.3 372.9 364 410 Z  M 394 374 C 399.6 390.2 410.2 421.2 417.6 442.9 L 431 482.3 L 426.2 487.4 C 396.6 519.2 380.5 536 379.9 536 C 379.4 536 379.3 533.4 379.5 530.2 C 379.8 527.1 381.2 500.9 382.7 472 C 385.2 422.3 385.2 417.6 384.1 385 C 382.9 348.1 382.8 343.4 383.4 344.1 C 383.6 344.3 388.4 357.8 394 374 Z  M 382.3 382.6 L 383.6 415.5 L 371.3 453 C 364.6 473.6 356 501.9 352.4 515.7 C 348.7 529.6 345.5 540.8 345.3 540.6 C 345.1 540.4 346.3 526.1 347.9 508.9 L 350.9 477.5 L 365 414 C 372.8 379.1 379.4 349.4 379.8 348 C 380.4 345.7 380.5 345.7 380.8 347.6 C 381 348.7 381.7 364.5 382.3 382.6 Z  M 303 445.1 C 303 445.6 311.6 470.2 322 499.8 C 332.5 529.5 341 554.2 341 554.9 C 341 555.6 334.6 564.3 326.8 574.3 C 319 584.3 312.5 592.7 312.3 592.9 C 311.5 594 310.3 590.5 302.5 565.5 L 294.2 538.9 L 297.6 492.7 C 299.4 467.3 301 445.7 301 444.7 C 301 443.7 301.5 443.2 302 443.5 C 302.6 443.8 303 444.5 303 445.1 Z  M 187.4 473 C 200.5 542.3 205.1 567.3 204.8 567.6 C 204.6 567.7 200.1 561 194.9 552.6 L 185.3 537.3 L 184.5 497.9 C 184.1 476.2 184 458.7 184.3 459 C 184.6 459.3 185.9 465.6 187.4 473 Z  M 227 578.7 C 227 579.9 210.5 574.9 208.8 573.2 C 208 572.4 187 463 187.1 460.5 C 187.1 459.3 226.9 577.1 227 578.7 Z  M 414.2 557.3 L 398.6 627.2 L 393 626.6 C 390 626.3 383.7 625.8 379 625.5 C 374.3 625.2 368.7 624.7 366.4 624.4 L 362.3 623.9 L 370.6 582.3 L 379 540.8 L 383.2 536.1 C 394.3 524 429.3 487 429.5 487.2 C 429.7 487.4 422.8 518.9 414.2 557.3 Z  M 344.4 583 C 346.6 605.8 346.6 606.2 344.7 609.3 C 343.6 611.1 342.6 612.7 342.5 612.8 C 342 613.3 313 596.1 313 595.4 C 313 594.3 341.2 558.9 341.7 559.4 C 342 559.6 343.2 570.3 344.4 583 Z  M 381.5 627.5 C 394.2 628.3 396.4 628.5 398 629.5 C 398.9 630.1 399.5 641 398.6 641 C 397.5 641 369.4 627.7 368.5 626.8 C 367.8 626.1 367.8 625.9 368.5 626.2 C 369.1 626.5 374.9 627.1 381.5 627.5 Z  M 382.8 635.9 L 399.8 643.8 L 444.3 682.6 C 468.8 704 488.9 721.8 488.9 722.2 C 489 722.7 477.2 723 462.8 723 L 436.5 723 L 403.5 679.3 C 364.3 627.5 364.7 628 365.3 628 C 365.5 628 373.4 631.5 382.8 635.9 Z  M 397.8 674.7 C 416.7 699.7 432 720.4 431.8 720.5 C 431.6 720.7 423.5 717.6 413.7 713.7 C 396.6 706.8 395.3 706 380.2 694.9 L 364.5 683.4 L 363.8 665.9 C 363.5 656.3 363 644.1 362.7 638.7 C 362.4 633.4 362.5 629 362.8 629.1 C 363.2 629.1 378.9 649.6 397.8 674.7 Z  M 353.3 647.7 C 350.3 657.5 346.4 670.4 344.6 676.5 C 342.8 682.5 340.9 687.5 340.4 687.6 C 339 688 322.6 662 323.6 661.1 C 327.4 657.5 358.4 630 358.5 630 C 358.7 630 356.3 638 353.3 647.7 Z  M 362.1 670.9 L 362.5 683.3 L 352.8 686.6 C 347.4 688.4 343 689.5 343 689 C 343 687.9 358.7 636.1 359.7 634 C 360.4 632.5 361.5 648.7 362.1 670.9 Z  M 283.1 661.5 C 304.2 678.4 307.7 683.6 297.3 682.5 C 294.1 682.1 285.2 681.3 277.5 680.7 L 263.5 679.5 L 263.8 669.5 C 264.1 657.7 265 648 265.7 648 C 266 648 273.8 654.1 283.1 661.5 Z  M 330.2 676.7 C 334.8 683.8 338.9 690 339.3 690.7 C 340.1 691.9 338.3 700.8 337.1 702.2 C 336.1 703.3 307.5 685.2 307.6 683.6 C 307.7 682.4 320.8 664 321.5 664 C 321.7 664 325.7 669.7 330.2 676.7 Z  M 279.5 682.6 C 284.5 683 289.2 683.4 290 683.6 C 290.8 683.7 292.6 683.9 294 684 C 295.4 684.1 291.3 685 285 686 C 276.4 687.4 270.9 689 263 692.4 C 253.3 696.5 251.5 696.9 241.1 697.6 L 229.7 698.3 L 233.8 692.3 L 237.9 686.3 L 248.7 684.1 C 254.6 682.9 260 681.7 260.5 681.5 C 261.1 681.3 263.5 681.3 266 681.5 C 268.5 681.7 274.6 682.2 279.5 682.6 Z  M 314.2 696.2 C 325.5 711.4 325.1 710.3 319.4 709.6 C 316.7 709.3 309.1 708.8 302.5 708.5 C 295.9 708.1 288.9 707.7 287 707.5 C 285.1 707.3 278.1 706.8 271.5 706.5 C 258.4 705.8 251.9 705.2 251.2 704.6 C 251 704.4 251.5 702.9 252.4 701.2 C 254.9 696.3 270.2 690.3 287.5 687.5 C 295.2 686.2 302.5 685.2 303.6 685.1 C 305.2 685 307.9 687.8 314.2 696.2 Z " fill="rgb(0,0,0)"/></g></svg>