<?xml version="1.0" encoding="UTF-8" standalone="no"?><!-- Generator: Gravit.io --><svg xmlns="http://www.w3.org/2000/svg" xmlns:xlink="http://www.w3.org/1999/xlink" style="isolation:isolate" viewBox="0 0 1200 1552" width="1200pt" height="1552pt"><defs><clipPath id="_clipPath_xJaHovOoa2Ne3a8Jhq70Dn921C2eG6yi"><rect width="1200" height="1552"/></clipPath></defs><g clip-path="url(#_clipPath_xJaHovOoa2Ne3a8Jhq70Dn921C2eG6yi)"><path d=" M 295.458 84.141 C 292.339 86.815 290 89.694 290 90.311 C 290 91.133 292.534 95.452 295.652 100.182 C 300.135 106.968 314.559 117.867 363.482 151.593 L 425.658 194.368 L 459.378 233.44 L 493.098 272.513 L 497.581 289.993 L 502.259 307.267 L 490.369 335.235 C 482.183 354.977 468.929 396.312 444.76 477.543 L 410.845 592.088 L 408.506 642.471 L 406.362 692.854 L 420.201 790.536 L 433.845 888.218 L 435.209 982.816 L 436.573 1077.413 L 459.183 1115.869 L 481.988 1154.325 L 503.428 1161.934 L 524.868 1169.543 L 558.588 1234.321 L 592.308 1299.305 L 590.748 1334.265 L 589.189 1369.431 L 569.698 1373.749 C 558.978 1376.012 547.868 1378.479 545.139 1379.302 C 541.826 1380.125 537.148 1385.266 531.105 1395.137 C 526.038 1402.951 521.945 1410.355 521.945 1411.383 C 521.945 1412.411 525.648 1412.822 530.326 1412.205 C 534.809 1411.794 545.334 1410.766 553.715 1409.738 C 561.901 1408.915 568.723 1409.121 568.723 1409.943 C 568.723 1410.971 567.359 1414.673 565.605 1417.963 C 564.045 1421.459 562.876 1424.544 563.266 1424.955 C 563.656 1425.161 572.622 1426.189 583.342 1426.806 C 605.756 1428.246 625.053 1429.685 645.129 1431.125 C 652.925 1431.536 668.518 1432.564 679.823 1433.181 C 691.128 1433.798 703.797 1434.826 708.085 1435.238 C 714.127 1435.855 718.415 1434.621 727.576 1429.48 C 739.271 1422.899 739.271 1422.899 742.194 1409.532 L 745.313 1396.165 L 765.584 1388.556 C 776.889 1384.443 787.024 1381.358 788.194 1381.77 C 789.363 1381.975 803.592 1392.669 819.769 1405.213 C 848.616 1427.423 850.175 1428.451 890.132 1445.52 L 931.064 1463 L 985.639 1463 C 1015.655 1463 1040.604 1462.383 1040.994 1461.56 C 1041.578 1460.532 1001.427 1422.488 951.724 1376.629 L 861.48 1293.547 L 860.311 1279.769 C 859.141 1267.019 861.285 1255.297 890.912 1115.252 L 922.877 964.308 L 918.2 855.315 L 913.522 746.322 L 885.259 656.661 L 856.997 566.793 L 802.422 467.466 L 747.652 367.933 L 734.983 294.929 L 722.314 221.924 L 696.78 185.319 L 671.052 148.508 L 627.197 129.383 L 583.342 110.258 L 560.927 109.024 C 532.08 107.585 500.894 106.145 465.42 104.706 C 412.794 102.649 404.023 101.415 353.151 90.311 C 325.084 84.141 301.89 79 301.5 79 C 301.11 79 298.381 81.468 295.458 84.141 Z  M 350.812 93.601 C 381.608 100.387 400.515 105.528 404.998 108.407 C 412.599 113.343 479.649 159.408 480.818 160.436 C 481.208 160.847 481.208 161.875 480.623 162.492 C 480.039 163.109 468.734 157.763 455.48 150.771 C 438.717 141.928 411.82 131.029 366.015 114.782 C 330.152 101.827 299.551 90.722 297.991 90.311 C 295.847 89.488 296.042 88.46 298.966 86.198 C 300.915 84.552 302.864 83.113 303.059 83.113 C 303.254 83.113 324.694 87.843 350.812 93.601 Z  M 364.066 117.867 C 413.574 135.347 433.65 143.367 456.065 155.295 C 476.53 165.988 485.301 171.747 486.861 175.242 C 488.03 178.122 488.615 180.589 488.42 180.795 C 488.03 181.206 477.895 175.242 465.615 167.839 L 443.395 154.472 L 398.176 146.863 L 352.761 139.254 L 333.465 126.299 C 322.94 119.307 311.44 111.286 308.127 108.407 C 301.695 103.472 296.237 95.452 299.161 95.452 C 300.135 95.452 329.372 105.528 364.066 117.867 Z  M 469.319 108.613 C 589.189 113.343 576.91 111.698 619.01 129.795 C 639.086 138.432 656.239 146.246 657.408 147.275 C 658.383 148.097 642.985 148.92 623.299 148.92 C 603.418 148.92 579.638 149.331 570.478 149.537 C 554.495 149.948 551.766 149.331 490.174 129.383 C 455.09 118.073 426.438 108.202 426.438 107.585 C 426.438 106.762 428.777 106.557 431.896 106.762 C 434.819 107.174 451.582 107.996 469.319 108.613 Z  M 485.301 131.44 C 536.953 148.303 547.673 153.033 534.029 153.033 C 529.936 153.033 527.792 154.884 524.284 161.464 L 519.606 169.896 L 528.961 184.085 L 538.122 198.275 L 547.673 198.275 C 556.444 198.275 558.393 197.247 568.918 187.581 L 580.613 176.888 L 569.308 164.96 L 558.198 153.033 L 603.418 152.827 C 628.366 152.827 653.315 152.621 658.967 152.621 L 669.103 152.416 L 693.662 187.17 C 707.11 206.295 717.636 222.13 716.661 222.541 C 715.881 222.952 684.306 229.533 646.688 237.348 L 578.079 251.332 L 537.732 219.868 L 497.581 188.198 L 489.784 172.363 L 481.988 156.529 L 448.073 133.291 C 429.362 120.335 413.769 109.436 413.184 108.819 C 412.599 108.202 415.913 109.024 420.786 110.67 C 425.463 112.109 454.505 121.569 485.301 131.44 Z  M 407.921 152.21 L 441.056 157.557 L 466.785 172.98 C 481.598 181.823 509.665 201.977 533.444 220.896 L 574.571 253.388 L 542.02 278.477 C 524.089 292.255 508.496 303.977 507.326 304.388 C 506.157 305.005 503.623 299.042 501.674 290.404 C 499.725 282.179 496.801 273.13 495.047 270.457 C 493.488 267.578 477.7 248.658 459.768 228.299 C 428.192 192.105 427.023 190.872 396.227 169.896 C 359.778 144.807 358.804 143.779 367.965 145.629 C 371.668 146.246 389.795 149.125 407.921 152.21 Z  M 565.995 185.319 C 558.393 193.134 556.054 194.162 548.453 194.162 C 539.876 194.162 539.487 193.751 531.69 181.823 L 523.699 169.484 L 527.207 163.315 C 530.521 157.351 532.275 156.529 547.283 154.472 C 550.986 154.061 554.885 156.529 563.461 165.166 L 574.766 176.682 L 565.995 185.319 Z  M 712.958 228.299 C 712.958 229.944 654.289 419.139 653.51 419.962 C 653.12 420.373 646.883 415.437 639.476 408.857 C 626.417 397.135 559.562 344.078 528.182 320.634 C 519.411 314.054 512.394 307.884 512.589 307.062 C 513.174 305.622 568.918 261.82 576.52 256.884 C 578.079 255.856 608.875 248.864 644.739 241.255 C 720.364 225.42 712.958 226.654 712.958 228.299 Z  M 731.474 295.546 C 737.906 332.973 743.169 365.054 743.169 366.494 C 743.169 368.961 660.332 417.083 658.967 415.437 C 658.188 414.615 717.636 227.065 718.805 227.065 C 719.39 227.065 725.042 257.912 731.474 295.546 Z  M 526.622 324.13 C 578.274 362.792 641.815 413.792 640.256 415.437 C 639.476 416.26 492.318 350.864 490.564 348.808 C 489.199 347.368 504.208 309.324 505.962 309.324 C 506.547 309.324 515.707 315.905 526.622 324.13 Z  M 570.867 389.526 L 649.806 424.897 L 682.357 472.813 L 714.907 520.728 L 712.958 531.628 C 710.424 546.845 707.5 583.862 705.941 620.878 C 704.771 648.64 702.627 662.624 684.306 759.689 L 664.035 867.654 L 656.628 974.179 L 649.222 1080.703 L 665.399 1135.611 C 674.365 1165.841 682.552 1192.575 683.526 1195.043 C 685.28 1199.156 738.491 1234.116 746.093 1236.172 C 748.237 1236.789 750.771 1234.116 753.889 1227.946 L 758.567 1218.692 L 754.279 1170.777 C 751.745 1144.248 749.991 1120.188 749.991 1116.897 C 750.186 1098.595 823.278 839.892 825.422 850.174 C 825.811 851.819 823.473 905.493 820.354 969.449 L 814.507 1085.639 L 798.914 1167.897 C 790.338 1213.14 782.736 1252.212 782.151 1254.68 C 781.567 1257.148 764.219 1275.245 743.364 1294.987 C 714.712 1322.338 700.873 1334.06 685.67 1343.519 C 673.001 1351.54 664.815 1355.447 663.45 1354.419 C 662.281 1353.39 646.493 1340.023 628.171 1324.806 L 595.036 1296.838 L 560.732 1230.414 L 526.233 1163.785 L 481.403 1020.86 L 436.378 877.936 L 422.93 781.282 C 414.548 721.028 409.676 680.31 410.065 673.318 C 410.455 667.149 411.82 645.967 412.989 626.225 L 415.133 590.442 L 448.268 478.365 C 484.132 356.828 485.886 351.687 489.394 353.127 C 490.759 353.538 527.402 369.99 570.867 389.526 Z  M 804.371 478.571 L 851.54 564.325 L 837.311 610.596 C 829.515 635.89 822.693 656.661 822.108 656.661 C 821.134 656.866 734.008 541.704 725.627 529.366 L 720.949 522.168 L 732.644 450.192 C 739.076 410.502 744.728 376.776 745.313 375.131 C 745.898 373.28 748.237 375.748 751.745 382.328 C 754.669 388.086 778.253 431.272 804.371 478.571 Z  M 739.271 388.909 C 737.906 396.724 732.644 428.599 727.381 460.063 C 719.975 506.127 717.636 516.615 715.687 514.559 C 712.373 510.857 656.239 428.188 655.069 425.308 C 654.679 423.869 661.891 418.728 671.442 413.587 C 680.797 408.445 700.094 397.752 713.932 389.732 C 727.966 381.917 739.856 375.336 740.44 375.336 C 741.22 375.131 740.635 381.3 739.271 388.909 Z  M 744.533 560.829 C 758.177 579.132 780.397 608.745 794.041 626.842 L 818.6 659.54 L 796.38 658.1 C 784.295 657.278 772.211 656.249 769.482 655.838 C 766.753 655.427 756.813 654.399 747.067 653.782 C 737.517 653.165 724.847 652.136 719 651.314 L 708.475 650.08 L 709.839 615.943 C 711.593 568.233 715.687 527.103 718.415 527.309 C 719.195 527.515 730.89 542.527 744.533 560.829 Z  M 905.53 735.423 C 904.946 737.068 830.294 667.354 827.176 662.419 C 826.006 660.362 842.184 602.781 852.709 572.551 C 853.684 569.467 906.505 732.338 905.53 735.423 Z  M 752.915 657.895 C 758.372 658.306 768.313 659.334 775.329 659.951 C 810.413 662.83 817.235 663.653 818.015 664.27 C 818.405 664.681 785.075 710.334 744.144 765.859 C 703.212 821.383 669.493 866.626 669.103 866.214 C 668.713 865.803 670.467 854.904 673.001 841.948 C 675.34 828.992 684.306 781.488 692.492 736.246 L 707.695 654.399 L 725.432 655.632 C 735.178 656.455 747.652 657.483 752.915 657.895 Z  M 909.234 748.173 C 909.623 750.435 914.496 854.287 917.03 914.952 C 917.615 930.787 917.615 943.332 917.225 942.715 C 916.64 942.098 910.208 923.178 902.996 900.557 C 895.785 877.936 875.904 816.859 858.946 765.036 C 841.794 713.008 827.956 670.233 827.956 669.822 C 827.956 668.177 908.844 746.117 909.234 748.173 Z  M 788.973 815.214 L 759.737 954.025 L 753.499 1026.001 C 750.186 1065.486 746.872 1098.8 746.093 1099.623 C 744.728 1101.268 670.077 880.61 670.077 875.263 C 670.077 871.972 817.04 672.495 817.625 674.758 C 818.015 675.786 805.151 738.919 788.973 815.214 Z  M 847.447 741.181 C 858.362 774.496 879.022 838.246 893.446 882.872 L 919.564 963.896 L 910.208 974.384 C 852.514 1039.78 821.134 1074.328 819.964 1074.328 C 818.99 1074.328 818.795 1068.982 819.184 1062.401 C 819.769 1056.026 822.498 1002.147 825.422 942.715 C 830.294 840.508 830.294 830.843 828.15 763.802 C 825.811 687.919 825.617 678.253 826.786 679.693 C 827.176 680.104 836.532 707.867 847.447 741.181 Z  M 824.642 758.867 L 827.176 826.525 L 803.202 903.642 C 790.143 946.005 773.38 1004.203 766.364 1032.582 C 759.152 1061.167 752.915 1084.199 752.525 1083.788 C 752.135 1083.377 754.474 1053.969 757.592 1018.598 L 763.44 954.025 L 790.922 823.44 C 806.125 751.669 818.99 690.592 819.769 687.713 C 820.939 682.983 821.134 682.983 821.718 686.891 C 822.108 689.153 823.473 721.645 824.642 758.867 Z  M 670.077 887.396 C 670.077 888.424 686.84 939.013 707.11 999.884 C 727.576 1060.961 744.144 1111.756 744.144 1113.196 C 744.144 1114.635 731.669 1132.526 716.466 1153.091 C 701.263 1173.656 688.594 1190.93 688.204 1191.341 C 686.645 1193.603 684.306 1186.406 669.103 1134.994 L 652.925 1080.292 L 659.552 985.284 C 663.06 933.049 666.179 888.63 666.179 886.573 C 666.179 884.517 667.154 883.489 668.128 884.105 C 669.298 884.722 670.077 886.162 670.077 887.396 Z  M 444.76 944.771 C 470.293 1087.284 479.259 1138.696 478.674 1139.313 C 478.284 1139.518 469.513 1125.74 459.378 1108.466 L 440.667 1077.002 L 439.107 995.977 C 438.328 951.352 438.133 915.364 438.717 915.981 C 439.302 916.598 441.836 929.553 444.76 944.771 Z  M 521.945 1162.139 C 521.945 1164.607 489.784 1154.325 486.471 1150.829 C 484.911 1149.184 443.98 924.207 444.175 919.065 C 444.175 916.598 521.75 1158.849 521.945 1162.139 Z  M 886.819 1118.131 L 856.413 1261.878 L 845.498 1260.644 C 839.65 1260.027 827.371 1258.999 818.21 1258.382 C 809.049 1257.765 798.134 1256.737 793.651 1256.12 L 785.66 1255.092 L 801.837 1169.543 L 818.21 1084.199 L 826.396 1074.534 C 848.031 1049.651 916.25 973.562 916.64 973.973 C 917.03 974.384 903.581 1039.163 886.819 1118.131 Z  M 750.771 1170.982 C 755.059 1217.87 755.059 1218.692 751.355 1225.067 C 749.211 1228.769 747.262 1232.059 747.067 1232.265 C 746.093 1233.293 689.568 1197.922 689.568 1196.482 C 689.568 1194.22 744.533 1121.421 745.508 1122.45 C 746.093 1122.861 748.432 1144.865 750.771 1170.982 Z  M 823.083 1262.495 C 847.836 1264.14 852.125 1264.551 855.243 1266.608 C 856.997 1267.842 858.167 1290.257 856.413 1290.257 C 854.269 1290.257 799.498 1262.906 797.744 1261.055 C 796.38 1259.616 796.38 1259.204 797.744 1259.821 C 798.914 1260.438 810.219 1261.672 823.083 1262.495 Z  M 825.617 1279.769 L 858.752 1296.015 L 945.487 1375.806 C 993.24 1419.814 1032.418 1456.419 1032.418 1457.242 C 1032.613 1458.27 1009.613 1458.887 981.546 1458.887 L 930.284 1458.887 L 865.963 1369.02 C 789.558 1262.495 790.338 1263.523 791.507 1263.523 C 791.897 1263.523 807.295 1270.721 825.617 1279.769 Z  M 854.853 1359.56 C 891.692 1410.971 921.513 1453.54 921.123 1453.746 C 920.733 1454.157 904.946 1447.782 885.844 1439.762 C 852.514 1425.572 849.981 1423.927 820.549 1401.1 L 789.948 1377.451 L 788.583 1341.463 C 787.999 1321.721 787.024 1296.632 786.439 1285.527 C 785.855 1274.628 786.05 1265.579 786.634 1265.785 C 787.414 1265.785 818.015 1307.943 854.853 1359.56 Z  M 768.118 1304.035 C 762.27 1324.189 754.669 1350.717 751.16 1363.262 C 747.652 1375.6 743.949 1385.883 742.974 1386.088 C 740.245 1386.911 708.28 1333.443 710.229 1331.592 C 717.636 1324.189 778.058 1267.636 778.253 1267.636 C 778.643 1267.636 773.965 1284.088 768.118 1304.035 Z  M 785.27 1351.745 L 786.05 1377.245 L 767.143 1384.032 C 756.618 1387.733 748.042 1389.996 748.042 1388.967 C 748.042 1386.705 778.643 1280.18 780.592 1275.862 C 781.956 1272.777 784.1 1306.092 785.27 1351.745 Z  M 631.29 1332.415 C 672.416 1367.169 679.238 1377.862 658.967 1375.6 C 652.73 1374.778 635.383 1373.133 620.375 1371.899 L 593.087 1369.431 L 593.672 1348.866 C 594.257 1324.6 596.011 1304.652 597.375 1304.652 C 597.96 1304.652 613.163 1317.197 631.29 1332.415 Z  M 723.093 1363.673 C 732.059 1378.274 740.05 1391.024 740.83 1392.463 C 742.389 1394.931 738.881 1413.234 736.542 1416.113 C 734.593 1418.375 678.848 1381.153 679.043 1377.862 C 679.238 1375.395 704.771 1337.556 706.136 1337.556 C 706.526 1337.556 714.322 1349.278 723.093 1363.673 Z  M 624.273 1375.806 C 634.019 1376.629 643.179 1377.451 644.739 1377.862 C 646.298 1378.068 649.806 1378.479 652.535 1378.685 C 655.264 1378.891 647.273 1380.741 634.993 1382.798 C 618.231 1385.677 607.511 1388.967 592.113 1395.959 C 573.206 1404.391 569.698 1405.213 549.427 1406.653 L 527.207 1408.092 L 535.199 1395.754 L 543.19 1383.415 L 564.24 1378.891 C 575.74 1376.423 586.265 1373.955 587.24 1373.544 C 588.409 1373.133 593.087 1373.133 597.96 1373.544 C 602.833 1373.955 614.722 1374.983 624.273 1375.806 Z  M 691.907 1403.774 C 713.932 1435.032 713.153 1432.77 702.043 1431.33 C 696.78 1430.714 681.967 1429.685 669.103 1429.068 C 656.239 1428.246 642.595 1427.423 638.891 1427.012 C 635.188 1426.601 621.544 1425.572 608.68 1424.955 C 583.147 1423.516 570.478 1422.282 569.113 1421.048 C 568.723 1420.637 569.698 1417.552 571.452 1414.056 C 576.325 1403.979 606.146 1391.641 639.866 1385.883 C 654.874 1383.209 669.103 1381.153 671.247 1380.947 C 674.365 1380.741 679.628 1386.5 691.907 1403.774 Z " fill="rgb(0,0,0)"/></g></svg>