<?xml version="1.0" encoding="UTF-8" standalone="no"?><!-- Generator: Gravit.io --><svg xmlns="http://www.w3.org/2000/svg" xmlns:xlink="http://www.w3.org/1999/xlink" style="isolation:isolate" viewBox="0 0 400 400" width="400pt" height="400pt"><defs><clipPath id="_clipPath_xKr0Np912BsrTrqNmGqDRrM9blZkzRTq"><rect width="400" height="400"/></clipPath></defs><g clip-path="url(#_clipPath_xKr0Np912BsrTrqNmGqDRrM9blZkzRTq)"><g><path d=" M 197.234 121.179 C 193.934 121.779 190.734 123.179 190.034 124.079 C 189.234 125.079 188.034 125.579 187.134 125.279 C 184.834 124.379 180.634 126.579 180.634 128.779 C 180.634 129.779 182.234 132.079 184.234 133.779 C 189.834 138.779 190.834 141.479 190.034 150.379 C 189.734 154.579 188.834 159.079 188.134 160.179 C 187.334 161.379 182.534 165.279 177.434 168.979 L 168.134 175.579 L 160.634 175.579 C 154.034 175.579 152.034 176.079 142.134 180.279 C 136.134 182.879 131.034 184.979 130.934 184.979 C 130.834 185.079 129.934 187.379 128.734 190.179 C 127.134 194.279 127.034 195.679 127.934 196.879 C 129.034 198.279 129.934 198.179 136.534 196.079 C 148.534 192.179 156.634 191.079 161.234 192.579 C 163.334 193.379 166.834 193.779 168.834 193.679 L 172.534 193.479 L 171.034 197.879 C 169.834 201.579 169.734 203.379 170.834 210.679 C 171.534 215.279 171.934 221.579 171.634 224.679 C 171.334 227.779 171.634 234.479 172.134 239.679 C 173.134 248.479 173.534 249.479 177.934 255.979 C 183.834 264.779 184.634 268.379 181.734 274.379 C 180.534 276.779 179.834 279.079 180.134 279.379 C 180.434 279.679 182.034 278.579 183.734 276.979 C 186.734 274.179 186.834 274.179 188.234 275.979 C 189.034 277.079 189.634 278.279 189.634 278.779 C 189.634 279.179 190.334 279.579 191.134 279.579 C 192.134 279.579 192.634 278.579 192.634 276.579 C 192.634 273.079 192.834 272.979 196.734 275.279 C 200.934 277.779 201.434 276.079 197.634 272.079 L 194.334 268.679 L 196.734 267.679 C 208.134 263.379 211.634 263.979 208.334 269.679 C 206.034 273.779 206.134 274.879 208.734 273.479 C 210.434 272.579 211.234 272.779 213.334 274.779 C 215.734 276.979 215.834 276.979 217.134 275.179 C 218.334 273.579 218.934 273.479 221.734 274.479 C 226.234 276.079 226.734 274.879 222.834 271.479 C 221.134 269.879 219.634 267.879 219.634 267.079 C 219.634 266.179 222.334 260.679 225.534 254.779 C 232.134 242.979 232.934 239.179 233.134 221.579 C 233.234 210.079 234.734 192.579 235.534 192.579 C 235.834 192.579 243.934 193.279 253.534 194.079 C 263.134 194.879 271.334 195.279 271.834 194.979 C 272.234 194.679 272.634 192.979 272.634 191.179 C 272.634 188.779 271.534 186.679 268.734 183.379 C 265.234 179.479 263.734 178.579 255.834 176.279 C 249.234 174.279 244.734 173.579 238.334 173.579 L 229.834 173.579 L 226.734 168.179 C 224.734 164.679 222.934 159.079 221.634 152.379 C 218.734 138.279 215.734 128.379 213.834 126.479 C 212.834 125.579 210.134 123.779 207.634 122.379 C 203.334 120.079 202.834 119.979 197.234 121.179 Z  M 214.334 140.679 C 217.434 142.579 217.634 143.079 217.134 146.379 C 215.734 155.279 216.634 154.979 207.134 149.779 C 201.934 146.879 199.034 144.779 199.634 144.179 C 201.234 142.579 208.034 138.779 209.534 138.679 C 210.234 138.579 212.434 139.479 214.334 140.679 Z  M 207.134 151.179 C 211.834 153.679 215.634 155.979 215.634 156.179 C 215.634 156.379 213.834 160.379 211.634 165.179 L 207.634 173.779 L 203.434 170.479 C 201.034 168.679 197.234 165.679 194.934 163.879 L 190.834 160.479 L 193.934 153.579 C 195.634 149.679 197.434 146.579 197.834 146.579 C 198.334 146.579 202.434 148.679 207.134 151.179 Z  M 197.434 167.279 L 204.934 173.079 L 193.634 173.379 C 187.434 173.479 182.134 173.479 181.934 173.179 C 181.634 172.879 182.334 171.379 183.534 169.779 C 184.734 168.079 185.634 166.379 185.634 165.979 C 185.634 165.179 188.734 161.579 189.434 161.579 C 189.734 161.579 193.334 164.179 197.434 167.279 Z  M 202.034 175.479 C 204.734 176.079 204.134 176.679 189.534 187.479 C 181.034 193.779 173.534 199.379 172.834 199.879 C 171.934 200.679 176.434 185.879 180.134 176.279 C 180.734 174.779 182.134 174.579 190.034 174.679 C 195.034 174.779 200.434 175.079 202.034 175.479 Z  M 206.034 188.279 C 205.634 194.779 205.034 200.379 204.634 200.879 C 204.334 201.279 197.234 201.479 189.134 201.379 L 174.234 201.079 L 190.134 188.779 C 198.934 182.079 206.234 176.579 206.434 176.579 C 206.534 176.579 206.334 181.879 206.034 188.279 Z  M 215.934 179.679 C 219.334 181.379 222.334 182.979 222.534 183.179 C 222.734 183.279 221.134 186.479 219.034 190.179 C 216.834 193.879 213.434 200.079 211.334 203.979 C 206.434 213.179 205.234 214.279 206.034 209.079 C 206.334 206.879 206.834 198.679 207.234 190.779 C 207.634 182.979 208.334 176.579 208.834 176.579 C 209.334 176.579 212.534 177.979 215.934 179.679 Z  M 233.134 199.179 C 233.134 199.479 210.834 213.379 208.634 214.579 C 206.734 215.579 206.834 215.179 209.634 210.379 C 211.334 207.479 213.434 203.679 214.334 201.879 C 215.734 199.179 217.334 198.179 224.034 195.679 L 232.134 192.779 L 232.634 195.979 C 232.934 197.679 233.234 199.179 233.134 199.179 Z  M 231.934 209.579 L 231.134 215.079 L 223.134 215.879 C 207.734 217.279 207.634 216.979 220.634 208.879 C 227.534 204.479 232.234 202.079 232.434 202.879 C 232.534 203.579 232.334 206.579 231.934 209.579 Z  M 200.134 203.879 C 199.034 204.679 192.734 208.079 186.234 211.479 C 174.134 217.779 172.734 217.979 172.634 213.479 C 172.634 212.579 172.334 209.779 172.034 207.179 L 171.334 202.579 L 186.734 202.579 C 199.834 202.579 201.834 202.779 200.134 203.879 Z  M 204.334 209.679 C 204.034 212.979 203.534 215.979 203.134 216.379 C 202.634 216.879 177.734 218.479 176.834 217.979 C 176.434 217.779 203.034 203.779 204.034 203.679 C 204.534 203.579 204.634 206.279 204.334 209.679 Z  M 231.434 222.679 L 231.734 228.279 L 224.034 235.479 C 219.734 239.379 216.034 242.379 215.834 242.079 C 214.534 240.879 205.734 219.179 206.234 218.679 C 206.834 218.079 224.034 216.779 228.634 216.979 C 230.934 217.079 231.134 217.479 231.434 222.679 Z  M 201.934 219.779 C 201.434 220.479 198.134 224.679 194.634 229.079 C 191.134 233.479 188.134 237.179 188.034 237.379 C 187.834 237.679 173.634 230.779 172.734 229.979 C 172.634 229.879 172.734 227.479 173.134 224.679 L 173.834 219.679 L 179.934 219.279 C 196.034 218.379 202.934 218.579 201.934 219.779 Z  M 210.034 232.879 C 212.534 238.879 214.034 243.579 213.334 243.279 C 212.734 243.079 207.434 241.879 201.634 240.579 C 195.834 239.379 190.834 238.079 190.434 237.679 C 190.034 237.379 192.934 233.379 196.834 228.779 C 200.734 224.179 204.234 220.779 204.734 221.279 C 205.134 221.679 207.534 226.979 210.034 232.879 Z  M 180.634 235.579 C 183.834 237.179 186.734 239.379 187.034 240.279 C 187.934 243.579 189.834 256.679 189.434 257.079 C 188.534 257.979 174.534 247.879 174.134 246.079 C 173.034 240.479 172.734 232.579 173.634 232.579 C 174.234 232.579 177.334 233.879 180.634 235.579 Z  M 201.634 242.079 C 207.834 243.479 213.134 244.679 213.234 244.879 C 213.434 244.979 208.634 248.179 202.534 251.879 C 196.534 255.579 191.634 258.379 191.634 258.179 C 191.634 257.979 190.934 254.179 190.134 249.879 C 188.434 240.879 188.334 239.579 189.434 239.579 C 189.934 239.579 195.434 240.679 201.634 242.079 Z  M 211.334 254.279 L 208.034 262.079 L 201.834 264.279 L 195.634 266.479 L 194.034 264.079 C 193.134 262.779 192.634 261.179 192.834 260.579 C 193.134 259.579 212.334 246.879 213.834 246.679 C 214.234 246.579 213.134 250.079 211.334 254.279 Z " fill="rgb(0,0,0)"/></g></g></svg>