<?xml version="1.0" encoding="UTF-8" standalone="no"?><!-- Generator: Gravit.io --><svg xmlns="http://www.w3.org/2000/svg" xmlns:xlink="http://www.w3.org/1999/xlink" style="isolation:isolate" viewBox="0 0 1200 1552" width="1200pt" height="1552pt"><defs><clipPath id="_clipPath_W3chxtAmLmePTgGdslyQOpEfmvOiV21L"><rect width="1200" height="1552"/></clipPath></defs><g clip-path="url(#_clipPath_W3chxtAmLmePTgGdslyQOpEfmvOiV21L)"><g><path d=" M 903.265 361.898 C 889.878 373.224 866.754 392.572 851.541 404.842 C 836.328 417.112 811.682 437.404 797.078 449.673 L 769.998 472.089 L 755.09 465.482 L 740.181 459.111 L 666.549 459.111 L 593.222 459.111 L 576.488 466.426 L 559.754 473.741 L 546.975 463.595 C 540.281 457.932 509.55 432.449 478.82 407.202 C 448.09 381.955 419.185 358.123 414.621 354.584 L 406.71 347.977 L 392.714 364.022 L 379.022 380.067 L 368.069 439.055 C 361.983 471.617 348.9 542.167 338.86 595.965 L 320.3 693.885 L 294.742 748.155 C 280.746 777.885 269.488 802.896 270.096 803.368 C 271.009 803.84 282.267 799.357 295.959 793.458 C 309.346 787.559 320.3 783.312 320.3 784.02 C 320.3 784.728 309.042 796.525 295.046 810.447 C 250.928 854.334 251.536 853.626 274.66 847.255 C 281.658 845.368 288.352 843.716 289.265 843.716 C 290.482 843.716 289.873 854.57 285.005 913.322 L 283.18 934.558 L 291.699 928.659 C 296.567 925.592 305.086 919.693 310.259 915.918 C 315.736 912.143 320.604 909.311 321.517 910.019 C 323.038 911.435 329.427 974.434 329.427 989.535 C 329.427 996.378 330.644 1001.805 332.166 1001.805 C 333.687 1001.805 340.077 997.322 345.858 991.895 C 351.943 986.468 357.42 982.693 358.332 983.165 C 359.854 984.58 392.41 1051.827 403.059 1076.13 C 412.187 1096.422 414.621 1099.962 417.968 1095.951 C 419.489 1093.827 421.314 1093.591 423.14 1095.007 C 427.704 1099.018 501.031 1172.4 508.638 1180.658 C 512.593 1184.905 516.244 1187.972 517.157 1187.501 C 517.765 1186.793 516.853 1179.714 514.723 1171.928 C 512.897 1163.905 511.68 1156.827 512.593 1156.355 C 513.81 1155.411 561.579 1198.826 580.748 1218.175 C 586.529 1224.073 588.354 1221.242 597.178 1190.804 C 601.133 1176.411 605.393 1164.613 606.61 1164.613 C 608.74 1164.613 609.957 1166.265 639.47 1214.871 C 652.553 1236.815 664.42 1255.219 665.332 1255.927 C 666.854 1257.107 675.069 1244.365 708.842 1187.501 C 714.927 1177.591 720.708 1170.04 721.621 1170.748 C 722.534 1171.456 727.706 1182.782 732.879 1195.995 C 738.051 1209.208 743.528 1220.062 745.049 1220.062 C 746.266 1220.062 754.785 1213.22 763.913 1204.725 C 811.074 1161.074 822.94 1150.22 823.853 1150.928 C 824.461 1151.4 822.94 1158.95 820.506 1167.916 C 818.072 1176.883 816.55 1184.669 817.463 1185.141 C 818.376 1185.849 846.064 1157.534 890.79 1109.636 C 905.091 1094.299 910.567 1090.76 910.567 1096.658 C 910.567 1103.737 917.565 1091.467 942.515 1040.737 C 957.119 1010.771 969.898 985.524 970.507 984.58 C 971.42 983.401 977.809 987.648 985.112 993.783 L 997.891 1005.108 L 1000.02 975.614 C 1000.933 959.569 1002.759 937.626 1003.976 927.008 L 1005.801 907.424 L 1024.97 919.457 L 1044.443 931.491 L 1044.443 921.109 C 1044.443 915.446 1042.921 896.57 1041.096 879.345 C 1039.27 862.12 1038.357 847.491 1038.966 847.019 C 1039.574 846.547 1047.485 848.435 1056.309 851.031 C 1065.437 853.626 1073.347 855.278 1073.956 854.57 C 1074.869 854.098 1061.481 838.761 1044.747 820.593 C 1027.708 802.424 1014.016 787.087 1014.016 786.379 C 1014.016 785.435 1024.057 790.155 1036.227 796.289 C 1053.57 805.256 1058.439 806.907 1059.047 803.84 C 1059.351 801.716 1050.224 777.649 1038.053 750.514 C 1012.799 693.178 1017.363 712.29 973.245 481.291 L 953.773 379.831 L 941.298 360.483 C 934.3 349.865 928.519 341.135 927.91 341.135 C 927.606 341.371 916.348 350.573 903.265 361.898 Z  M 936.43 362.37 C 944.34 374.64 944.34 375.82 935.517 371.573 C 931.866 369.921 927.91 369.921 922.129 371.573 C 915.436 373.46 908.438 382.898 881.663 425.37 L 849.107 476.808 L 851.845 522.347 C 853.062 547.594 853.67 568.358 852.758 568.83 C 851.845 569.302 839.979 559.864 826.287 548.066 C 812.595 536.032 797.686 523.527 793.427 519.987 C 783.994 512.201 782.777 515.032 817.768 473.269 C 831.459 456.988 857.322 426.314 875.577 404.842 C 913.001 360.011 921.825 350.573 925.78 350.573 C 927.302 350.573 932.17 355.764 936.43 362.37 Z  M 419.793 365.202 C 424.661 370.865 445.655 396.112 466.345 421.359 C 487.035 446.606 511.072 476.1 520.2 486.718 C 529.023 497.572 537.238 507.718 538.151 509.841 C 539.368 511.965 528.415 523.763 508.638 541.695 C 491.599 557.268 476.994 569.538 476.386 569.066 C 475.777 568.594 476.69 548.774 478.516 524.707 C 480.646 497.572 480.646 478.932 478.82 475.392 C 477.299 472.325 462.39 447.786 445.351 420.651 C 414.621 371.337 413.708 370.393 398.191 371.573 C 393.018 371.809 393.018 371.337 396.974 366.618 C 399.408 363.55 402.45 359.775 403.667 358.123 C 407.318 353.404 410.057 354.82 419.793 365.202 Z  M 442.917 426.078 L 475.473 476.808 L 473.952 518.1 C 471.213 580.628 475.777 573.077 429.834 591.717 C 408.231 600.684 389.367 607.762 387.541 607.762 C 385.107 607.762 384.195 573.785 384.195 494.976 L 384.195 382.426 L 392.714 378.179 C 397.278 376.056 403.059 374.404 405.493 374.876 C 408.231 375.112 424.053 397.056 442.917 426.078 Z  M 938.864 378.415 L 947.687 382.426 L 947.383 488.134 C 946.775 582.751 945.862 607.762 942.211 607.762 C 941.602 607.762 922.434 600.684 899.918 591.953 L 858.843 575.909 L 858.843 565.291 C 858.539 559.392 857.322 537.684 855.8 517.156 L 853.366 479.639 L 885.618 428.201 C 903.265 399.887 919.999 376.292 922.738 375.584 C 925.172 375.112 927.91 374.64 928.823 374.404 C 929.736 374.404 934.3 376.056 938.864 378.415 Z  M 860.973 414.752 C 816.246 467.842 792.818 495.92 787.341 503.235 C 783.69 507.954 778.518 511.257 773.041 512.201 C 768.477 512.909 760.566 514.089 755.394 514.797 C 750.221 515.504 746.266 515.032 746.266 513.853 C 746.266 512.673 752.047 503.471 759.349 493.797 C 768.173 481.763 785.516 465.246 812.291 443.303 C 833.893 425.37 858.539 405.078 866.449 398.235 C 874.36 391.393 881.663 386.202 882.271 386.91 C 882.88 387.381 873.447 399.887 860.973 414.752 Z  M 506.204 435.516 C 540.889 463.831 560.666 481.999 570.707 494.976 C 578.922 505.358 584.703 514.325 583.79 515.032 C 581.356 516.92 543.932 511.257 543.019 508.662 C 542.411 507.482 539.064 502.999 535.108 498.752 C 517.461 477.988 448.09 390.921 448.09 389.269 C 448.09 388.089 449.915 389.033 452.045 391.157 C 454.175 393.28 478.516 413.336 506.204 435.516 Z  M 977.505 529.898 C 989.371 591.481 1000.933 651.886 1003.367 664.155 C 1005.801 676.425 1007.323 686.807 1006.714 687.279 C 1006.106 687.751 996.978 678.784 986.329 667.459 C 965.334 644.807 956.207 637.256 926.085 618.38 C 915.131 611.538 901.135 602.571 895.354 598.56 L 884.705 591.01 L 907.525 599.504 C 919.999 604.223 933.996 609.414 938.559 611.302 C 942.819 613.189 947.383 614.841 948.296 614.841 C 949.209 614.841 950.121 602.335 950.121 586.998 C 950.121 548.538 954.077 416.404 954.99 417.348 C 955.598 417.584 965.639 468.314 977.505 529.898 Z  M 378.718 517.392 C 379.326 569.538 380.543 612.717 381.456 613.425 C 382.369 614.133 396.669 609.414 412.795 602.807 C 428.921 596.201 442.917 591.246 443.526 591.717 C 444.438 592.189 429.834 602.099 411.578 613.661 C 375.371 636.077 361.983 646.459 343.119 667.459 C 334.6 676.897 330.644 679.728 330.036 676.897 C 329.732 674.537 338.251 624.751 349.204 566.47 C 360.158 507.954 370.807 451.561 372.633 440.707 C 374.458 430.089 376.284 421.595 376.892 421.831 C 377.197 422.303 378.109 465.246 378.718 517.392 Z  M 754.785 469.257 C 759.958 471.617 764.522 474.448 764.522 475.864 C 764.522 479.403 710.059 555.381 706.408 557.268 C 704.582 557.976 695.15 553.729 685.414 547.83 C 675.677 541.931 666.549 536.976 665.332 536.976 C 664.115 536.976 656.205 540.987 647.685 546.178 C 639.166 551.133 630.647 555.852 628.517 556.796 C 626.083 557.74 614.521 544.999 595.656 520.459 C 579.531 499.46 565.839 481.055 564.926 479.167 C 563.709 477.044 568.881 473.741 580.139 469.257 L 596.874 462.651 L 670.809 463.831 C 734.096 464.774 746.266 465.718 754.785 469.257 Z  M 575.575 518.808 C 591.701 521.639 592.005 521.639 605.393 540.044 C 612.695 550.426 618.172 560.1 617.259 561.751 C 615.738 564.819 551.234 604.695 544.54 606.818 C 541.194 607.762 508.029 592.661 486.426 580.392 L 477.907 575.437 L 510.767 545.706 C 546.975 512.909 544.845 513.853 575.575 518.808 Z  M 804.38 535.089 C 816.855 545.942 832.676 559.392 839.674 565.291 C 849.411 573.313 851.541 576.616 848.802 578.504 C 841.5 583.459 789.471 607.762 786.124 607.762 C 784.299 607.762 766.043 597.616 745.962 585.111 L 709.45 562.695 L 719.187 549.246 C 739.572 520.931 739.877 520.695 753.264 518.572 C 779.431 513.853 780.343 514.325 804.38 535.089 Z  M 704.582 564.347 C 724.968 576.852 742.919 587.942 744.44 589.122 C 746.266 590.302 740.181 605.403 729.836 625.695 L 712.189 660.144 L 718.578 678.312 C 722.229 688.458 724.968 698.369 724.968 700.728 C 724.968 704.503 716.144 714.885 681.154 752.166 L 666.245 767.975 L 659.551 761.604 C 637.036 740.132 603.263 704.503 603.263 701.908 C 603.263 700.256 606.914 690.346 611.174 679.728 L 619.389 660.616 L 601.742 625.931 C 592.31 607.054 585.007 590.538 585.312 589.122 C 586.833 586.526 661.377 541.931 665.028 541.695 C 666.549 541.695 684.197 551.841 704.582 564.347 Z  M 506.812 595.493 C 521.721 602.807 534.5 610.122 535.413 611.538 C 536.63 614.133 523.851 636.313 517.461 642.447 C 515.331 644.335 509.55 643.863 494.033 639.616 C 475.777 634.897 470.301 634.425 450.828 636.077 C 403.059 640.088 381.152 641.032 381.456 639.144 C 381.76 635.133 470.909 579.684 475.473 580.864 C 477.907 581.571 491.903 588.178 506.812 595.493 Z  M 902.657 608.47 C 954.99 641.976 952.86 639.144 924.259 637.492 C 910.872 636.549 891.703 635.369 881.663 634.661 C 868.579 633.717 856.713 634.661 839.37 638.2 C 825.983 640.796 814.116 642.447 812.899 641.976 C 811.987 641.268 805.901 634.425 799.816 626.639 L 788.863 612.245 L 807.423 603.515 C 817.463 598.796 832.068 591.481 839.979 587.47 C 850.932 582.043 855.496 580.628 860.06 582.515 C 863.103 583.695 882.271 595.257 902.657 608.47 Z  M 596.874 626.639 L 613.304 659.672 L 606.306 677.841 C 602.654 687.987 599.003 696.717 598.395 697.189 C 597.786 697.661 592.005 691.29 585.312 683.032 C 574.662 669.818 570.403 666.987 547.279 657.313 L 521.417 646.459 L 532.674 629.234 C 540.889 616.964 548.192 609.65 559.145 603.043 C 567.664 598.088 575.879 593.841 577.401 593.841 C 579.226 593.605 588.05 608.47 596.874 626.639 Z  M 769.998 604.695 C 781.865 612.245 801.033 632.066 805.901 641.74 C 807.118 644.099 800.12 648.582 783.69 655.897 C 765.435 664.155 757.219 669.582 747.483 680.2 C 740.789 687.515 733.791 693.885 732.27 694.357 C 730.444 694.829 726.793 687.279 723.751 677.605 L 717.97 660.144 L 734.096 628.054 C 743.223 610.358 751.743 595.965 753.264 595.965 C 755.09 595.965 762.392 599.74 769.998 604.695 Z  M 495.554 644.099 C 536.021 654.953 536.325 655.661 501.031 659.436 C 477.299 662.032 421.619 676.661 362.288 696.245 C 355.898 698.133 350.726 699.076 350.726 698.133 C 350.726 693.178 367.156 650.942 370.198 648.582 C 372.937 646.459 435.919 639.852 466.649 638.672 C 470.909 638.672 483.992 641.032 495.554 644.099 Z  M 937.951 642.447 L 955.902 643.863 L 966.856 668.874 C 972.637 682.56 977.505 694.593 977.505 695.301 C 977.505 696.009 948.296 688.93 913.001 679.492 C 877.403 669.818 843.934 662.032 838.762 662.032 C 818.68 662.032 792.21 658.964 793.731 657.077 C 796.469 653.301 814.116 647.167 834.502 642.919 C 854.279 638.436 888.661 638.436 937.951 642.447 Z  M 996.369 683.739 C 1005.497 693.413 1013.408 706.627 1023.753 729.514 C 1031.968 747.211 1038.053 762.312 1037.445 762.784 C 1036.532 763.256 1024.666 749.099 1010.365 731.166 C 993.935 710.166 982.373 692.234 977.809 680.908 C 973.854 671.234 969.898 661.56 969.29 659.672 C 967.464 655.425 979.026 665.807 996.369 683.739 Z  M 558.232 666.751 C 577.401 675.953 595.656 699.312 592.918 711.346 C 589.875 725.975 586.224 724.795 572.228 704.267 L 559.145 684.447 L 524.763 675.245 C 505.899 670.29 490.99 665.807 491.903 665.099 C 493.729 663.683 520.808 660.38 533.283 659.908 C 540.281 659.908 548.8 662.268 558.232 666.751 Z  M 350.421 682.56 C 345.553 695.773 337.642 708.043 322.429 726.447 C 310.867 740.368 300.827 751.458 300.218 750.986 C 298.697 749.806 323.646 696.717 328.819 690.582 C 340.989 675.953 354.681 662.032 355.898 662.975 C 356.811 663.683 354.377 672.414 350.421 682.56 Z  M 817.159 664.391 C 825.07 664.391 831.459 665.335 831.459 666.279 C 831.459 667.223 817.463 671.706 800.12 675.953 L 768.781 683.975 L 755.394 703.559 C 747.787 714.413 740.789 723.38 739.572 723.38 C 738.355 723.38 736.53 718.661 735.617 712.998 C 733.791 703.559 734.704 701.436 746.875 687.279 C 762.392 668.874 776.388 661.324 791.905 663.211 C 797.686 663.683 808.944 664.391 817.159 664.391 Z  M 505.899 674.301 L 534.804 682.088 L 506.812 683.267 L 478.516 684.447 L 428.312 723.144 C 400.929 744.615 377.805 761.604 377.197 760.896 C 374.762 759.009 350.726 708.986 350.726 706.155 C 350.726 704.503 360.766 700.492 372.937 696.953 C 384.803 693.413 411.882 685.391 432.876 679.02 C 453.87 672.414 472.126 666.987 473.952 666.987 C 475.473 666.751 490.078 670.29 505.899 674.301 Z  M 916.044 684.447 C 958.641 695.773 977.505 701.908 977.505 704.267 C 977.505 709.458 955.294 761.132 953.164 761.132 C 951.947 761.132 929.127 743.672 902.352 722.2 L 853.366 683.503 L 823.244 682.796 L 793.427 682.088 L 820.81 674.537 C 836.023 670.29 849.715 667.223 851.236 667.459 C 853.062 667.695 882.271 675.245 916.044 684.447 Z  M 843.63 687.751 C 843.63 694.121 829.634 706.863 813.204 715.829 C 794.644 725.975 791.297 726.919 760.566 729.278 L 742.919 730.458 L 757.524 709.458 L 772.128 688.222 L 796.469 687.515 C 809.857 687.043 825.983 686.335 832.372 686.099 C 838.457 685.863 843.63 686.571 843.63 687.751 Z  M 569.186 708.043 C 576.184 719.132 581.965 728.807 581.965 729.278 C 581.965 729.986 572.837 729.75 561.579 729.042 C 544.54 727.627 537.542 725.503 520.2 717.009 C 502.552 708.279 487.644 695.773 487.644 689.638 C 487.644 688.694 503.161 687.987 522.025 687.987 L 556.407 687.987 L 569.186 708.043 Z  M 871.013 727.155 L 878.316 756.885 L 868.275 795.11 C 862.798 815.873 857.017 834.514 855.8 836.401 C 854.583 838.289 842.108 845.368 828.112 851.974 C 804.684 863.064 801.946 865.424 796.165 876.514 C 792.514 883.356 788.863 888.075 787.95 887.131 C 785.516 883.828 758.436 826.491 758.436 824.132 C 758.436 817.761 778.518 800.536 792.818 795.11 C 801.642 791.57 809.552 787.559 810.77 786.143 C 811.987 784.728 821.419 768.683 831.459 750.278 C 843.63 727.863 849.715 713.941 849.715 707.335 C 849.715 702.144 850.628 696.009 851.541 693.885 C 853.366 690.582 853.975 690.582 858.539 693.649 C 861.885 696.009 866.449 707.807 871.013 727.155 Z  M 482.775 707.571 C 483.992 716.537 489.469 731.402 496.467 744.851 C 520.808 790.626 519.287 788.739 536.021 794.166 C 547.583 798.177 553.364 802.188 562.188 812.334 L 573.445 825.548 L 558.841 859.525 C 550.626 877.929 543.323 893.266 542.411 893.266 C 541.498 893.266 538.151 887.367 534.804 880.053 C 528.719 865.896 524.155 862.356 492.816 846.076 C 469.692 833.806 469.996 834.75 459.043 789.447 L 451.132 757.593 L 458.434 729.75 C 464.824 704.739 471.518 692.706 478.516 692.706 C 479.733 692.706 481.558 699.312 482.775 707.571 Z  M 844.238 708.515 C 843.326 714.649 834.806 733.998 825.374 751.694 C 808.335 782.368 807.423 783.784 793.731 789.447 C 784.907 793.222 778.822 794.402 776.996 792.986 C 772.433 788.975 743.223 737.301 744.745 735.413 C 745.353 734.233 756.915 732.818 770.303 732.11 C 792.818 730.694 796.165 729.75 815.333 719.604 C 826.591 713.706 837.849 706.155 839.979 703.088 C 845.455 695.065 846.064 696.009 844.238 708.515 Z  M 517.765 720.548 C 539.368 731.402 543.932 732.818 558.841 732.818 C 586.529 732.818 586.224 731.874 568.881 764.2 C 560.362 780.008 553.06 793.458 552.756 793.93 C 552.147 794.402 545.758 792.986 538.455 790.862 L 525.068 787.087 L 506.204 752.166 C 493.425 728.335 487.644 714.649 487.948 708.043 C 487.948 700.492 488.556 699.548 490.686 703.559 C 491.903 706.155 504.074 713.941 517.765 720.548 Z  M 948.6 789.683 C 945.862 801.716 943.428 811.862 943.123 812.098 C 942.819 812.334 928.519 804.312 911.176 794.402 L 879.837 776.469 L 881.663 764.436 C 882.88 756.413 881.358 745.559 877.099 730.458 C 873.752 718.189 871.013 707.099 871.013 705.919 C 871.013 704.503 889.573 717.717 912.393 735.413 L 953.468 767.267 L 948.6 789.683 Z  M 452.045 735.177 C 448.698 748.155 447.177 761.368 448.394 766.559 L 450.219 775.525 L 417.968 792.986 C 400.32 802.66 385.412 809.975 384.803 809.503 C 383.89 809.031 382.065 799.121 380.848 787.795 L 378.414 767.031 L 417.055 737.301 C 438.353 720.784 456 708.515 456.609 710.166 C 456.913 711.582 454.783 722.908 452.045 735.177 Z  M 1013.408 742.728 C 1060.264 801.48 1061.177 804.312 1025.578 785.907 C 1009.757 777.885 993.631 771.75 982.373 769.391 C 972.333 767.503 963.205 765.143 961.988 764.2 C 960.466 762.784 972.333 730.694 982.069 709.458 C 984.199 705.447 981.156 702.144 1013.408 742.728 Z  M 359.854 738.481 C 366.547 752.638 372.024 764.2 371.416 764.436 C 370.807 764.672 362.896 766.323 353.768 767.975 C 344.641 769.627 324.863 776.233 309.955 782.84 C 295.35 789.211 282.571 793.93 281.658 793.222 C 278.311 790.626 287.744 775.997 308.433 750.75 C 340.989 711.346 342.815 709.222 345.249 711.11 C 346.162 712.054 352.856 724.323 359.854 738.481 Z  M 624.866 733.29 C 635.515 744.144 644.947 753.346 645.86 754.054 C 646.772 754.761 651.336 759.245 655.9 763.964 C 660.464 768.919 665.332 772.93 666.549 772.93 C 667.766 772.93 680.85 759.481 696.063 743.436 C 710.972 727.155 723.751 714.649 724.359 715.829 C 724.663 716.773 722.229 732.346 719.187 750.514 C 713.101 783.312 713.101 783.548 719.491 814.93 C 722.838 832.39 724.663 847.019 723.751 847.727 C 722.838 848.435 714.319 847.963 704.886 846.311 C 680.545 842.772 637.645 843.008 619.997 847.255 C 611.782 849.143 604.48 850.323 603.872 849.851 C 603.263 849.379 605.697 836.401 609.348 820.828 C 612.999 805.492 616.042 788.739 616.042 783.548 C 616.042 775.525 609.957 742.256 604.48 720.312 C 603.567 716.773 603.263 713.941 604.176 713.941 C 604.784 713.941 614.216 722.672 624.866 733.29 Z  M 605.697 751.458 L 612.087 784.256 L 606.001 812.098 C 602.654 827.671 599.308 841.828 598.395 843.716 C 595.961 848.671 557.319 801.244 558.841 795.345 C 559.449 792.75 567.664 775.997 577.096 758.301 C 586.529 740.604 594.135 724.323 594.135 722.436 C 594.135 720.312 595.352 718.661 596.569 718.661 C 598.091 718.661 602.046 733.526 605.697 751.458 Z  M 734.096 727.155 C 734.096 729.042 742.919 745.795 753.568 764.672 L 773.041 798.649 L 752.96 821.3 C 742.311 833.57 732.27 843.716 731.357 843.716 C 730.14 843.716 726.793 829.559 724.055 812.334 C 719.187 783.784 719.187 779.065 723.446 754.29 C 725.88 739.424 728.01 725.739 728.01 724.087 C 728.01 722.2 729.532 721.492 731.053 722.2 C 732.879 722.908 734.096 725.267 734.096 727.155 Z  M 376.588 792.986 L 378.414 814.222 L 330.34 827.671 C 303.869 834.986 278.92 841.592 274.965 842.536 C 268.575 843.952 270.705 841.121 287.439 824.604 C 298.088 813.75 313.606 798.177 321.517 790.155 C 334.6 777.177 337.642 775.289 353.16 772.222 C 362.896 770.334 371.416 769.627 372.328 770.334 C 373.545 771.042 375.371 781.188 376.588 792.986 Z  M 980.548 773.402 C 993.935 775.761 997.586 777.649 1007.323 788.031 C 1013.408 794.638 1028.317 810.447 1040.791 823.424 C 1052.962 836.165 1062.394 847.019 1061.785 847.491 C 1060.264 848.671 955.294 817.997 951.947 815.402 C 947.687 812.098 956.207 770.57 961.075 770.57 C 963.205 770.57 972.028 771.75 980.548 773.402 Z  M 910.567 798.885 C 924.868 807.143 937.342 814.458 938.864 815.402 C 940.081 816.109 933.083 821.064 923.651 826.019 C 913.914 831.21 892.007 843.008 874.969 852.446 C 857.93 861.884 843.326 869.671 842.108 869.671 C 841.196 869.671 845.151 863.064 850.628 854.806 C 856.409 846.783 862.798 834.278 864.624 827.199 C 875.882 785.199 877.707 780.008 881.358 781.896 C 883.184 783.076 896.267 790.626 910.567 798.885 Z  M 459.043 809.031 C 465.128 832.862 467.258 837.581 482.471 856.693 C 491.903 868.255 498.901 878.165 498.597 878.637 C 497.38 879.581 387.541 817.053 387.541 815.402 C 387.237 813.75 445.96 782.604 449.611 782.368 C 451.436 782.368 455.696 794.402 459.043 809.031 Z  M 389.671 830.975 C 395.148 838.289 399.408 844.896 399.408 846.076 C 399.408 847.019 386.02 857.401 369.894 868.727 C 353.464 880.289 329.427 897.513 316.344 906.716 C 303.261 916.154 291.395 923.94 290.178 923.94 C 289.265 923.94 289.265 914.03 290.482 901.997 C 291.395 890.199 292.612 872.738 293.22 863.3 C 293.525 854.098 294.742 845.132 296.263 843.48 C 297.784 841.356 366.547 820.121 378.109 817.997 C 379.022 817.997 384.195 823.66 389.671 830.975 Z  M 991.197 832.154 C 1037.445 845.84 1033.793 842.064 1036.836 877.929 C 1037.749 889.491 1039.27 904.828 1040.487 911.907 C 1042.008 923.704 1041.704 924.176 1036.532 922.053 C 1033.185 920.637 1027.404 917.098 1023.144 914.03 C 1018.885 910.963 995.761 894.918 971.42 878.165 C 947.079 861.413 927.302 847.019 927.302 846.311 C 927.302 843.48 945.557 820.121 947.992 820.121 C 949.209 820.121 968.681 825.548 991.197 832.154 Z  M 450.828 857.165 C 465.128 865.188 484.297 875.806 493.12 880.761 C 501.944 885.716 509.855 891.851 510.463 894.446 C 511.072 897.042 514.114 914.974 516.548 934.558 C 519.287 953.906 523.546 981.513 525.981 995.67 C 531.457 1028.94 531.457 1029.883 525.981 1025.4 C 523.546 1023.513 506.204 1003.693 487.035 981.749 L 452.349 941.637 L 448.394 919.221 C 444.438 897.749 443.526 895.39 418.88 862.356 C 404.884 843.244 393.322 827.199 393.322 826.255 C 393.322 825.548 400.32 828.851 408.84 833.806 C 417.359 838.525 436.223 849.143 450.828 857.165 Z  M 910.567 860.941 L 885.922 895.39 L 882.575 919.693 C 880.75 936.21 877.707 945.884 874.056 950.131 C 871.013 953.434 869.188 958.625 870.101 961.929 C 871.013 966.412 853.67 1038.85 829.634 1131.344 C 828.112 1137.006 815.029 1150.928 787.95 1176.175 C 766.043 1196.467 747.483 1212.748 746.57 1212.276 C 745.658 1212.04 743.832 1209.444 742.615 1206.377 C 741.398 1203.545 737.138 1192.22 732.574 1181.13 L 724.968 1160.838 L 742.006 1131.58 C 751.134 1115.299 763 1095.243 768.173 1086.748 C 773.041 1078.254 782.169 1062.917 788.254 1052.535 C 794.339 1042.153 802.859 1029.883 807.423 1025.4 C 838.762 993.311 868.275 960.985 867.058 960.041 C 865.537 959.097 838.762 986.468 814.725 1012.895 C 806.206 1022.333 801.033 1025.4 801.033 1021.153 C 801.033 1020.209 804.38 992.131 808.335 958.625 C 816.855 886.896 816.246 888.311 855.8 867.311 C 870.101 859.761 893.224 847.255 907.525 839.469 C 921.825 831.682 933.691 825.784 934.3 826.019 C 934.908 826.491 924.259 842.064 910.567 860.941 Z  M 757.828 835.93 C 780.648 881.469 786.124 893.974 784.603 896.806 C 783.386 899.637 779.735 899.401 762.696 895.626 C 751.438 893.03 742.006 890.671 741.398 890.199 C 740.789 889.727 738.355 881.233 735.921 871.087 L 731.357 852.918 L 741.094 841.356 C 746.57 834.986 751.743 829.795 752.656 829.795 C 753.873 829.559 756.002 832.39 757.828 835.93 Z  M 588.963 844.188 C 597.178 852.682 597.178 853.154 593.831 870.379 L 590.484 888.075 L 570.098 892.794 C 559.145 895.39 549.409 897.042 548.8 896.57 C 548.192 896.098 554.277 881.469 562.188 863.772 C 570.098 846.076 577.705 832.626 578.922 833.57 C 579.835 834.514 584.399 839.469 588.963 844.188 Z  M 504.986 857.165 C 523.242 867.075 523.851 867.783 535.717 891.379 C 550.017 920.637 553.364 928.423 549.409 925.12 C 537.847 915.682 506.812 880.761 484.601 852.21 C 476.386 841.828 477.299 842.064 504.986 857.165 Z  M 713.71 851.738 C 723.446 853.862 726.489 855.986 728.619 861.413 C 729.836 865.188 730.444 868.491 729.836 868.963 C 729.227 869.435 721.012 867.075 711.276 863.536 C 693.933 857.637 693.02 857.637 682.067 861.413 C 671.722 865.188 669.592 865.188 654.683 861.884 C 640.079 858.345 637.036 858.345 623.04 861.884 C 614.825 864.008 606.001 866.839 603.872 868.019 C 600.525 870.143 599.916 868.963 600.829 862.356 C 601.742 854.57 602.35 854.334 621.823 850.795 C 644.643 846.783 693.933 847.255 713.71 851.738 Z  M 848.802 850.087 C 826.895 879.109 777.909 932.671 775.171 930.547 C 774.562 930.075 781.256 915.682 790.08 898.457 L 805.901 867.075 L 825.678 857.873 C 844.543 848.907 851.541 846.547 848.802 850.087 Z  M 421.923 873.21 L 439.266 895.862 L 432.876 902.704 C 427.704 908.367 384.499 950.367 347.379 985.76 C 342.511 990.715 337.034 994.726 335.817 994.726 C 334.296 994.726 332.47 979.153 331.253 959.805 C 330.036 940.693 328.515 920.637 327.602 915.446 C 325.472 904.356 323.951 906.008 367.46 875.57 C 382.065 865.188 395.756 855.514 397.582 853.862 C 399.408 852.21 401.842 851.031 402.755 850.795 C 403.972 850.795 412.491 860.941 421.923 873.21 Z  M 971.42 882.884 L 1002.15 903.648 L 1000.629 916.862 C 999.716 923.94 998.195 944.468 996.978 962.165 C 995.761 984.108 993.935 994.726 991.501 994.49 C 989.675 994.49 980.548 986.232 971.115 976.322 C 961.683 966.412 940.081 944.468 923.042 927.716 C 906.308 910.963 892.312 896.334 892.312 895.154 C 892.312 894.21 899.31 883.592 907.829 872.03 L 923.346 850.795 L 932.17 856.458 C 936.734 859.525 954.381 871.559 971.42 882.884 Z  M 668.679 865.188 C 677.199 865.188 688.152 864.716 693.02 864.48 C 698.193 864.244 709.146 866.839 717.361 869.907 C 730.749 875.098 732.574 876.75 733.487 884.064 C 734.4 891.379 733.183 892.794 723.446 896.334 C 714.623 899.637 703.669 900.345 663.811 900.345 C 616.651 900.345 614.825 900.109 605.089 894.446 C 596.874 889.727 595.352 887.367 596.569 881.469 C 597.482 876.042 600.525 873.682 610.565 869.907 C 629.734 863.064 631.559 862.592 642.817 864.008 C 648.598 864.716 660.464 865.188 668.679 865.188 Z  M 604.784 906.244 C 613.608 916.626 616.651 922.996 618.172 933.85 C 618.476 934.794 623.04 936.21 628.821 937.154 C 637.949 938.333 654.988 948.479 651.641 950.839 C 651.032 951.075 644.338 953.199 636.732 955.086 C 623.649 958.39 622.127 958.39 594.135 951.075 L 565.23 943.524 L 555.798 923.232 C 550.626 911.907 546.366 902.704 546.975 902.704 C 547.279 902.704 557.015 900.109 568.577 897.042 C 580.139 893.974 590.484 891.851 592.005 892.558 C 593.527 893.266 599.308 899.401 604.784 906.244 Z  M 763.913 899.165 C 782.777 903.648 783.082 904.356 769.694 929.839 L 759.654 948.715 L 734.4 954.142 C 710.059 959.333 708.233 959.333 692.716 955.794 C 683.588 953.67 676.286 951.311 676.286 950.603 C 676.286 946.828 690.282 938.097 696.367 938.097 C 708.842 938.097 712.797 935.502 712.797 927.716 C 712.797 919.929 717.665 913.086 730.444 901.997 C 739.572 894.682 742.615 894.446 763.913 899.165 Z  M 543.932 926.064 C 557.319 940.221 579.835 964.052 594.135 979.153 L 619.997 1006.524 L 640.687 1006.524 C 656.205 1006.524 661.681 1007.468 663.203 1010.063 C 664.724 1013.367 632.168 1053.951 607.523 1079.906 L 600.525 1087.456 L 578.618 1052.299 C 525.372 966.176 525.068 965.232 520.504 931.255 C 518.07 914.266 516.853 900.345 517.765 900.345 C 518.678 900.581 530.544 911.907 543.932 926.064 Z  M 661.073 919.457 L 661.073 935.738 L 649.207 935.738 C 629.125 935.738 622.736 932.671 619.085 920.873 C 616.955 915.21 613.608 909.075 610.87 907.424 C 608.435 905.772 606.306 903.884 606.306 902.94 C 606.306 902.233 618.476 901.761 633.689 902.233 L 661.073 902.94 L 661.073 919.457 Z  M 722.229 904.592 C 720.708 906.952 717.057 910.255 714.623 912.143 C 711.884 913.794 709.755 918.749 709.755 923.94 C 709.755 931.963 708.842 932.907 700.323 934.322 C 695.15 935.03 685.414 935.738 679.024 935.738 L 667.158 935.738 L 667.158 919.221 L 667.158 902.94 L 695.454 901.997 C 710.667 901.761 723.751 901.053 724.359 900.817 C 724.663 900.581 723.751 902.233 722.229 904.592 Z  M 446.568 933.378 C 448.09 945.648 445.655 961.457 434.398 1012.423 C 426.791 1047.344 419.489 1079.198 417.968 1083.209 L 415.533 1090.288 L 412.187 1084.389 C 408.231 1077.546 388.454 1036.726 373.545 1004.872 C 368.069 992.839 362.592 981.985 361.679 980.805 C 359.854 978.682 379.326 959.097 420.402 920.873 L 440.483 902.233 L 442.613 910.255 C 443.83 914.502 445.655 924.884 446.568 933.378 Z  M 926.693 936.446 C 945.862 955.086 963.509 972.547 965.639 975.142 C 968.986 979.389 967.16 984.816 950.426 1017.378 C 940.081 1038.142 928.215 1060.793 923.955 1068.108 C 919.999 1075.423 916.653 1082.737 916.653 1084.153 C 916.653 1085.569 915.436 1086.748 914.219 1086.748 C 912.697 1086.748 905.091 1055.838 897.18 1017.85 C 885.314 962.873 882.88 945.884 884.401 933.378 C 886.226 917.098 889.269 902.704 891.095 902.704 C 891.399 902.704 907.525 917.805 926.693 936.446 Z  M 807.118 935.974 C 803.771 964.996 803.467 965.232 782.473 999.21 C 770.911 1017.85 761.479 1033.423 761.479 1033.895 C 761.479 1035.782 731.053 1084.389 729.836 1084.389 C 725.88 1084.389 666.854 1015.49 667.766 1011.951 C 668.679 1008.412 673.243 1007.468 691.499 1006.052 C 710.667 1004.872 714.927 1003.693 718.882 999.21 C 721.317 996.142 727.706 989.299 732.574 984.108 C 737.747 978.917 756.611 958.861 774.867 939.749 C 793.122 920.637 808.335 905.3 809.248 905.772 C 809.857 906.48 808.944 919.929 807.118 935.974 Z  M 893.833 1021.861 C 899.918 1051.591 905.395 1078.018 906.308 1080.142 C 907.829 1084.389 904.178 1090.996 896.876 1098.074 C 894.442 1100.198 878.011 1117.186 860.06 1135.827 C 842.413 1154.467 827.2 1169.332 826.591 1168.86 C 825.983 1168.152 828.112 1156.827 831.459 1143.141 C 842.108 1100.67 877.099 957.446 877.403 955.322 C 878.316 949.187 884.401 974.198 893.833 1021.861 Z  M 459.956 981.749 C 505.595 1148.332 511.984 1173.343 506.812 1170.984 C 498.293 1166.973 423.749 1088.4 423.749 1083.681 C 423.749 1076.838 445.047 977.974 450.219 961.693 C 452.349 954.378 452.653 955.322 459.956 981.749 Z  M 501.944 1004.165 C 529.023 1035.546 539.064 1050.411 585.92 1127.096 L 602.654 1154.703 L 594.135 1183.489 C 589.267 1199.298 585.007 1212.748 584.399 1213.22 C 583.79 1213.691 570.098 1201.658 554.277 1186.557 C 538.76 1171.456 524.459 1158.006 522.634 1156.591 C 521.112 1155.175 517.157 1151.636 514.419 1149.04 C 511.68 1146.445 505.899 1132.287 501.64 1117.422 C 497.684 1102.557 485.818 1060.557 475.777 1024.457 C 465.432 988.12 457.217 957.918 457.217 957.21 C 457.522 954.378 473.647 971.131 501.944 1004.165 Z  M 600.829 968.064 C 615.129 976.086 615.433 976.086 632.472 973.727 C 655.596 970.423 674.156 970.659 695.454 974.67 L 712.797 977.738 L 730.444 968.771 C 739.877 963.816 748.092 960.041 748.7 960.513 C 749.309 960.985 741.702 970.423 731.357 981.277 C 713.406 1000.389 712.189 1001.333 698.497 1002.749 C 690.89 1003.457 670.505 1004.165 653.162 1004.165 L 621.823 1004.165 L 604.176 985.052 C 574.358 952.963 576.792 955.794 581.965 958.154 C 584.399 959.097 592.918 963.58 600.829 968.064 Z  M 568.273 1042.389 C 585.007 1070.703 599.308 1093.827 600.22 1093.591 C 601.133 1093.591 614.521 1078.254 630.342 1059.614 C 645.86 1040.737 659.856 1025.4 661.377 1025.4 C 662.594 1025.4 663.811 1074.479 664.115 1134.411 C 664.115 1194.343 663.507 1242.95 662.898 1242.242 C 661.986 1241.534 645.555 1215.579 626.691 1184.669 C 607.523 1153.523 579.226 1107.748 563.709 1083.209 C 536.021 1038.85 535.717 1038.142 531.457 1011.243 C 529.327 996.378 527.502 982.457 527.198 980.569 C 527.198 974.67 536.63 989.064 568.273 1042.389 Z  M 798.599 1010.535 C 795.861 1032.007 794.339 1035.782 776.692 1064.333 C 766.347 1081.085 752.656 1103.973 746.266 1115.063 C 739.877 1126.153 722.229 1155.883 706.712 1181.13 C 691.499 1206.377 677.199 1230.208 675.373 1234.219 L 672.026 1241.298 L 669.896 1231.86 C 666.854 1217.703 666.549 1024.693 669.592 1026.344 C 671.113 1027.052 684.197 1041.209 699.105 1057.726 C 714.014 1074.243 727.098 1088.872 728.315 1090.052 C 730.749 1092.175 736.225 1083.445 781.256 1008.176 C 792.21 989.771 799.816 979.625 800.425 982.457 C 801.033 985.052 800.12 997.558 798.599 1010.535 Z " fill="rgb(0,0,0)"/></g></g></svg>