<?xml version="1.0" encoding="UTF-8" standalone="no"?><!-- Generator: Gravit.io --><svg xmlns="http://www.w3.org/2000/svg" xmlns:xlink="http://www.w3.org/1999/xlink" style="isolation:isolate" viewBox="0 0 1200 1552" width="1200pt" height="1552pt"><defs><clipPath id="_clipPath_sna6mNu0Z517ycvCobflfFQW3UBhEEMM"><rect width="1200" height="1552"/></clipPath></defs><g clip-path="url(#_clipPath_sna6mNu0Z517ycvCobflfFQW3UBhEEMM)"><g><path d=" M 971.649 161.277 C 953.744 175.537 922.817 199.898 902.47 215.346 C 882.123 230.794 849.161 256.343 829.628 271.791 L 793.411 300.013 L 773.471 291.695 L 753.531 283.674 L 655.052 283.674 L 556.98 283.674 L 534.599 292.883 L 512.217 302.093 L 495.126 289.318 C 486.173 282.188 445.073 250.104 403.972 218.317 C 362.871 186.529 324.212 156.524 318.108 152.068 L 307.528 143.75 L 288.809 163.951 L 270.496 184.153 L 255.847 258.422 C 247.708 299.419 230.21 388.246 216.781 455.979 L 191.958 579.267 L 157.775 647.595 C 139.056 685.027 123.999 716.517 124.813 717.112 C 126.034 717.706 141.09 712.061 159.403 704.634 C 177.308 697.207 191.958 691.86 191.958 692.751 C 191.958 693.642 176.901 708.496 158.182 726.024 C 99.176 781.281 99.99 780.389 130.917 772.368 C 140.277 769.992 149.229 767.912 150.45 767.912 C 152.078 767.912 151.264 781.578 144.753 855.55 L 142.311 882.287 L 153.706 874.86 C 160.216 870.998 171.611 863.571 178.529 858.818 C 185.854 854.065 192.365 850.5 193.585 851.391 C 195.62 853.174 204.166 932.494 204.166 951.507 C 204.166 960.122 205.793 966.955 207.828 966.955 C 209.863 966.955 218.409 961.31 226.14 954.477 C 234.279 947.645 241.604 942.891 242.825 943.485 C 244.859 945.268 288.402 1029.935 302.645 1060.534 C 314.853 1086.083 318.108 1090.539 322.584 1085.489 C 324.619 1082.815 327.061 1082.518 329.502 1084.301 C 335.606 1089.351 433.678 1181.742 443.852 1192.14 C 449.142 1197.488 454.025 1201.35 455.246 1200.756 C 456.06 1199.864 454.839 1190.952 451.99 1181.148 C 449.549 1171.048 447.921 1162.135 449.142 1161.541 C 450.77 1160.353 514.659 1215.015 540.296 1239.376 C 548.028 1246.803 550.469 1243.238 562.27 1204.915 C 567.561 1186.793 573.258 1171.939 574.886 1171.939 C 577.734 1171.939 579.362 1174.018 618.835 1235.217 C 636.333 1262.845 652.204 1286.017 653.424 1286.908 C 655.459 1288.394 666.446 1272.351 711.616 1200.756 C 719.755 1188.278 727.487 1178.772 728.708 1179.663 C 729.929 1180.554 736.847 1194.814 743.764 1211.45 C 750.682 1228.087 758.007 1241.752 760.042 1241.752 C 761.67 1241.752 773.064 1233.137 785.272 1222.442 C 848.347 1167.483 864.218 1153.817 865.439 1154.708 C 866.253 1155.302 864.218 1164.809 860.962 1176.098 C 857.707 1187.387 855.672 1197.191 856.893 1197.785 C 858.114 1198.676 895.145 1163.027 954.965 1102.72 C 974.091 1083.409 981.416 1078.953 981.416 1086.38 C 981.416 1095.293 990.775 1079.845 1024.144 1015.973 C 1043.677 978.244 1060.769 946.456 1061.582 945.268 C 1062.803 943.783 1071.349 949.13 1081.115 956.854 L 1098.207 971.114 L 1101.055 933.979 C 1102.276 913.778 1104.718 886.149 1106.346 872.781 L 1108.787 848.123 L 1134.424 863.274 L 1160.468 878.425 L 1160.468 865.354 C 1160.468 858.224 1158.433 834.458 1155.992 812.771 C 1153.55 791.084 1152.329 772.665 1153.143 772.071 C 1153.957 771.477 1164.538 773.854 1176.339 777.121 C 1188.547 780.389 1199.127 782.469 1199.941 781.578 C 1201.162 780.983 1183.257 761.673 1160.875 738.798 C 1138.087 715.923 1119.774 696.613 1119.774 695.722 C 1119.774 694.534 1133.203 700.475 1149.481 708.199 C 1172.676 719.488 1179.187 721.568 1180.001 717.706 C 1180.408 715.032 1168.2 684.73 1151.922 650.566 C 1118.147 578.376 1124.251 602.439 1065.245 311.599 L 1039.201 183.855 L 1022.516 159.495 C 1013.157 146.126 1005.425 135.135 1004.611 135.135 C 1004.204 135.432 989.148 147.018 971.649 161.277 Z  M 1016.005 161.872 C 1026.586 177.32 1026.586 178.805 1014.785 173.458 C 1009.901 171.378 1004.611 171.378 996.879 173.458 C 987.927 175.834 978.567 187.717 942.757 241.192 L 899.214 305.955 L 902.877 363.291 C 904.505 395.078 905.319 421.221 904.098 421.815 C 902.877 422.41 887.006 410.526 868.694 395.672 C 850.382 380.521 830.442 364.776 824.745 360.32 C 812.13 350.517 810.502 354.081 857.3 301.499 C 875.612 281 910.202 242.38 934.618 215.346 C 984.671 158.901 996.472 147.018 1001.763 147.018 C 1003.797 147.018 1010.308 153.553 1016.005 161.872 Z  M 325.026 165.437 C 331.537 172.566 359.616 204.354 387.287 236.141 C 414.959 267.929 447.107 305.064 459.315 318.432 C 471.117 332.098 482.104 344.872 483.325 347.546 C 484.952 350.219 470.303 365.073 443.852 387.651 C 421.063 407.259 401.53 422.707 400.716 422.112 C 399.903 421.518 401.123 396.564 403.565 366.262 C 406.414 332.098 406.414 308.628 403.972 304.172 C 401.937 300.31 381.997 269.414 359.209 235.25 C 318.108 173.161 316.887 171.972 296.134 173.458 C 289.216 173.755 289.216 173.161 294.506 167.219 C 297.761 163.357 301.831 158.604 303.458 156.524 C 308.342 150.583 312.004 152.365 325.026 165.437 Z  M 355.953 242.083 L 399.496 305.955 L 397.461 357.944 C 393.798 436.669 399.903 427.163 338.455 450.632 C 309.562 461.921 284.332 470.833 281.891 470.833 C 278.635 470.833 277.414 428.054 277.414 328.83 L 277.414 187.123 L 288.809 181.776 C 294.913 179.102 302.645 177.023 305.9 177.617 C 309.562 177.914 330.723 205.542 355.953 242.083 Z  M 1019.261 182.073 L 1031.062 187.123 L 1030.655 320.215 C 1029.841 439.343 1028.621 470.833 1023.737 470.833 C 1022.923 470.833 997.286 461.921 967.173 450.929 L 912.236 430.728 L 912.236 417.359 C 911.83 409.932 910.202 382.601 908.167 356.755 L 904.912 309.52 L 948.047 244.757 C 971.649 209.107 994.031 179.399 997.693 178.508 C 1000.949 177.914 1004.611 177.32 1005.832 177.023 C 1007.053 177.023 1013.157 179.102 1019.261 182.073 Z  M 915.085 227.823 C 855.265 294.666 823.931 330.018 816.606 339.228 C 811.723 345.169 804.805 349.328 797.48 350.517 C 791.376 351.408 780.796 352.893 773.878 353.784 C 766.96 354.676 761.67 354.081 761.67 352.596 C 761.67 351.111 769.402 339.525 779.168 327.344 C 790.969 312.193 814.165 291.398 849.975 263.77 C 878.868 241.192 911.83 215.643 922.41 207.028 C 932.99 198.412 942.757 191.877 943.571 192.768 C 944.385 193.362 931.769 209.107 915.085 227.823 Z  M 440.596 253.966 C 486.987 289.615 513.438 312.49 526.867 328.83 C 537.854 341.901 545.586 353.19 544.365 354.081 C 541.11 356.458 491.056 349.328 489.836 346.06 C 489.022 344.575 484.545 338.93 479.255 333.583 C 455.653 307.44 362.871 197.818 362.871 195.739 C 362.871 194.253 365.313 195.442 368.161 198.115 C 371.01 200.789 403.565 226.041 440.596 253.966 Z  M 1070.942 372.797 C 1086.813 450.335 1102.276 526.387 1105.532 541.835 C 1108.787 557.283 1110.822 570.355 1110.008 570.949 C 1109.194 571.543 1096.986 560.254 1082.743 545.994 C 1054.664 517.475 1042.456 507.968 1002.17 484.202 C 987.52 475.587 968.801 464.298 961.069 459.247 L 946.826 449.741 L 977.346 460.436 C 994.031 466.377 1012.75 472.913 1018.854 475.29 C 1024.551 477.666 1030.655 479.746 1031.876 479.746 C 1033.097 479.746 1034.318 464.001 1034.318 444.69 C 1034.318 396.267 1039.608 229.903 1040.829 231.091 C 1041.642 231.388 1055.071 295.26 1070.942 372.797 Z  M 270.09 357.052 C 270.903 422.707 272.531 477.072 273.752 477.963 C 274.973 478.855 294.099 472.913 315.667 464.595 C 337.234 456.277 355.953 450.038 356.767 450.632 C 357.988 451.226 338.455 463.703 314.039 478.26 C 265.613 506.483 247.708 519.554 222.478 545.994 C 211.084 557.877 205.793 561.442 204.98 557.877 C 204.573 554.907 215.967 492.223 230.617 418.845 C 245.266 345.169 259.509 274.167 261.951 260.502 C 264.392 247.133 266.834 236.438 267.648 236.735 C 268.055 237.33 269.276 291.398 270.09 357.052 Z  M 773.064 296.448 C 779.982 299.419 786.086 302.984 786.086 304.766 C 786.086 309.223 713.244 404.882 708.361 407.259 C 705.919 408.15 693.304 402.802 680.282 395.375 C 667.26 387.948 655.052 381.71 653.424 381.71 C 651.797 381.71 641.216 386.76 629.822 393.296 C 618.428 399.535 607.034 405.476 604.185 406.664 C 600.929 407.853 585.466 391.81 560.236 360.914 C 538.668 334.474 520.356 311.302 519.135 308.926 C 517.507 306.252 524.425 302.093 539.482 296.448 L 561.864 288.13 L 660.749 289.615 C 745.392 290.804 761.67 291.992 773.064 296.448 Z  M 533.378 358.835 C 554.946 362.4 555.353 362.4 573.258 385.572 C 583.024 398.643 590.349 410.824 589.128 412.903 C 587.094 416.765 500.823 466.971 491.87 469.645 C 487.394 470.833 443.038 451.82 414.145 436.372 L 402.751 430.134 L 446.7 392.702 C 495.126 351.408 492.277 352.596 533.378 358.835 Z  M 839.395 379.333 C 856.079 392.999 877.24 409.932 886.599 417.359 C 899.621 427.46 902.47 431.619 898.808 433.996 C 889.041 440.234 819.455 470.833 814.978 470.833 C 812.537 470.833 788.121 458.059 761.263 442.314 L 712.43 414.091 L 725.452 397.158 C 752.717 361.508 753.124 361.211 771.029 358.538 C 806.026 352.596 807.247 353.19 839.395 379.333 Z  M 705.919 416.171 C 733.184 431.916 757.193 445.879 759.228 447.364 C 761.67 448.85 753.531 467.863 739.695 493.411 L 716.093 536.785 L 724.638 559.66 C 729.522 572.434 733.184 584.912 733.184 587.882 C 733.184 592.636 721.383 605.707 674.585 652.645 L 654.645 672.55 L 645.693 664.529 C 615.579 637.494 570.409 592.636 570.409 589.368 C 570.409 587.288 575.292 574.811 580.99 561.442 L 591.977 537.379 L 568.375 493.708 C 555.759 469.942 545.993 449.147 546.4 447.364 C 548.435 444.096 648.134 387.948 653.017 387.651 C 655.052 387.651 678.655 400.426 705.919 416.171 Z  M 441.41 455.385 C 461.35 464.595 478.441 473.804 479.662 475.587 C 481.29 478.855 464.199 506.78 455.653 514.504 C 452.804 516.881 445.073 516.286 424.319 510.939 C 399.903 504.997 392.578 504.403 366.534 506.483 C 302.645 511.533 273.345 512.721 273.752 510.345 C 274.159 505.295 393.392 435.481 399.496 436.966 C 402.751 437.858 421.47 446.176 441.41 455.385 Z  M 970.835 471.725 C 1040.829 513.91 1037.98 510.345 999.728 508.265 C 981.823 507.077 956.186 505.592 942.757 504.7 C 925.258 503.512 909.388 504.7 886.192 509.157 C 868.287 512.424 852.417 514.504 850.789 513.91 C 849.568 513.019 841.429 504.403 833.291 494.6 L 818.641 476.478 L 843.464 465.486 C 856.893 459.544 876.426 450.335 887.006 445.285 C 901.656 438.452 907.76 436.669 913.864 439.046 C 917.934 440.531 943.571 455.088 970.835 471.725 Z  M 561.864 494.6 L 583.838 536.191 L 574.479 559.066 C 569.595 571.84 564.712 582.832 563.898 583.426 C 563.084 584.02 555.353 575.999 546.4 565.601 C 532.157 548.965 526.46 545.4 495.533 533.22 L 460.943 519.554 L 476 497.868 C 486.987 482.419 496.754 473.21 511.403 464.892 C 522.798 458.653 533.785 453.306 535.82 453.306 C 538.261 453.009 550.062 471.725 561.864 494.6 Z  M 793.411 466.971 C 809.281 476.478 834.918 501.432 841.429 513.613 C 843.057 516.583 833.698 522.228 811.723 531.437 C 787.307 541.835 776.319 548.668 763.297 562.037 C 754.345 571.246 744.985 579.267 742.951 579.861 C 740.509 580.455 735.626 570.949 731.556 558.769 L 723.825 536.785 L 745.392 496.382 C 757.6 474.101 768.995 455.979 771.029 455.979 C 773.471 455.979 783.237 460.733 793.411 466.971 Z  M 426.353 516.583 C 480.476 530.249 480.883 531.14 433.678 535.894 C 401.937 539.161 327.468 557.58 248.115 582.238 C 239.569 584.614 232.651 585.803 232.651 584.614 C 232.651 578.376 254.626 525.199 258.695 522.228 C 262.358 519.554 346.594 511.236 387.694 509.751 C 393.392 509.751 410.89 512.721 426.353 516.583 Z  M 1018.04 514.504 L 1042.049 516.286 L 1056.699 547.777 C 1064.431 565.007 1070.942 580.158 1070.942 581.05 C 1070.942 581.941 1031.876 573.028 984.671 561.145 C 937.06 548.965 892.297 539.161 885.379 539.161 C 858.521 539.161 823.117 535.299 825.152 532.923 C 828.814 528.17 852.417 520.446 879.681 515.098 C 906.132 509.454 952.116 509.454 1018.04 514.504 Z  M 1096.172 566.493 C 1108.38 578.673 1118.961 595.309 1132.796 624.126 C 1143.784 646.407 1151.922 665.42 1151.109 666.014 C 1149.888 666.608 1134.017 648.783 1114.891 626.205 C 1092.917 599.765 1077.453 577.188 1071.349 562.928 C 1066.059 550.748 1060.769 538.567 1059.955 536.191 C 1057.513 530.843 1072.977 543.915 1096.172 566.493 Z  M 510.183 545.103 C 535.82 556.689 560.236 586.1 556.573 601.251 C 552.504 619.67 547.621 618.184 528.902 592.339 L 511.403 567.384 L 465.419 555.798 C 440.189 549.559 420.249 543.915 421.47 543.023 C 423.912 541.241 460.129 537.082 476.814 536.488 C 486.173 536.488 497.567 539.459 510.183 545.103 Z  M 232.244 565.007 C 225.733 581.644 215.153 597.092 194.806 620.264 C 179.343 637.792 165.914 651.754 165.1 651.16 C 163.065 649.675 196.434 582.832 203.352 575.108 C 219.629 556.689 237.942 539.161 239.569 540.35 C 240.79 541.241 237.535 552.233 232.244 565.007 Z  M 856.486 542.132 C 867.066 542.132 875.612 543.321 875.612 544.509 C 875.612 545.697 856.893 551.342 833.698 556.689 L 791.783 566.79 L 773.878 591.447 C 763.704 605.113 754.345 616.402 752.717 616.402 C 751.089 616.402 748.648 610.46 747.427 603.33 C 744.985 591.447 746.206 588.774 762.484 570.949 C 783.237 547.777 801.956 538.27 822.71 540.647 C 830.442 541.241 845.499 542.132 856.486 542.132 Z  M 440.189 554.61 L 478.848 564.413 L 441.41 565.899 L 403.565 567.384 L 336.42 616.105 C 299.796 643.139 268.869 664.529 268.055 663.637 C 264.799 661.261 232.651 598.28 232.651 594.715 C 232.651 592.636 246.08 587.585 262.358 583.129 C 278.228 578.673 314.446 568.572 342.524 560.551 C 370.603 552.233 395.019 545.4 397.461 545.4 C 399.496 545.103 419.029 549.559 440.189 554.61 Z  M 988.741 567.384 C 1045.712 581.644 1070.942 589.368 1070.942 592.339 C 1070.942 598.874 1041.236 663.934 1038.387 663.934 C 1036.759 663.934 1006.239 641.951 970.428 614.917 L 904.912 566.196 L 864.625 565.304 L 824.745 564.413 L 861.369 554.907 C 881.716 549.559 900.028 545.697 902.063 545.994 C 904.505 546.291 943.571 555.798 988.741 567.384 Z  M 891.89 571.543 C 891.89 579.564 873.17 595.606 851.196 606.895 C 826.373 619.67 821.896 620.858 780.796 623.829 L 757.193 625.314 L 776.726 598.874 L 796.259 572.137 L 828.814 571.246 C 846.72 570.652 868.287 569.761 876.833 569.463 C 884.972 569.166 891.89 570.058 891.89 571.543 Z  M 524.832 597.092 C 534.192 611.054 541.924 623.235 541.924 623.829 C 541.924 624.72 529.715 624.423 514.659 623.532 C 491.87 621.749 482.511 619.076 459.315 608.381 C 435.713 597.389 415.773 581.644 415.773 573.92 C 415.773 572.731 436.527 571.84 461.757 571.84 L 507.741 571.84 L 524.832 597.092 Z  M 928.514 621.155 L 938.28 658.587 L 924.852 706.714 C 917.527 732.857 909.795 756.326 908.167 758.703 C 906.539 761.079 889.855 769.992 871.136 778.31 C 839.802 792.272 836.139 795.243 828.407 809.206 C 823.524 817.821 818.641 823.763 817.42 822.574 C 814.165 818.415 777.947 746.225 777.947 743.254 C 777.947 735.233 804.805 713.547 823.931 706.714 C 835.732 702.258 846.313 697.207 847.94 695.425 C 849.568 693.642 862.183 673.441 875.612 650.269 C 891.89 622.046 900.028 604.519 900.028 596.201 C 900.028 589.665 901.249 581.941 902.47 579.267 C 904.912 575.108 905.725 575.108 911.83 578.97 C 916.306 581.941 922.41 596.795 928.514 621.155 Z  M 409.262 596.498 C 410.89 607.787 418.215 626.503 427.574 643.436 C 460.129 701.069 458.095 698.693 480.476 705.525 C 495.94 710.576 503.672 715.626 515.473 728.401 L 530.529 745.037 L 510.996 787.816 C 500.009 810.988 490.243 830.298 489.022 830.298 C 487.801 830.298 483.325 822.872 478.848 813.662 C 470.71 795.837 464.606 791.381 422.691 770.883 C 391.764 755.435 392.171 756.623 377.521 699.584 L 366.941 659.478 L 376.707 624.423 C 385.253 592.933 394.205 577.782 403.565 577.782 C 405.193 577.782 407.634 586.1 409.262 596.498 Z  M 892.703 597.686 C 891.483 605.41 880.088 629.77 867.473 652.051 C 844.685 690.672 843.464 692.454 825.152 699.584 C 813.351 704.337 805.212 705.823 802.77 704.04 C 796.666 698.99 757.6 633.93 759.635 631.553 C 760.449 630.068 775.912 628.285 793.818 627.394 C 823.931 625.611 828.407 624.423 854.044 611.649 C 869.101 604.222 884.158 594.715 887.006 590.853 C 894.331 580.752 895.145 581.941 892.703 597.686 Z  M 456.06 612.837 C 484.952 626.503 491.056 628.285 510.996 628.285 C 548.028 628.285 547.621 627.097 524.425 667.796 C 513.031 687.701 503.265 704.634 502.858 705.228 C 502.044 705.823 493.498 704.04 483.732 701.366 L 465.826 696.613 L 440.596 652.645 C 423.505 622.641 415.773 605.41 416.18 597.092 C 416.18 587.585 416.994 586.397 419.842 591.447 C 421.47 594.715 437.748 604.519 456.06 612.837 Z  M 1032.283 699.881 C 1028.621 715.032 1025.365 727.806 1024.958 728.103 C 1024.551 728.401 1005.425 718.3 982.23 705.823 L 940.315 683.245 L 942.757 668.094 C 944.385 657.993 942.35 644.327 936.653 625.314 C 932.176 609.866 928.514 595.903 928.514 594.418 C 928.514 592.636 953.337 609.272 983.857 631.553 L 1038.794 671.659 L 1032.283 699.881 Z  M 368.161 631.256 C 363.685 647.595 361.65 664.232 363.278 670.767 L 365.72 682.056 L 322.584 704.04 C 298.982 716.22 279.042 725.43 278.228 724.836 C 277.007 724.241 274.566 711.764 272.938 697.504 L 269.683 671.361 L 321.364 633.93 C 349.849 613.134 373.452 597.686 374.265 599.765 C 374.672 601.548 371.824 615.808 368.161 631.256 Z  M 1118.961 640.762 C 1181.629 714.735 1182.85 718.3 1135.238 695.128 C 1114.077 685.027 1092.51 677.303 1077.453 674.332 C 1064.024 671.956 1051.816 668.985 1050.188 667.796 C 1048.153 666.014 1064.024 625.611 1077.046 598.874 C 1079.895 593.824 1075.825 589.665 1118.961 640.762 Z  M 244.859 635.415 C 253.812 653.24 261.137 667.796 260.323 668.094 C 259.509 668.391 248.929 670.47 236.721 672.55 C 224.513 674.629 198.062 682.948 178.122 691.266 C 158.589 699.287 141.497 705.228 140.277 704.337 C 135.8 701.069 148.415 682.65 176.087 650.863 C 219.629 601.251 222.071 598.577 225.326 600.954 C 226.547 602.142 235.5 617.59 244.859 635.415 Z  M 599.302 628.879 C 613.545 642.545 626.16 654.131 627.38 655.022 C 628.601 655.913 634.705 661.558 640.809 667.499 C 646.913 673.738 653.424 678.788 655.052 678.788 C 656.68 678.788 674.178 661.855 694.525 641.654 C 714.465 621.155 731.556 605.41 732.37 606.895 C 732.777 608.084 729.522 627.691 725.452 650.566 C 717.314 691.86 717.314 692.157 725.859 731.668 C 730.336 753.652 732.777 772.071 731.556 772.962 C 730.336 773.854 718.941 773.259 706.326 771.18 C 673.771 766.724 616.393 767.021 592.791 772.368 C 581.803 774.745 572.037 776.23 571.223 775.636 C 570.409 775.042 573.665 758.703 578.548 739.095 C 583.431 719.785 587.501 698.693 587.501 692.157 C 587.501 682.056 579.362 640.168 572.037 612.54 C 570.816 608.084 570.409 604.519 571.63 604.519 C 572.444 604.519 585.059 615.511 599.302 628.879 Z  M 573.665 651.754 L 582.21 693.048 L 574.072 728.103 C 569.595 747.711 565.119 765.535 563.898 767.912 C 560.643 774.151 508.962 714.438 510.996 707.011 C 511.81 703.743 522.798 682.65 535.413 660.37 C 548.028 638.089 558.201 617.59 558.201 615.214 C 558.201 612.54 559.829 610.46 561.457 610.46 C 563.491 610.46 568.781 629.176 573.665 651.754 Z  M 745.392 621.155 C 745.392 623.532 757.193 644.624 771.436 668.391 L 797.48 711.17 L 770.622 739.69 C 756.38 755.138 742.951 767.912 741.73 767.912 C 740.102 767.912 735.626 750.087 731.963 728.401 C 725.452 692.454 725.452 686.512 731.149 655.319 C 734.405 636.603 737.253 619.373 737.253 617.293 C 737.253 614.917 739.288 614.025 741.323 614.917 C 743.764 615.808 745.392 618.779 745.392 621.155 Z  M 267.241 704.04 L 269.683 730.777 L 205.387 747.711 C 169.983 756.92 136.614 765.238 131.324 766.427 C 122.778 768.209 125.627 764.644 148.008 743.849 C 162.251 730.183 183.005 710.576 193.585 700.475 C 211.084 684.136 215.153 681.759 235.907 677.897 C 248.929 675.521 260.323 674.629 261.544 675.521 C 263.172 676.412 265.613 689.186 267.241 704.04 Z  M 1075.011 679.383 C 1092.917 682.353 1097.8 684.73 1110.822 697.801 C 1118.961 706.12 1138.9 726.024 1155.585 742.363 C 1171.862 758.405 1184.477 772.071 1183.664 772.665 C 1181.629 774.151 1041.236 735.53 1036.759 732.263 C 1031.062 728.103 1042.456 675.818 1048.967 675.818 C 1051.816 675.818 1063.617 677.303 1075.011 679.383 Z  M 981.416 711.467 C 1000.542 721.865 1017.226 731.074 1019.261 732.263 C 1020.889 733.154 1011.529 739.392 998.914 745.631 C 985.892 752.167 956.593 767.021 933.804 778.904 C 911.016 790.787 891.483 800.591 889.855 800.591 C 888.634 800.591 893.924 792.272 901.249 781.875 C 908.981 771.774 917.527 756.029 919.968 747.116 C 935.025 694.236 937.467 687.701 942.35 690.077 C 944.791 691.563 962.29 701.069 981.416 711.467 Z  M 377.521 724.241 C 385.66 754.246 388.508 760.188 408.855 784.251 C 421.47 798.808 430.83 811.285 430.423 811.88 C 428.795 813.068 281.891 734.342 281.891 732.263 C 281.484 730.183 360.023 690.969 364.906 690.672 C 367.348 690.672 373.045 705.823 377.521 724.241 Z  M 284.739 751.87 C 292.064 761.079 297.761 769.397 297.761 770.883 C 297.761 772.071 279.856 785.143 258.288 799.402 C 236.314 813.959 204.166 835.646 186.667 847.232 C 169.169 859.115 153.299 868.919 151.671 868.919 C 150.45 868.919 150.45 856.441 152.078 841.29 C 153.299 826.436 154.926 804.453 155.74 792.57 C 156.147 780.983 157.775 769.694 159.81 767.615 C 161.844 764.941 253.812 738.204 269.276 735.53 C 270.496 735.53 277.414 742.66 284.739 751.87 Z  M 1089.254 753.355 C 1151.109 770.586 1146.225 765.832 1150.295 810.988 C 1151.516 825.545 1153.55 844.855 1155.178 853.768 C 1157.213 868.622 1156.806 869.216 1149.888 866.542 C 1145.411 864.76 1137.68 860.303 1131.983 856.441 C 1126.285 852.579 1095.358 832.378 1062.803 811.285 C 1030.248 790.193 1003.797 772.071 1003.797 771.18 C 1003.797 767.615 1028.214 738.204 1031.469 738.204 C 1033.097 738.204 1059.141 745.037 1089.254 753.355 Z  M 366.534 784.845 C 385.66 794.946 411.297 808.315 423.098 814.553 C 434.899 820.792 445.479 828.516 446.293 831.784 C 447.107 835.052 451.177 857.63 454.432 882.287 C 458.095 906.648 463.792 941.406 467.047 959.231 C 474.372 1001.119 474.372 1002.307 467.047 996.663 C 463.792 994.286 440.596 969.331 414.959 941.703 L 368.568 891.2 L 363.278 862.977 C 357.988 835.943 356.767 832.972 323.805 791.381 C 305.086 767.318 289.623 747.116 289.623 745.928 C 289.623 745.037 298.982 749.196 310.376 755.435 C 321.771 761.376 347.001 774.745 366.534 784.845 Z  M 981.416 789.599 L 948.454 832.972 L 943.978 863.571 C 941.536 884.367 937.467 896.547 932.583 901.894 C 928.514 906.054 926.072 912.589 927.293 916.748 C 928.514 922.393 905.319 1013.596 873.17 1130.051 C 871.136 1137.181 853.638 1154.708 817.42 1186.496 C 788.121 1212.044 763.297 1232.543 762.077 1231.949 C 760.856 1231.652 758.414 1228.384 756.786 1224.522 C 755.159 1220.957 749.462 1206.697 743.358 1192.734 L 733.184 1167.186 L 755.973 1130.348 C 768.181 1109.849 784.051 1084.598 790.969 1073.903 C 797.48 1063.208 809.688 1043.898 817.827 1030.827 C 825.966 1017.755 837.36 1002.307 843.464 996.663 C 885.379 956.26 924.852 915.56 923.224 914.372 C 921.189 913.183 885.379 947.645 853.231 980.917 C 841.836 992.8 834.918 996.663 834.918 991.315 C 834.918 990.127 839.395 954.774 844.685 912.589 C 856.079 822.277 855.265 824.06 908.167 797.62 C 927.293 788.113 958.22 772.368 977.346 762.565 C 996.472 752.761 1012.343 745.334 1013.157 745.631 C 1013.971 746.225 999.728 765.832 981.416 789.599 Z  M 777.133 758.108 C 807.654 815.445 814.978 831.19 812.944 834.755 C 811.316 838.32 806.433 838.023 783.644 833.269 C 768.588 830.001 755.973 827.031 755.159 826.436 C 754.345 825.842 751.089 815.147 747.834 802.373 L 741.73 779.498 L 754.752 764.941 C 762.077 756.92 768.995 750.384 770.215 750.384 C 771.843 750.087 774.692 753.652 777.133 758.108 Z  M 551.283 768.506 C 562.27 779.201 562.27 779.795 557.794 801.482 L 553.318 823.763 L 526.053 829.704 C 511.403 832.972 498.381 835.052 497.567 834.458 C 496.754 833.863 504.892 815.445 515.473 793.164 C 526.053 770.883 536.226 753.949 537.854 755.138 C 539.075 756.326 545.179 762.565 551.283 768.506 Z  M 438.968 784.845 C 463.385 797.323 464.199 798.214 480.069 827.922 C 499.195 864.76 503.672 874.563 498.381 870.404 C 482.918 858.521 441.41 814.553 411.704 778.607 C 400.716 765.535 401.937 765.832 438.968 784.845 Z  M 718.127 778.013 C 731.149 780.686 735.219 783.36 738.067 790.193 C 739.695 794.946 740.509 799.105 739.695 799.699 C 738.881 800.294 727.894 797.323 714.872 792.867 C 691.676 785.44 690.456 785.44 675.806 790.193 C 661.97 794.946 659.122 794.946 639.182 790.787 C 619.649 786.331 615.579 786.331 596.86 790.787 C 585.873 793.461 574.072 797.026 571.223 798.511 C 566.747 801.185 565.933 799.699 567.154 791.381 C 568.375 781.578 569.188 781.281 595.232 776.824 C 625.753 771.774 691.676 772.368 718.127 778.013 Z  M 898.808 775.933 C 869.508 812.474 803.991 879.911 800.329 877.237 C 799.515 876.643 808.467 858.521 820.269 836.834 L 841.429 797.323 L 867.88 785.737 C 893.11 774.448 902.47 771.477 898.808 775.933 Z  M 327.875 805.047 L 351.07 833.566 L 342.524 842.182 C 335.606 849.312 277.821 902.192 228.175 946.753 C 221.664 952.992 214.339 958.042 212.711 958.042 C 210.677 958.042 208.235 938.435 206.607 914.075 C 204.98 890.011 202.945 864.76 201.724 858.224 C 198.876 844.261 196.841 846.341 255.033 808.018 C 274.566 794.946 292.878 782.766 295.32 780.686 C 297.761 778.607 301.017 777.121 302.238 776.824 C 303.865 776.824 315.26 789.599 327.875 805.047 Z  M 1062.803 817.227 L 1103.904 843.37 L 1101.869 860.006 C 1100.648 868.919 1098.614 894.765 1096.986 917.045 C 1095.358 944.674 1092.917 958.042 1089.661 957.745 C 1087.219 957.745 1075.011 947.347 1062.396 934.87 C 1049.781 922.393 1020.889 894.765 998.1 873.672 C 975.719 852.579 957 834.161 957 832.675 C 957 831.487 966.359 818.118 977.753 803.561 L 998.507 776.824 L 1010.308 783.954 C 1016.412 787.816 1040.015 802.967 1062.803 817.227 Z  M 657.901 794.946 C 669.295 794.946 683.945 794.352 690.456 794.055 C 697.374 793.758 712.023 797.026 723.011 800.888 C 740.916 807.423 743.358 809.503 744.578 818.712 C 745.799 827.922 744.171 829.704 731.149 834.161 C 719.348 838.32 704.698 839.211 651.39 839.211 C 588.314 839.211 585.873 838.914 572.851 831.784 C 561.864 825.842 559.829 822.872 561.457 815.445 C 562.677 808.612 566.747 805.641 580.176 800.888 C 605.813 792.272 608.254 791.678 623.311 793.461 C 631.043 794.352 646.913 794.946 657.901 794.946 Z  M 572.444 846.638 C 584.245 859.709 588.314 867.73 590.349 881.396 C 590.756 882.584 596.86 884.367 604.592 885.555 C 616.8 887.041 639.589 899.815 635.112 902.786 C 634.298 903.083 625.346 905.756 615.172 908.133 C 597.674 912.292 595.639 912.292 558.201 903.083 L 519.542 893.576 L 506.927 868.027 C 500.009 853.768 494.312 842.182 495.126 842.182 C 495.533 842.182 508.555 838.914 524.018 835.052 C 539.482 831.19 553.318 828.516 555.353 829.407 C 557.387 830.298 565.119 838.023 572.444 846.638 Z  M 785.272 837.725 C 810.502 843.37 810.909 844.261 793.004 876.346 L 779.575 900.112 L 745.799 906.945 C 713.244 913.48 710.803 913.48 690.049 909.024 C 677.841 906.351 668.074 903.38 668.074 902.489 C 668.074 897.735 686.793 886.743 694.932 886.743 C 711.616 886.743 716.907 883.476 716.907 873.672 C 716.907 863.868 723.418 855.253 740.509 841.29 C 752.717 832.081 756.786 831.784 785.272 837.725 Z  M 491.056 871.592 C 508.962 889.417 539.075 919.422 558.201 938.435 L 592.791 972.896 L 620.462 972.896 C 641.216 972.896 648.541 974.085 650.576 977.352 C 652.611 981.511 609.068 1032.609 576.106 1065.288 L 566.747 1074.794 L 537.447 1030.529 C 466.233 922.096 465.826 920.907 459.722 878.128 C 456.467 856.738 454.839 839.211 456.06 839.211 C 457.281 839.508 473.151 853.768 491.056 871.592 Z  M 647.727 863.274 L 647.727 883.773 L 631.857 883.773 C 604.999 883.773 596.453 879.911 591.57 865.057 C 588.721 857.927 584.245 850.203 580.583 848.123 C 577.327 846.044 574.479 843.667 574.479 842.479 C 574.479 841.587 590.756 840.993 611.103 841.587 L 647.727 842.479 L 647.727 863.274 Z  M 729.522 844.558 C 727.487 847.529 722.604 851.688 719.348 854.065 C 715.686 856.144 712.837 862.383 712.837 868.919 C 712.837 879.019 711.616 880.208 700.222 881.99 C 693.304 882.881 680.282 883.773 671.737 883.773 L 655.866 883.773 L 655.866 862.977 L 655.866 842.479 L 693.711 841.29 C 714.058 840.993 731.556 840.102 732.37 839.805 C 732.777 839.508 731.556 841.587 729.522 844.558 Z  M 360.837 880.802 C 362.871 896.25 359.616 916.154 344.559 980.323 C 334.386 1024.291 324.619 1064.396 322.584 1069.447 L 319.329 1078.359 L 314.853 1070.932 C 309.562 1062.317 283.112 1010.922 263.172 970.817 C 255.847 955.666 248.522 942 247.301 940.515 C 244.859 937.841 270.903 913.183 325.84 865.057 L 352.698 841.587 L 355.546 851.688 C 357.174 857.036 359.616 870.107 360.837 880.802 Z  M 1002.983 884.664 C 1028.621 908.133 1052.223 930.117 1055.071 933.385 C 1059.548 938.732 1057.106 945.565 1034.725 986.562 C 1020.889 1012.705 1005.018 1041.224 999.321 1050.434 C 994.031 1059.643 989.555 1068.853 989.555 1070.635 C 989.555 1072.418 987.927 1073.903 986.299 1073.903 C 984.264 1073.903 974.091 1034.986 963.511 987.156 C 947.64 917.937 944.385 896.547 946.419 880.802 C 948.861 860.303 952.93 842.182 955.372 842.182 C 955.779 842.182 977.346 861.195 1002.983 884.664 Z  M 843.057 884.07 C 838.581 920.61 838.174 920.907 810.095 963.687 C 794.632 987.156 782.017 1006.763 782.017 1007.357 C 782.017 1009.734 741.323 1070.932 739.695 1070.932 C 734.405 1070.932 655.459 984.185 656.68 979.729 C 657.901 975.273 664.005 974.085 688.421 972.302 C 714.058 970.817 719.755 969.331 725.045 963.687 C 728.301 959.825 736.847 951.209 743.358 944.674 C 750.275 938.138 775.506 912.886 799.922 888.823 C 824.338 864.76 844.685 845.449 845.906 846.044 C 846.72 846.935 845.499 863.868 843.057 884.07 Z  M 959.034 992.206 C 967.173 1029.638 974.498 1062.911 975.719 1065.585 C 977.753 1070.932 972.87 1079.25 963.104 1088.163 C 959.848 1090.836 937.874 1112.226 913.864 1135.695 C 890.262 1159.165 869.915 1177.88 869.101 1177.286 C 868.287 1176.395 871.136 1162.135 875.612 1144.905 C 889.855 1091.431 936.653 911.104 937.06 908.43 C 938.28 900.706 946.419 932.196 959.034 992.206 Z  M 378.742 941.703 C 439.782 1151.44 448.328 1182.931 441.41 1179.96 C 430.016 1174.91 330.316 1075.982 330.316 1070.041 C 330.316 1061.426 358.802 936.95 365.72 916.451 C 368.568 907.242 368.975 908.43 378.742 941.703 Z  M 434.899 969.925 C 471.117 1009.437 484.545 1028.153 547.214 1124.703 L 569.595 1159.462 L 558.201 1195.705 C 551.69 1215.609 545.993 1232.543 545.179 1233.137 C 544.365 1233.731 526.053 1218.58 504.892 1199.567 C 484.139 1180.554 465.012 1163.621 462.571 1161.838 C 460.536 1160.056 455.246 1155.6 451.584 1152.332 C 447.921 1149.064 440.189 1131.239 434.492 1112.523 C 429.202 1093.807 413.331 1040.927 399.903 995.474 C 386.067 949.724 375.079 911.698 375.079 910.807 C 375.486 907.242 397.054 928.334 434.899 969.925 Z  M 567.154 924.472 C 586.28 934.573 586.687 934.573 609.475 931.602 C 640.402 927.443 665.226 927.74 693.711 932.791 L 716.907 936.653 L 740.509 925.364 C 753.124 919.125 764.111 914.372 764.925 914.966 C 765.739 915.56 755.566 927.443 741.73 941.109 C 717.72 965.172 716.093 966.36 697.781 968.143 C 687.607 969.034 660.342 969.925 637.147 969.925 L 595.232 969.925 L 571.63 945.862 C 531.75 905.459 535.006 909.024 541.924 911.995 C 545.179 913.183 556.573 918.828 567.154 924.472 Z  M 523.611 1018.052 C 545.993 1053.702 565.119 1082.815 566.34 1082.518 C 567.561 1082.518 585.466 1063.208 606.627 1039.739 C 627.38 1015.973 646.1 996.663 648.134 996.663 C 649.762 996.663 651.39 1058.455 651.797 1133.913 C 651.797 1209.371 650.983 1270.569 650.169 1269.678 C 648.948 1268.787 626.973 1236.108 601.743 1197.191 C 576.106 1157.976 538.261 1100.343 517.507 1069.447 C 480.476 1013.596 480.069 1012.705 474.372 978.838 C 471.523 960.122 469.082 942.594 468.675 940.218 C 468.675 932.791 481.29 950.912 523.611 1018.052 Z  M 831.663 977.947 C 828 1004.981 825.966 1009.734 802.363 1045.68 C 788.528 1066.773 770.215 1095.59 761.67 1109.552 C 753.124 1123.515 729.522 1160.947 708.768 1192.734 C 688.421 1224.522 669.295 1254.527 666.853 1259.577 L 662.377 1268.489 L 659.528 1256.606 C 655.459 1238.782 655.052 995.771 659.122 997.851 C 661.156 998.742 678.655 1016.567 698.594 1037.362 C 718.534 1058.158 736.033 1076.577 737.66 1078.062 C 740.916 1080.736 748.241 1069.744 808.467 974.976 C 823.117 951.804 833.291 939.029 834.105 942.594 C 834.918 945.862 833.698 961.607 831.663 977.947 Z " fill="rgb(0,0,0)"/></g></g></svg>